<svg width="316" height="210" viewBox="0 0 316 210" fill="none" xmlns="http://www.w3.org/2000/svg">
<path d="M273.833 96.2431C273.833 96.2431 249.008 49.8751 211.429 32.1007C173.851 14.3263 128.477 18.1945 106.383 37.8967C84.2879 57.5989 90.1023 71.1271 55.2201 106.29C20.3379 141.452 26.9233 187.429 84.2921 194.771C141.661 202.113 142.436 187.816 190.502 190.907C238.568 193.998 278.08 197.862 287.771 170.428C297.461 142.993 273.833 96.2431 273.833 96.2431Z" fill="#11305B"/>
<path opacity="0.7" d="M273.833 96.2431C273.833 96.2431 249.008 49.8751 211.429 32.1007C173.851 14.3263 128.477 18.1945 106.383 37.8967C84.2879 57.5989 90.1023 71.1271 55.2201 106.29C20.3379 141.452 26.9233 187.429 84.2921 194.771C141.661 202.113 142.436 187.816 190.502 190.907C238.568 193.998 278.08 197.862 287.771 170.428C297.461 142.993 273.833 96.2431 273.833 96.2431Z" fill="white"/>
<g opacity="0.3">
<path d="M287.695 113.484H253.592V144.673H287.695V113.484Z" stroke="black" stroke-linecap="round" stroke-linejoin="round"/>
<path d="M259.17 126.189H255.993V129.356H259.17V126.189Z" stroke="black" stroke-linecap="round" stroke-linejoin="round"/>
<path d="M263.523 126.189H260.346V129.356H263.523V126.189Z" stroke="black" stroke-linecap="round" stroke-linejoin="round"/>
<path d="M267.879 126.189H264.702V129.356H267.879V126.189Z" stroke="black" stroke-linecap="round" stroke-linejoin="round"/>
<path d="M272.232 126.189H269.055V129.356H272.232V126.189Z" stroke="black" stroke-linecap="round" stroke-linejoin="round"/>
<path d="M276.584 126.189H273.407V129.356H276.584V126.189Z" stroke="black" stroke-linecap="round" stroke-linejoin="round"/>
<path d="M280.941 126.189H277.764V129.356H280.941V126.189Z" stroke="black" stroke-linecap="round" stroke-linejoin="round"/>
<path d="M285.293 126.189H282.116V129.356H285.293V126.189Z" stroke="black" stroke-linecap="round" stroke-linejoin="round"/>
<path d="M259.17 131.46H255.993V134.627H259.17V131.46Z" stroke="black" stroke-linecap="round" stroke-linejoin="round"/>
<path d="M263.523 131.46H260.346V134.627H263.523V131.46Z" stroke="black" stroke-linecap="round" stroke-linejoin="round"/>
<path d="M267.879 131.46H264.702V134.627H267.879V131.46Z" stroke="black" stroke-linecap="round" stroke-linejoin="round"/>
<path d="M272.232 131.46H269.055V134.627H272.232V131.46Z" stroke="black" stroke-linecap="round" stroke-linejoin="round"/>
<path d="M276.584 131.46H273.407V134.627H276.584V131.46Z" stroke="black" stroke-linecap="round" stroke-linejoin="round"/>
<path d="M280.941 131.46H277.764V134.627H280.941V131.46Z" stroke="black" stroke-linecap="round" stroke-linejoin="round"/>
<path d="M285.293 131.46H282.116V134.627H285.293V131.46Z" stroke="black" stroke-linecap="round" stroke-linejoin="round"/>
<path d="M259.17 136.727H255.993V139.894H259.17V136.727Z" stroke="black" stroke-linecap="round" stroke-linejoin="round"/>
<path d="M263.523 136.727H260.346V139.894H263.523V136.727Z" stroke="black" stroke-linecap="round" stroke-linejoin="round"/>
<path d="M267.879 136.727H264.702V139.894H267.879V136.727Z" stroke="black" stroke-linecap="round" stroke-linejoin="round"/>
<path d="M272.232 136.727H269.055V139.894H272.232V136.727Z" stroke="black" stroke-linecap="round" stroke-linejoin="round"/>
<path d="M276.584 136.727H273.407V139.894H276.584V136.727Z" stroke="black" stroke-linecap="round" stroke-linejoin="round"/>
<path d="M280.941 136.727H277.764V139.894H280.941V136.727Z" stroke="black" stroke-linecap="round" stroke-linejoin="round"/>
<path d="M285.293 136.727H282.116V139.894H285.293V136.727Z" stroke="black" stroke-linecap="round" stroke-linejoin="round"/>
<path d="M261.517 109.578H259.436V115.004H261.517V109.578Z" fill="black"/>
<path d="M271.684 109.578H269.603V115.004H271.684V109.578Z" fill="black"/>
<path d="M281.851 109.578H279.77V115.004H281.851V109.578Z" fill="black"/>
<path d="M285.524 118.675H256.385V123.942H285.524V118.675Z" stroke="black" stroke-linecap="round" stroke-linejoin="round"/>
</g>
<g opacity="0.3">
<path d="M249.828 62.5847C256.638 55.7959 256.638 44.7891 249.828 38.0003C243.017 31.2115 231.976 31.2115 225.165 38.0003C218.355 44.7891 218.355 55.7959 225.165 62.5847C231.976 69.3735 243.017 69.3735 249.828 62.5847Z" stroke="black" stroke-linecap="round" stroke-linejoin="round"/>
<path d="M247.957 60.7196C253.734 54.9609 253.734 45.6241 247.957 39.8654C242.18 34.1066 232.813 34.1066 227.036 39.8653C221.259 45.6241 221.259 54.9609 227.036 60.7196C232.813 66.4784 242.18 66.4784 247.957 60.7196Z" stroke="black" stroke-linecap="round" stroke-linejoin="round"/>
<path d="M238.921 50.2949C238.921 50.5767 238.837 50.8521 238.68 51.0864C238.523 51.3206 238.3 51.5031 238.038 51.6107C237.777 51.7184 237.49 51.7463 237.213 51.691C236.935 51.6357 236.681 51.4997 236.481 51.3002C236.282 51.1006 236.146 50.8466 236.091 50.5701C236.037 50.2936 236.066 50.0072 236.174 49.7471C236.283 49.487 236.467 49.265 236.702 49.109C236.938 48.9531 237.214 48.8703 237.497 48.8711C237.684 48.8711 237.87 48.908 238.043 48.9796C238.216 49.0512 238.373 49.1561 238.505 49.2884C238.638 49.4206 238.743 49.5776 238.814 49.7504C238.885 49.9231 238.922 50.1081 238.921 50.2949Z" stroke="black" stroke-linecap="round" stroke-linejoin="round"/>
<path d="M236.423 51.408L231.944 55.2678" stroke="black" stroke-linecap="round" stroke-linejoin="round"/>
<path d="M238.922 50.2949H250.458" stroke="black" stroke-linecap="round" stroke-linejoin="round"/>
</g>
<g opacity="0.3">
<path d="M107.242 164.46H59.21V25.6201H107.242V164.46ZM157.225 25.6201H109.193V164.46H157.225V25.6201ZM207.212 25.6201H159.18V164.46H207.212V25.6201Z" stroke="black" stroke-linecap="round" stroke-linejoin="round"/>
<path d="M59.1924 62.6935C60.8777 63.1135 65.011 60.9211 73.3745 41.4709C75.7075 35.9028 78.6133 30.5908 82.0455 25.6201" stroke="black" stroke-linecap="round" stroke-linejoin="round"/>
<path d="M159.162 104.059C161.998 107.638 165.094 111.93 168.49 117.193C178.037 131.947 185.713 147.824 191.344 164.46" stroke="black" stroke-linecap="round" stroke-linejoin="round"/>
<path d="M128.991 25.6201C126.914 33.8857 125.81 45.4483 128.86 59.8921C134.3 85.6675 141.538 82.8199 157.229 101.665" stroke="black" stroke-linecap="round" stroke-linejoin="round"/>
<path d="M59.1885 116.672C62.1378 112.052 65.1293 105.752 67.7584 97.1084C77.6639 64.5164 101.465 51.0176 101.465 81.308C101.465 111.598 86.6636 127.542 86.2718 148.466C86.1101 153.905 86.9586 159.328 88.7745 164.46" stroke="black" stroke-linecap="round" stroke-linejoin="round"/>
<path d="M137.06 164.46C132.122 142.082 130.942 118.365 137.447 116.202C144.243 113.946 150.884 144.837 154.385 164.46" stroke="black" stroke-linecap="round" stroke-linejoin="round"/>
<path d="M183.351 25.6201C172.557 47.8297 154.734 87.9103 166.178 88.8637C175.295 89.6197 193.375 69.1237 207.211 51.4165" stroke="black" stroke-linecap="round" stroke-linejoin="round"/>
<path d="M153.352 45.7633C154.638 40.2742 151.216 34.7857 145.709 33.5043C140.203 32.223 134.697 35.6339 133.411 41.123C132.126 46.612 135.548 52.1005 141.054 53.3819C146.561 54.6633 152.067 51.2523 153.352 45.7633Z" stroke="black" stroke-linecap="round" stroke-linejoin="round"/>
<path d="M189.625 64.1844C189.626 64.6406 189.491 65.0869 189.237 65.4666C188.984 65.8463 188.623 66.1425 188.2 66.3177C187.778 66.4928 187.312 66.5391 186.863 66.4506C186.414 66.3621 186.002 66.1429 185.678 65.8205C185.354 65.4982 185.133 65.0874 185.044 64.64C184.954 64.1926 185 63.7288 185.175 63.3072C185.35 62.8856 185.646 62.5253 186.027 62.2717C186.407 62.0182 186.854 61.8828 187.312 61.8828C187.925 61.8828 188.513 62.1252 188.946 62.5567C189.38 62.9882 189.624 63.5736 189.625 64.1844Z" stroke="black" stroke-linecap="round" stroke-linejoin="round"/>
<path d="M75.1907 125.416C77.2873 125.416 78.987 123.722 78.987 121.632C78.987 119.542 77.2873 117.848 75.1907 117.848C73.0942 117.848 71.3945 119.542 71.3945 121.632C71.3945 123.722 73.0942 125.416 75.1907 125.416Z" stroke="black" stroke-linecap="round" stroke-linejoin="round"/>
<path d="M87.081 40.1562C88.4492 40.1562 89.5584 39.0506 89.5584 37.6866C89.5584 36.3227 88.4492 35.217 87.081 35.217C85.7127 35.217 84.6035 36.3227 84.6035 37.6866C84.6035 39.0506 85.7127 40.1562 87.081 40.1562Z" stroke="black" stroke-linecap="round" stroke-linejoin="round"/>
<path d="M122.132 97.4558C124.152 96.6156 125.107 94.3014 124.265 92.2868C123.422 90.2723 121.1 89.3203 119.079 90.1605C117.058 91.0007 116.103 93.315 116.946 95.3295C117.789 97.3441 120.111 98.296 122.132 97.4558Z" stroke="black" stroke-linecap="round" stroke-linejoin="round"/>
<path d="M189.132 128.713C194.149 128.713 198.216 124.659 198.216 119.658C198.216 114.657 194.149 110.603 189.132 110.603C184.115 110.603 180.048 114.657 180.048 119.658C180.048 124.659 184.115 128.713 189.132 128.713Z" stroke="black" stroke-linecap="round" stroke-linejoin="round"/>
</g>
<path d="M225.16 79.2246H247.466C248.11 79.2235 248.749 79.3491 249.345 79.5943C249.941 79.8395 250.483 80.1995 250.939 80.6535C251.395 81.1076 251.757 81.6469 252.004 82.2406C252.251 82.8343 252.378 83.4707 252.378 84.1134V100.985C252.378 102.281 251.862 103.525 250.942 104.442C250.022 105.359 248.775 105.874 247.474 105.874H229.032L220.606 113.215L224.655 105.84C223.448 105.716 222.33 105.151 221.518 104.253C220.705 103.356 220.256 102.19 220.256 100.981V84.1134C220.256 82.8168 220.773 81.5733 221.692 80.6565C222.612 79.7397 223.859 79.2246 225.16 79.2246Z" fill="white" stroke="#263238" stroke-linecap="round" stroke-linejoin="round"/>
<path d="M233.523 97.0201V93.7357C234.298 93.1211 235.014 92.4349 235.659 91.6861C236.276 90.9819 236.784 90.1908 237.168 89.3383C237.535 88.5103 237.723 87.6144 237.72 86.7091C237.752 86.1763 237.604 85.6482 237.298 85.2097C237.153 85.0381 236.968 84.9034 236.76 84.8165C236.552 84.7297 236.327 84.6931 236.102 84.7099C235.899 84.701 235.696 84.7337 235.506 84.8059C235.316 84.8782 235.143 84.9884 234.998 85.1299C234.856 85.2761 234.746 85.4493 234.674 85.6392C234.601 85.829 234.568 86.0316 234.577 86.2345C234.579 86.4734 234.615 86.7108 234.682 86.9401C234.745 87.1459 234.808 87.3601 234.876 87.6079L231.353 88.4017C231.235 88.0356 231.139 87.6625 231.067 87.2845C230.999 86.9173 230.966 86.5448 230.966 86.1715C230.931 85.5256 231.033 84.8796 231.266 84.2759C231.499 83.6722 231.858 83.1245 232.318 82.6687C233.217 81.8287 234.508 81.4087 236.19 81.4087C237.873 81.4087 239.193 81.8623 240.151 82.7695C241.078 83.6711 241.541 84.9619 241.541 86.6419C241.548 87.6579 241.365 88.6663 241.002 89.6155C240.627 90.562 240.101 91.4415 239.443 92.2195C238.726 93.0691 237.919 93.8393 237.037 94.5169V97.0369L233.523 97.0201ZM233.397 102.434V98.7001H237.189V102.421L233.397 102.434Z" fill="#263238"/>
<path d="M117.425 46.5947H87.1358C85.8351 46.5947 84.5876 47.1098 83.6679 48.0266C82.7482 48.9434 82.2314 50.1869 82.2314 51.4835V68.3549C82.2314 69.6515 82.7482 70.895 83.6679 71.8118C84.5876 72.7287 85.8351 73.2437 87.1358 73.2437H113.558L121.984 80.5853L117.927 73.2185C119.133 73.0929 120.25 72.5265 121.063 71.6283C121.875 70.7302 122.325 69.5641 122.326 68.3549V51.4835C122.326 50.1877 121.809 48.9448 120.891 48.0281C119.972 47.1114 118.725 46.5958 117.425 46.5947Z" fill="white" stroke="#263238" stroke-linecap="round" stroke-linejoin="round"/>
<path d="M96.2782 60.48C96.2782 60.1037 96.1663 59.7358 95.9565 59.423C95.7468 59.1101 95.4487 58.8662 95.1 58.7222C94.7512 58.5782 94.3675 58.5405 93.9972 58.614C93.627 58.6874 93.2869 58.8686 93.02 59.1347C92.753 59.4007 92.5713 59.7397 92.4976 60.1088C92.424 60.4779 92.4618 60.8604 92.6062 61.2081C92.7507 61.5557 92.9953 61.8529 93.3092 62.0619C93.6231 62.271 93.9921 62.3826 94.3696 62.3826C94.8758 62.3826 95.3613 62.1821 95.7192 61.8253C96.0771 61.4685 96.2782 60.9846 96.2782 60.48Z" fill="#263238" stroke="#263238" stroke-linecap="round" stroke-linejoin="round"/>
<path d="M104.191 60.48C104.191 60.1037 104.079 59.7358 103.87 59.423C103.66 59.1101 103.362 58.8662 103.013 58.7222C102.664 58.5782 102.281 58.5405 101.91 58.614C101.54 58.6874 101.2 58.8686 100.933 59.1347C100.666 59.4007 100.484 59.7397 100.411 60.1088C100.337 60.4779 100.375 60.8604 100.519 61.2081C100.664 61.5557 100.908 61.8529 101.222 62.0619C101.536 62.271 101.905 62.3826 102.283 62.3826C102.789 62.3826 103.274 62.1821 103.632 61.8253C103.99 61.4685 104.191 60.9846 104.191 60.48Z" fill="#263238" stroke="#263238" stroke-linecap="round" stroke-linejoin="round"/>
<path d="M112.1 60.48C112.1 60.1037 111.988 59.7358 111.778 59.423C111.568 59.1101 111.27 58.8662 110.921 58.7222C110.573 58.5782 110.189 58.5405 109.819 58.614C109.448 58.6874 109.108 58.8686 108.841 59.1347C108.574 59.4007 108.393 59.7397 108.319 60.1088C108.245 60.4779 108.283 60.8604 108.428 61.2081C108.572 61.5557 108.817 61.8529 109.13 62.0619C109.444 62.271 109.813 62.3826 110.191 62.3826C110.697 62.3826 111.183 62.1821 111.54 61.8253C111.898 61.4685 112.1 60.9846 112.1 60.48Z" fill="#263238" stroke="#263238" stroke-linecap="round" stroke-linejoin="round"/>
<path d="M33.6104 114.349L40.4486 179.659" stroke="#263238" stroke-linecap="round" stroke-linejoin="round"/>
<path d="M40.3093 178.454L36.8291 174.804" stroke="#263238" stroke-linecap="round" stroke-linejoin="round"/>
<path d="M37.9746 175.98C37.9674 175.371 37.8295 174.771 37.57 174.219C37.3106 173.668 36.9356 173.179 36.4704 172.784C35.5014 171.919 30.3906 169.777 29.9061 171.57C29.3794 173.536 34.6081 177.37 37.9746 175.98Z" fill="#11305B" stroke="#263238" stroke-linecap="round" stroke-linejoin="round"/>
<path d="M37.9755 175.997L33.1133 172.977" stroke="#263238" stroke-linecap="round" stroke-linejoin="round"/>
<path d="M37.9456 155.77L34.5117 152.687" stroke="#263238" stroke-linecap="round" stroke-linejoin="round"/>
<path d="M35.6614 153.884C35.6532 153.274 35.5144 152.673 35.2543 152.121C34.9942 151.569 34.6187 151.079 34.153 150.683C33.184 149.818 28.0732 147.676 27.5887 149.47C27.062 151.423 32.2907 155.253 35.6614 153.884Z" fill="#11305B" stroke="#263238" stroke-linecap="round" stroke-linejoin="round"/>
<path d="M35.6623 153.884L30.7959 150.86" stroke="#263238" stroke-linecap="round" stroke-linejoin="round"/>
<path d="M38.9023 165.409L35.46 161.75" stroke="#263238" stroke-linecap="round" stroke-linejoin="round"/>
<path d="M36.6099 162.96C36.6027 162.351 36.4648 161.751 36.2053 161.199C35.9459 160.648 35.5709 160.159 35.1057 159.764C34.1325 158.899 29.0259 156.757 28.5414 158.55C28.0105 160.486 33.2434 164.317 36.6099 162.96Z" fill="#11305B" stroke="#263238" stroke-linecap="round" stroke-linejoin="round"/>
<path d="M36.6096 162.943L31.7432 159.923" stroke="#263238" stroke-linecap="round" stroke-linejoin="round"/>
<path d="M36.4162 141.469L32.9697 137.966" stroke="#263238" stroke-linecap="round" stroke-linejoin="round"/>
<path d="M34.1283 139.158C34.1212 138.55 33.9832 137.949 33.7238 137.398C33.4643 136.847 33.0894 136.357 32.6242 135.962C31.6509 135.097 26.5443 132.955 26.0556 134.748C25.5205 136.701 30.7577 140.532 34.1283 139.158Z" fill="#11305B" stroke="#263238" stroke-linecap="round" stroke-linejoin="round"/>
<path d="M34.1203 139.158L29.2539 136.139" stroke="#263238" stroke-linecap="round" stroke-linejoin="round"/>
<path d="M34.7556 125.723L31.4229 123.182" stroke="#263238" stroke-linecap="round" stroke-linejoin="round"/>
<path d="M32.5693 124.375C32.5625 123.765 32.4247 123.164 32.1652 122.612C31.9058 122.06 31.5307 121.57 31.0652 121.174C30.0961 120.309 24.9853 118.167 24.5008 119.96C23.9741 121.913 29.2029 125.744 32.5693 124.375Z" fill="#11305B" stroke="#263238" stroke-linecap="round" stroke-linejoin="round"/>
<path d="M32.5692 124.375L27.707 121.351" stroke="#263238" stroke-linecap="round" stroke-linejoin="round"/>
<path d="M39.9717 173.422L42.8494 168.748" stroke="#263238" stroke-linecap="round" stroke-linejoin="round"/>
<path d="M41.973 170.155C41.8537 169.557 41.8641 168.941 42.0036 168.347C42.1432 167.754 42.4086 167.197 42.782 166.715C43.553 165.669 48.1077 162.515 48.9545 164.195C49.873 165.976 45.5502 170.801 41.973 170.155Z" fill="#11305B" stroke="#263238" stroke-linecap="round" stroke-linejoin="round"/>
<path d="M41.9736 170.154L45.3949 166.954" stroke="#263238" stroke-linecap="round" stroke-linejoin="round"/>
<path d="M37.4775 149.575L40.351 144.9" stroke="#263238" stroke-linecap="round" stroke-linejoin="round"/>
<path d="M39.475 146.303C39.3556 145.705 39.366 145.089 39.5056 144.495C39.6451 143.902 39.9105 143.345 40.284 142.863C41.055 141.821 44.6195 139.201 45.4664 140.855C46.3849 142.657 43.0563 146.954 39.475 146.303Z" fill="#11305B" stroke="#263238" stroke-linecap="round" stroke-linejoin="round"/>
<path d="M39.4746 146.303L43.8565 142.132" stroke="#263238" stroke-linecap="round" stroke-linejoin="round"/>
<path d="M36.3779 139.096L39.2556 134.421" stroke="#263238" stroke-linecap="round" stroke-linejoin="round"/>
<path d="M38.3792 135.824C38.2592 135.226 38.269 134.61 38.4078 134.017C38.5466 133.424 38.8112 132.867 39.1839 132.384C39.955 131.338 44.5096 128.184 45.3565 129.864C46.2792 131.645 41.9563 136.471 38.3792 135.824Z" fill="#11305B" stroke="#263238" stroke-linecap="round" stroke-linejoin="round"/>
<path d="M38.3799 135.824L42.7575 131.649" stroke="#263238" stroke-linecap="round" stroke-linejoin="round"/>
<path d="M34.7686 123.728L37.6463 119.053" stroke="#263238" stroke-linecap="round" stroke-linejoin="round"/>
<path d="M36.7698 120.456C36.6505 119.859 36.661 119.243 36.8005 118.651C36.9401 118.058 37.2055 117.502 37.5788 117.02C38.3498 115.975 42.9044 112.82 43.7513 114.479C44.6614 116.281 40.347 121.107 36.7698 120.456Z" fill="#11305B" stroke="#263238" stroke-linecap="round" stroke-linejoin="round"/>
<path d="M36.7695 120.456L41.1472 116.285" stroke="#263238" stroke-linecap="round" stroke-linejoin="round"/>
<path d="M33.543 113.904C33.423 113.306 33.4331 112.688 33.5727 112.094C33.7122 111.5 33.978 110.943 34.352 110.46C35.123 109.414 39.6777 106.26 40.5245 107.94C41.443 109.729 37.1202 114.555 33.543 113.904Z" fill="#11305B" stroke="#263238" stroke-linecap="round" stroke-linejoin="round"/>
<path d="M33.543 113.904L37.9206 109.733" stroke="#263238" stroke-linecap="round" stroke-linejoin="round"/>
<path d="M33.7958 114.085C33.1871 114.141 32.5735 114.066 31.9964 113.865C31.4193 113.664 30.8921 113.342 30.4504 112.921C29.4856 112.048 26.8227 107.201 28.5628 106.537C30.4546 105.811 34.8154 110.603 33.7958 114.085Z" fill="#11305B" stroke="#263238" stroke-linecap="round" stroke-linejoin="round"/>
<path d="M33.7953 114.085L30.0918 109.305" stroke="#263238" stroke-linecap="round" stroke-linejoin="round"/>
<path d="M46.1064 92.8704V179.831" stroke="#263238" stroke-linecap="round" stroke-linejoin="round"/>
<path d="M55.6159 125.324L49.8984 179.558" stroke="#263238" stroke-linecap="round" stroke-linejoin="round"/>
<path d="M51.4156 165.98L48.5674 163.611" stroke="#263238" stroke-linecap="round" stroke-linejoin="round"/>
<path d="M49.4565 164.43C49.5745 163.832 49.5629 163.216 49.4227 162.623C49.2825 162.029 49.0167 161.473 48.6433 160.99C47.8723 159.949 43.3135 156.79 42.4708 158.47C41.5523 160.259 45.8752 165.081 49.4565 164.43Z" fill="#11305B" stroke="#263238" stroke-linecap="round" stroke-linejoin="round"/>
<path d="M49.4568 164.43L45.3193 160.474" stroke="#263238" stroke-linecap="round" stroke-linejoin="round"/>
<path d="M50.3536 175.997L47.6318 172.091" stroke="#263238" stroke-linecap="round" stroke-linejoin="round"/>
<path d="M48.5122 173.493C48.6301 172.895 48.6186 172.279 48.4784 171.686C48.3381 171.093 48.0724 170.536 47.699 170.054C46.9279 169.012 42.3691 165.854 41.5264 167.534C40.6079 169.323 44.9308 174.144 48.5122 173.493Z" fill="#11305B" stroke="#263238" stroke-linecap="round" stroke-linejoin="round"/>
<path d="M48.5125 173.494L44.375 169.537" stroke="#263238" stroke-linecap="round" stroke-linejoin="round"/>
<path d="M52.8565 151.46L50.1094 148.302" stroke="#263238" stroke-linecap="round" stroke-linejoin="round"/>
<path d="M50.9819 149.709C51.0999 149.111 51.0884 148.495 50.9481 147.902C50.8079 147.308 50.5422 146.752 50.1688 146.269C49.3977 145.223 44.8389 142.069 43.992 143.749C43.0819 145.534 47.409 150.36 50.9819 149.709Z" fill="#11305B" stroke="#263238" stroke-linecap="round" stroke-linejoin="round"/>
<path d="M50.99 149.709L46.8525 145.753" stroke="#263238" stroke-linecap="round" stroke-linejoin="round"/>
<path d="M54.3016 137.621L51.6514 133.518" stroke="#263238" stroke-linecap="round" stroke-linejoin="round"/>
<path d="M52.5278 134.921C52.6458 134.323 52.6342 133.706 52.494 133.113C52.3538 132.52 52.088 131.963 51.7146 131.481C50.9436 130.435 46.3847 127.281 45.5421 128.961C44.6236 130.746 48.9464 135.572 52.5278 134.921Z" fill="#11305B" stroke="#263238" stroke-linecap="round" stroke-linejoin="round"/>
<path d="M52.5281 134.921L48.3906 130.964" stroke="#263238" stroke-linecap="round" stroke-linejoin="round"/>
<path d="M52.123 160.587L55.9024 156.605" stroke="#263238" stroke-linecap="round" stroke-linejoin="round"/>
<path d="M54.7734 157.798C54.7803 157.189 54.918 156.588 55.1775 156.035C55.437 155.483 55.8121 154.993 56.2776 154.598C57.2467 153.733 62.3574 151.586 62.842 153.38C63.3476 155.333 58.1441 159.18 54.7734 157.798Z" fill="#11305B" stroke="#263238" stroke-linecap="round" stroke-linejoin="round"/>
<path d="M54.7529 157.798L59.9016 154.615" stroke="#263238" stroke-linecap="round" stroke-linejoin="round"/>
<path d="M53.2148 150.108L56.9942 146.122" stroke="#263238" stroke-linecap="round" stroke-linejoin="round"/>
<path d="M55.8438 147.315C55.8509 146.706 55.9889 146.106 56.2483 145.554C56.5078 145.003 56.8827 144.514 57.3479 144.119C58.317 143.254 63.4278 141.107 63.9123 142.901C64.439 144.85 59.2144 148.68 55.8438 147.315Z" fill="#11305B" stroke="#263238" stroke-linecap="round" stroke-linejoin="round"/>
<path d="M55.8438 147.315L60.9924 144.131" stroke="#263238" stroke-linecap="round" stroke-linejoin="round"/>
<path d="M54.7695 133.955L58.591 130.754" stroke="#263238" stroke-linecap="round" stroke-linejoin="round"/>
<path d="M57.4453 131.952C57.4521 131.342 57.5899 130.741 57.8494 130.189C58.1089 129.637 58.484 129.146 58.9495 128.751C59.9185 127.886 65.0251 125.74 65.5138 127.533C66.0405 129.486 60.8118 133.321 57.4453 131.952Z" fill="#11305B" stroke="#263238" stroke-linecap="round" stroke-linejoin="round"/>
<path d="M57.4453 131.951L62.594 128.764" stroke="#263238" stroke-linecap="round" stroke-linejoin="round"/>
<path d="M55.6377 124.874C55.6448 124.265 55.7827 123.664 56.0421 123.112C56.3016 122.56 56.6766 122.07 57.1419 121.674C58.1109 120.809 63.2217 118.667 63.7062 120.46C64.2329 122.409 59.0084 126.244 55.6377 124.874Z" fill="#11305B" stroke="#263238" stroke-linecap="round" stroke-linejoin="round"/>
<path d="M55.6377 124.874L60.7864 121.691" stroke="#263238" stroke-linecap="round" stroke-linejoin="round"/>
<path d="M55.848 125.101C55.2413 125.03 54.6568 124.831 54.1337 124.517C53.6105 124.202 53.1607 123.78 52.8144 123.278C52.056 122.224 50.4508 116.936 52.292 116.642C54.2933 116.34 57.5671 121.905 55.848 125.101Z" fill="#11305B" stroke="#263238" stroke-linecap="round" stroke-linejoin="round"/>
<path d="M55.8475 125.101L53.21 119.667" stroke="#263238" stroke-linecap="round" stroke-linejoin="round"/>
<path d="M45.9723 178.311L42.8418 174.145" stroke="#263238" stroke-linecap="round" stroke-linejoin="round"/>
<path d="M43.861 175.451C43.9171 174.844 43.8424 174.232 43.6419 173.656C43.4413 173.08 43.1195 172.553 42.6981 172.112C41.8217 171.154 36.9638 168.491 36.2938 170.226C35.5649 172.112 40.3681 176.467 43.861 175.451Z" fill="#11305B" stroke="#263238" stroke-linecap="round" stroke-linejoin="round"/>
<path d="M43.8611 175.451L39.3359 171.939" stroke="#263238" stroke-linecap="round" stroke-linejoin="round"/>
<path d="M46.0819 158.21L42.8418 155.207" stroke="#263238" stroke-linecap="round" stroke-linejoin="round"/>
<path d="M43.861 156.509C43.9168 155.902 43.8419 155.291 43.6414 154.716C43.4408 154.141 43.1192 153.615 42.6981 153.174C41.8217 152.212 36.9638 149.554 36.2938 151.288C35.5649 153.174 40.3681 157.525 43.861 156.509Z" fill="#11305B" stroke="#263238" stroke-linecap="round" stroke-linejoin="round"/>
<path d="M43.8611 156.509L39.3359 153.002" stroke="#263238" stroke-linecap="round" stroke-linejoin="round"/>
<path d="M46.1914 137.323L42.8418 132.968" stroke="#263238" stroke-linecap="round" stroke-linejoin="round"/>
<path d="M43.861 134.274C43.9168 133.668 43.8419 133.056 43.6414 132.481C43.4408 131.906 43.1192 131.38 42.6981 130.939C41.8217 129.977 36.9638 127.319 36.2938 129.053C35.5649 130.939 40.3681 135.29 43.861 134.274Z" fill="#11305B" stroke="#263238" stroke-linecap="round" stroke-linejoin="round"/>
<path d="M43.8611 134.274L39.3359 130.767" stroke="#263238" stroke-linecap="round" stroke-linejoin="round"/>
<path d="M45.9723 120.977L42.8418 118.167" stroke="#263238" stroke-linecap="round" stroke-linejoin="round"/>
<path d="M43.861 119.473C43.9171 118.867 43.8423 118.255 43.6418 117.68C43.4412 117.105 43.1194 116.579 42.6981 116.138C41.8217 115.177 36.9638 112.518 36.2938 114.253C35.5649 116.138 40.3681 120.49 43.861 119.473Z" fill="#11305B" stroke="#263238" stroke-linecap="round" stroke-linejoin="round"/>
<path d="M43.8611 119.473L39.3359 115.966" stroke="#263238" stroke-linecap="round" stroke-linejoin="round"/>
<path d="M46.1528 106.168L42.9043 103.799" stroke="#263238" stroke-linecap="round" stroke-linejoin="round"/>
<path d="M43.861 104.605C43.9168 103.999 43.8419 103.388 43.6414 102.812C43.4408 102.237 43.1192 101.712 42.6981 101.27C41.8217 100.309 36.9638 97.65 36.2938 99.3846C35.5649 101.27 40.3681 105.622 43.861 104.605Z" fill="#11305B" stroke="#263238" stroke-linecap="round" stroke-linejoin="round"/>
<path d="M43.8611 104.605L39.3359 101.098" stroke="#263238" stroke-linecap="round" stroke-linejoin="round"/>
<path d="M46.1152 154.157L49.4606 149.806" stroke="#263238" stroke-linecap="round" stroke-linejoin="round"/>
<path d="M48.4536 151.112C48.3975 150.505 48.4723 149.894 48.6729 149.319C48.8734 148.744 49.1952 148.218 49.6165 147.777C50.4929 146.815 55.3509 144.157 56.0208 145.887C56.737 147.777 51.9381 152.128 48.4536 151.112Z" fill="#11305B" stroke="#263238" stroke-linecap="round" stroke-linejoin="round"/>
<path d="M48.4453 151.112L53.2359 147.416" stroke="#263238" stroke-linecap="round" stroke-linejoin="round"/>
<path d="M46.1152 139.293L49.4606 134.938" stroke="#263238" stroke-linecap="round" stroke-linejoin="round"/>
<path d="M48.4535 136.244C48.3977 135.637 48.4725 135.026 48.6731 134.451C48.8737 133.876 49.1953 133.35 49.6164 132.909C50.4927 131.947 55.3507 129.288 56.0206 131.023C56.7369 132.909 51.9379 137.26 48.4535 136.244Z" fill="#11305B" stroke="#263238" stroke-linecap="round" stroke-linejoin="round"/>
<path d="M48.4453 136.244L53.2359 132.548" stroke="#263238" stroke-linecap="round" stroke-linejoin="round"/>
<path d="M46.1152 119.641L49.4606 115.29" stroke="#263238" stroke-linecap="round" stroke-linejoin="round"/>
<path d="M48.4537 116.596C48.3975 115.989 48.4722 115.377 48.6728 114.801C48.8733 114.225 49.1951 113.699 49.6166 113.257C50.4929 112.3 55.3509 109.637 56.0208 111.371C56.7371 113.257 51.9381 117.6 48.4537 116.596Z" fill="#11305B" stroke="#263238" stroke-linecap="round" stroke-linejoin="round"/>
<path d="M48.4453 116.596L53.2359 112.896" stroke="#263238" stroke-linecap="round" stroke-linejoin="round"/>
<path d="M46.2588 102.681L49.541 100.132" stroke="#263238" stroke-linecap="round" stroke-linejoin="round"/>
<path d="M48.4535 101.144C48.3977 100.538 48.4725 99.9267 48.6731 99.3515C48.8737 98.7764 49.1953 98.2506 49.6164 97.8095C50.4927 96.8477 55.3507 94.1891 56.0206 95.9237C56.7369 97.8095 51.9379 102.161 48.4535 101.144Z" fill="#11305B" stroke="#263238" stroke-linecap="round" stroke-linejoin="round"/>
<path d="M48.4453 101.144L53.2359 97.4485" stroke="#263238" stroke-linecap="round" stroke-linejoin="round"/>
<path d="M45.9251 94.2942C45.8693 93.6875 45.9446 93.0759 46.1459 92.5007C46.3472 91.9254 46.6699 91.3998 47.0922 90.9594C47.9686 89.9976 52.8265 87.339 53.4965 89.0736C54.2085 90.9594 49.4053 95.3106 45.9251 94.2942Z" fill="#11305B" stroke="#263238" stroke-linecap="round" stroke-linejoin="round"/>
<path d="M45.9131 94.2941L50.7079 90.5981" stroke="#263238" stroke-linecap="round" stroke-linejoin="round"/>
<path d="M46.1488 94.5C45.5378 94.4915 44.9356 94.353 44.3826 94.0937C43.8296 93.8344 43.3386 93.4602 42.9425 92.9964C42.0745 92.0262 39.9342 86.9316 41.7333 86.4486C43.6883 85.9278 47.5266 91.14 46.1488 94.5Z" fill="#11305B" stroke="#263238" stroke-linecap="round" stroke-linejoin="round"/>
<path d="M46.1491 94.4999L42.9639 89.3633" stroke="#263238" stroke-linecap="round" stroke-linejoin="round"/>
<path d="M162.693 179.831L156.167 153.485L105.754 153.842C103.121 158.264 97.4962 173.242 95.0693 179.831H162.693Z" fill="#263238" stroke="#263238" stroke-linecap="round" stroke-linejoin="round"/>
<path d="M195.166 140.389L199.025 141.049C199.025 141.049 206.963 140.498 207.624 140.498C208.286 140.498 213.03 144.346 213.03 144.346L204.979 144.236C204.979 144.236 199.248 145.883 197.264 145.883C195.279 145.883 192.853 143.577 192.853 143.577L195.166 140.389Z" fill="white" stroke="#263238" stroke-linecap="round" stroke-linejoin="round"/>
<path d="M196.711 142.918C196.711 142.918 203.874 143.136 204.649 143.027C205.424 142.918 207.076 141.926 207.076 142.918C207.076 143.909 205.972 143.577 204.969 144.236C204.382 144.629 203.755 144.96 203.099 145.223C203.099 145.223 201.552 145.664 200.229 145.883C198.906 146.101 198.578 145.992 197.255 145.883C196.465 145.819 195.705 145.554 195.047 145.114" fill="white"/>
<path d="M196.711 142.918C196.711 142.918 203.874 143.136 204.649 143.027C205.424 142.918 207.076 141.926 207.076 142.918C207.076 143.909 205.972 143.577 204.969 144.236C204.382 144.629 203.755 144.96 203.099 145.223C203.099 145.223 201.552 145.664 200.229 145.883C198.906 146.101 198.578 145.992 197.255 145.883C196.465 145.819 195.705 145.554 195.047 145.114" stroke="#263238" stroke-linecap="round" stroke-linejoin="round"/>
<path d="M176.842 117.226L171.364 105.92C171.364 105.92 171.596 93.24 171.364 91.3962C171.133 89.5524 170.905 87.822 167.32 86.7762C163.734 85.7304 142.571 87.465 142.571 87.465C142.571 87.465 136.933 88.0194 131.945 88.8972C126.956 89.775 115.934 89.838 115.369 91.5684C114.805 93.2988 112.209 132.728 112.209 132.728L101.861 155.938C101.861 155.938 111.552 163.892 131.696 162.737C151.84 161.582 158.885 155.4 158.885 155.4L153.218 135.24C153.218 135.24 162.584 126.941 162.816 124.404C163.047 121.867 163.161 119.906 163.161 119.906C163.161 119.906 168.946 128.785 170.1 129.478C171.255 130.171 193.063 145.404 193.063 145.404L196.071 140.099L177.621 118.868L176.842 117.264" fill="#858585"/>
<path d="M176.842 117.226L171.364 105.92C171.364 105.92 171.596 93.24 171.364 91.3962C171.133 89.5524 170.905 87.822 167.32 86.7762C163.734 85.7304 142.571 87.465 142.571 87.465C142.571 87.465 136.933 88.0194 131.945 88.8972C126.956 89.775 115.934 89.838 115.369 91.5684C114.805 93.2988 112.209 132.728 112.209 132.728L101.861 155.938C101.861 155.938 111.552 163.892 131.696 162.737C151.84 161.582 158.885 155.4 158.885 155.4L153.218 135.24C153.218 135.24 162.584 126.941 162.816 124.404C163.047 121.867 163.161 119.906 163.161 119.906C163.161 119.906 168.946 128.785 170.1 129.478C171.255 130.171 193.063 145.404 193.063 145.404L196.071 140.099L177.621 118.868L176.842 117.264" stroke="#263238" stroke-linecap="round" stroke-linejoin="round"/>
<path d="M163.161 119.868L165.116 101.321" stroke="#263238" stroke-linecap="round" stroke-linejoin="round"/>
<path d="M164.631 107.344C164.631 107.344 168.259 104.093 169.708 99.9978" stroke="#263238" stroke-linecap="round" stroke-linejoin="round"/>
<path d="M168.229 108.335C168.821 108.178 169.396 107.968 169.949 107.705" stroke="#263238" stroke-linecap="round" stroke-linejoin="round"/>
<path d="M164.269 109.271C164.269 109.271 165.533 109.028 166.902 108.688" stroke="#263238" stroke-linecap="round" stroke-linejoin="round"/>
<path d="M137.834 87.0156L133.671 101.888L138.184 105.668L133.208 110.51C133.208 110.51 135.058 117.772 137.72 123.421C140.383 129.07 142.115 131.628 142.115 131.628C142.115 131.628 152.872 126.554 155.644 122.06C158.416 117.566 162.12 110.531 162.12 110.531L158.884 107.306L163.624 104.786C163.624 104.786 162.065 98.133 161.096 93.9498C160.544 91.511 159.695 89.1485 158.568 86.9148L137.834 87.0156Z" fill="#11305B" stroke="#263238" stroke-linecap="round" stroke-linejoin="round"/>
<path d="M141.306 88.9392C141.306 88.9392 141.205 102.22 140.809 106.882C140.413 111.544 140.809 118.478 141.407 121.451C142.005 124.425 143.198 128.89 143.198 128.89C143.198 128.89 151.351 122.245 152.446 119.469C153.541 116.693 155.526 105.693 155.526 105.693L157.317 93.0006L141.306 88.9392Z" fill="white" stroke="#263238" stroke-linecap="round" stroke-linejoin="round"/>
<path d="M141.703 86.5579L140.81 105.197L148.764 100.04L155.43 107.377L157.119 92.1103L141.703 86.5579Z" fill="white" stroke="#263238" stroke-linecap="round" stroke-linejoin="round"/>
<path d="M144.589 92.9041L147.888 107.969L153.955 95.6803C153.955 95.6803 146.767 95.3947 144.589 92.9041Z" fill="white" stroke="#263238" stroke-linecap="round" stroke-linejoin="round"/>
<path d="M137.923 77.4816C136.882 75.8479 135.95 74.1474 135.134 72.3912C134.072 69.993 134.266 69.0312 135.324 66.5364C136.381 64.0416 140.717 56.8428 143.607 55.5912C145.285 54.8516 147.075 54.3974 148.903 54.2472C148.903 54.2472 159.593 53.9616 164.493 59.1444C169.393 64.3272 169.498 73.1598 168.344 75.4656C167.495 77.1744 166.008 78.4833 164.202 79.1112C163.241 79.401 162.479 79.6698 162.479 79.6698C162.479 79.6698 161.316 79.6698 160.545 79.6698C159.774 79.6698 155.729 77.3682 152.164 74.3904C150.516 73.0764 148.941 71.6744 147.446 70.1904C147.446 70.1904 143.304 73.164 141.863 74.508C140.422 75.852 140.03 76.7172 140.03 76.7172L139.47 78.8802L137.923 77.4816Z" fill="#263238" stroke="#263238" stroke-linecap="round" stroke-linejoin="round"/>
<path d="M137.831 79.4011C137.831 79.4011 134.266 78.8257 132.244 80.7451C130.221 82.6645 130.027 87.4651 131.953 88.9057C133.878 90.3463 138.273 91.6231 140.333 91.0057C142.394 90.3883 143.03 88.4101 143.03 86.3857C143.03 84.3613 141.007 80.3377 140.62 79.5733C140.232 78.8089 137.831 79.4011 137.831 79.4011Z" fill="#263238" stroke="#263238" stroke-linecap="round" stroke-linejoin="round"/>
<path d="M139.482 78.876C139.482 78.876 137.754 76.0914 136.423 78.456C135.092 80.8206 137.089 83.097 138.53 83.8908C139.232 84.3125 139.995 84.6254 140.792 84.819L139.482 78.876Z" fill="white" stroke="#263238" stroke-linecap="round" stroke-linejoin="round"/>
<path d="M162.491 79.6699C162.491 79.6699 165.019 78.2125 165.284 80.3335C165.549 82.4545 163.687 84.5755 162.756 85.2391C161.825 85.9027 161.159 86.4319 161.159 86.4319L162.491 79.6699Z" fill="white" stroke="#263238" stroke-linecap="round" stroke-linejoin="round"/>
<path d="M139.217 75.0289C139.217 75.0289 140.814 87.7801 142.41 90.4093C144.007 93.0385 146.936 97.7005 150.66 97.7005C154.385 97.7005 158.505 93.5929 160.102 89.7457C161.699 85.8985 162.495 79.6657 162.495 79.6657C162.495 79.6657 156.243 77.1457 151.322 72.1057C146.401 67.0657 147.601 66.4021 147.601 66.4021C147.601 66.4021 141.875 73.8361 139.217 75.0289Z" fill="white" stroke="#263238" stroke-linecap="round" stroke-linejoin="round"/>
<path d="M149.286 86.6963C149.286 86.6963 151.696 88.6157 153.815 86.8895" stroke="#263238" stroke-linecap="round" stroke-linejoin="round"/>
<path d="M147.846 89.4809C147.846 89.4809 151.119 92.6477 155.354 89.3843" stroke="#263238" stroke-linecap="round" stroke-linejoin="round"/>
<path d="M147.277 80.4258C147.24 80.609 147.152 80.7781 147.022 80.9134C146.893 81.0487 146.728 81.1446 146.546 81.19C146.364 81.2354 146.173 81.2285 145.995 81.1699C145.817 81.1114 145.66 81.0037 145.541 80.8594C145.422 80.7151 145.346 80.54 145.323 80.3546C145.3 80.1692 145.33 79.981 145.41 79.812C145.49 79.643 145.616 79.5 145.774 79.3998C145.932 79.2995 146.116 79.246 146.303 79.2456C146.588 79.2764 146.849 79.4172 147.031 79.6378C147.213 79.8584 147.301 80.1413 147.277 80.4258Z" fill="#263238"/>
<path d="M157.199 81.0305C157.163 81.215 157.075 81.3855 156.946 81.5221C156.816 81.6587 156.651 81.7558 156.468 81.8021C156.285 81.8485 156.093 81.8421 155.914 81.7837C155.735 81.7254 155.576 81.6175 155.456 81.4726C155.336 81.3277 155.26 81.1518 155.236 80.9654C155.213 80.779 155.243 80.5897 155.323 80.4197C155.403 80.2497 155.53 80.1059 155.689 80.0051C155.848 79.9043 156.033 79.8506 156.221 79.8503C156.507 79.8811 156.768 80.0218 156.951 80.2423C157.134 80.4627 157.223 80.7456 157.199 81.0305Z" fill="#263238"/>
<path d="M144.096 76.9063C144.096 76.9063 145.924 75.7513 148.912 76.7131" stroke="#263238" stroke-linecap="round" stroke-linejoin="round"/>
<path d="M154.776 77.385C154.776 77.385 156.125 76.041 160.363 78.8256" stroke="#263238" stroke-linecap="round" stroke-linejoin="round"/>
<path d="M149.468 77.9204L144.192 77.6392C143.232 77.5881 142.413 78.3221 142.361 79.2788L142.249 81.3758C142.197 82.3324 142.934 83.1494 143.893 83.2005L149.169 83.4816C150.129 83.5328 150.949 82.7987 151 81.8421L151.112 79.7451C151.164 78.7885 150.427 77.9715 149.468 77.9204Z" stroke="#263238" stroke-linecap="round" stroke-linejoin="round"/>
<path d="M160.475 78.1233L155.191 77.8599C154.23 77.812 153.412 78.5498 153.364 79.5078L153.259 81.6078C153.211 82.5658 153.951 83.3812 154.912 83.4291L160.195 83.6925C161.156 83.7404 161.975 83.0026 162.023 82.0446L162.128 79.9446C162.176 78.9866 161.436 78.1712 160.475 78.1233Z" stroke="#263238" stroke-width="1.00125" stroke-linecap="round" stroke-linejoin="round"/>
<path d="M151.103 79.2793L153.015 79.4053" stroke="#263238" stroke-linecap="round" stroke-linejoin="round"/>
<path d="M142.368 79.2203L139.364 78.3047" stroke="#263238" stroke-linecap="round" stroke-linejoin="round"/>
<path d="M161.627 80.3165L162.491 79.6697" stroke="#263238" stroke-linecap="round" stroke-linejoin="round"/>
<path d="M96.3252 114.479L95.1708 111.119C95.1708 111.119 94.2438 107.894 93.2031 106.499C92.1624 105.105 90.199 104.656 89.3858 103.618C88.5727 102.581 87.5362 99.6996 86.8578 98.8932C86.1795 98.0868 84.7765 98.7756 85.122 100.619C85.4674 102.463 86.2764 103.043 86.6261 103.736C86.9758 104.429 87.7806 106.256 87.7806 106.256C87.7806 106.256 80.264 104.996 79.8005 104.874C79.337 104.752 77.9509 103.261 77.6054 102.354C77.2599 101.447 77.3736 97.734 75.9832 98.8974C74.5928 100.061 75.406 102.472 75.6377 103.047C75.8695 103.622 75.6377 107.667 76.215 109.733C76.7922 111.8 78.743 113.883 81.6502 115.265C84.5574 116.647 90.2117 117.113 90.2117 117.113L92.4068 119.301L96.3252 114.479Z" fill="white" stroke="#263238" stroke-linecap="round" stroke-linejoin="round"/>
<path d="M74.8157 108.83C74.8157 108.83 73.3115 106.134 73.3115 104.16C73.3115 102.186 73.4463 100.346 74.4744 100.825C75.5025 101.304 75.3171 101.245 75.6078 103.072C75.8466 104.475 76.2453 105.846 76.796 107.159C76.935 107.365 78.0262 110.099 77.0698 110.158C76.1134 110.216 74.8157 108.83 74.8157 108.83Z" fill="white" stroke="#263238" stroke-linecap="round" stroke-linejoin="round"/>
<path d="M77.9465 108.83C77.9465 108.83 75.8651 102.95 74.8244 103.988C73.7837 105.025 73.8975 106.294 74.8244 108.83C75.7513 111.367 77.7148 113.329 79.3327 113.56L80.9548 113.791L77.9465 108.83Z" fill="white" stroke="#263238" stroke-linecap="round" stroke-linejoin="round"/>
<path d="M90.6579 113.329C90.6579 113.329 88.1299 111.254 86.4951 111.254C84.8604 111.254 81.0599 111.829 81.0599 111.829C81.0599 111.829 78.4013 102.95 77.5924 104.45C76.7834 105.949 77.0109 107.449 77.8241 109.754C78.6373 112.06 79.7875 114.135 81.6161 115.286C83.4447 116.437 90.1776 117.134 90.1776 117.134" fill="white"/>
<path d="M90.6579 113.329C90.6579 113.329 88.1299 111.254 86.4951 111.254C84.8604 111.254 81.0599 111.829 81.0599 111.829C81.0599 111.829 78.4013 102.95 77.5924 104.45C76.7834 105.949 77.0109 107.449 77.8241 109.754C78.6373 112.06 79.7875 114.135 81.6161 115.286C83.4447 116.437 90.1776 117.134 90.1776 117.134" stroke="#263238" stroke-linecap="round" stroke-linejoin="round"/>
<path d="M98.9879 116.096L96.3251 113.442L90.4307 119.091L93.321 121.397L98.9879 116.096Z" fill="white" stroke="#263238" stroke-linecap="round" stroke-linejoin="round"/>
<path d="M125.743 89.6406C125.743 89.6406 117.489 89.9262 115.525 90.846C113.562 91.7658 113.326 93.1518 113.212 93.7314C113.098 94.311 109.627 125.089 109.627 125.089L98.2927 114.366L91.0078 121.38C91.0078 121.38 101.069 134.522 103.382 138.096C105.695 141.67 107.777 145.013 109.74 145.358C111.704 145.702 112.403 145.82 114.83 145.131C117.257 144.442 120.383 139.054 120.501 138.6C120.619 138.146 125.823 109.07 125.823 109.07" fill="#858585"/>
<path d="M125.743 89.6406C125.743 89.6406 117.489 89.9262 115.525 90.846C113.562 91.7658 113.326 93.1518 113.212 93.7314C113.098 94.311 109.627 125.089 109.627 125.089L98.2927 114.366L91.0078 121.38C91.0078 121.38 101.069 134.522 103.382 138.096C105.695 141.67 107.777 145.013 109.74 145.358C111.704 145.702 112.403 145.82 114.83 145.131C117.257 144.442 120.383 139.054 120.501 138.6C120.619 138.146 125.823 109.07 125.823 109.07" stroke="#263238" stroke-linecap="round" stroke-linejoin="round"/>
<path d="M115.47 128.461L117.012 129.352" stroke="#263238" stroke-linecap="round" stroke-linejoin="round"/>
<path d="M109.626 125.089L114.522 127.915" stroke="#263238" stroke-linecap="round" stroke-linejoin="round"/>
<path d="M128.376 140.339C127.445 140.725 126.585 141.061 125.848 141.326" stroke="#263238" stroke-linecap="round" stroke-linejoin="round"/>
<path d="M145.401 132.565C145.401 132.565 137.59 136.345 131.224 139.129" stroke="#263238" stroke-linecap="round" stroke-linejoin="round"/>
<path d="M149.349 133.102L139.481 138.285" stroke="#263238" stroke-linecap="round" stroke-linejoin="round"/>
<path d="M230.971 142.947H243.872C243.872 142.947 245.738 142.947 245.06 145.824C244.382 148.701 241.664 164.434 241.323 170.356C240.982 176.278 240.645 179.831 240.645 179.831H190.586L196.624 145.135C196.739 144.476 197.084 143.879 197.599 143.45C198.113 143.02 198.763 142.785 199.434 142.787L230.971 142.947Z" fill="#263238" stroke="#263238" stroke-linecap="round" stroke-linejoin="round"/>
<path d="M190.658 120.418C190.658 120.418 176.004 124.509 175.768 125.912C175.532 127.315 169.322 161.557 169.322 161.557C169.322 161.557 138.619 153.611 136.845 153.611C135.071 153.611 128.284 159.335 127.348 160.037C126.413 160.738 125.119 161.326 125.002 162.725C124.884 164.123 123.712 166.349 125.002 167.399C126.291 168.449 127.108 169.39 127.58 168.802C128.052 168.214 127.466 166.232 127.348 165.862C127.23 165.493 134.734 161.662 134.734 161.662L137.781 160.961C136.693 161.928 135.515 162.789 134.262 163.531C132.27 164.699 131.57 166.69 132.623 166.803C133.677 166.916 133.795 166.454 136.837 165.518C139.879 164.581 142.462 161.545 142.462 161.545C142.462 161.545 172.123 175.337 173.767 175.337C175.41 175.337 175.174 175.686 176.581 173.817C177.988 171.948 182.56 158.626 182.56 158.626L184.317 175.921V179.781H230.402C230.402 179.781 230.166 129.99 229.935 129.289C229.703 128.587 211.708 117.285 211.708 117.285L190.658 120.418Z" fill="#11305B" stroke="#263238" stroke-linecap="round" stroke-linejoin="round"/>
<path d="M178.22 153.09L177.205 151.792" stroke="#263238" stroke-linecap="round" stroke-linejoin="round"/>
<path d="M182.568 158.638L179.113 154.232" stroke="#263238" stroke-linecap="round" stroke-linejoin="round"/>
<path d="M178.144 144.371L177.613 142.67" stroke="#263238" stroke-linecap="round" stroke-linejoin="round"/>
<path d="M180.222 142.947L182.569 158.634L178.692 146.143" stroke="#263238" stroke-linecap="round" stroke-linejoin="round"/>
<path d="M215.42 119.645L211.708 117.298L190.642 120.418L200.488 141.574L215.42 119.645Z" fill="white" stroke="#263238" stroke-linecap="round" stroke-linejoin="round"/>
<path d="M189.601 89.1911C186.799 91.1147 182.804 95.3231 183.702 98.0111C184.646 100.834 186.061 101.459 186.061 101.459C186.061 101.459 184.797 105.378 185.905 106.634C186.563 107.383 187.094 108.234 187.477 109.154C187.477 109.154 185.118 115.739 186.213 116.525L187.313 117.306C187.313 117.306 189.2 124.832 190.616 125.286C192.032 125.74 196.279 124.501 196.279 124.501L200.555 135.954L211.725 117.298L210.621 113.518C210.621 113.518 217.227 102.703 214.556 95.0375C213.018 90.6233 209.032 87.5741 204.634 86.2931C199.776 84.8819 195.579 86.4359 191.063 88.3637C190.55 88.5919 190.06 88.869 189.601 89.1911Z" fill="#C2C2C2" stroke="#263238" stroke-linecap="round" stroke-linejoin="round"/>
<path d="M214.54 95.0375C213.002 90.6233 209.016 87.5741 204.617 86.2931C199.759 84.8819 195.563 86.4359 191.046 88.3637C190.541 88.5974 190.06 88.8787 189.609 89.2037C186.807 91.1273 182.813 95.3357 183.711 98.0237C184.654 100.846 186.07 101.472 186.07 101.472C186.562 101.53 187.06 101.478 187.53 101.321C187.999 101.163 188.427 100.903 188.784 100.561C189.955 99.3929 192.997 97.2887 195.466 97.6205C197.935 97.9523 197.926 100.892 197.105 102.295C196.283 103.698 196.052 105.336 198.162 105.802C200.273 106.268 200.859 106.268 200.859 107.902C200.859 109.536 200.741 110.842 202.03 110.59C203.32 110.338 203.438 109.771 204.023 108.49C204.609 107.209 207.187 105.218 208.595 109.192C210.002 113.165 207.187 115.034 207.187 115.034C208.416 114.593 209.598 114.03 210.714 113.354C211.552 111.917 217.009 102.14 214.54 95.0375Z" fill="#263238" stroke="#263238" stroke-linecap="round" stroke-linejoin="round"/>
<path d="M188.896 108.498C188.896 108.498 192.297 106.978 194.526 108.498" stroke="#263238" stroke-linecap="round" stroke-linejoin="round"/>
<path d="M188.783 119.015C188.783 119.015 192.415 120.418 194.762 117.848" stroke="#263238" stroke-linecap="round" stroke-linejoin="round"/>
<path d="M187.329 117.298L189.25 117.617" stroke="#263238" stroke-linecap="round" stroke-linejoin="round"/>
<path d="M193.118 111.153C193.118 111.812 192.752 112.35 192.276 112.35C191.8 112.35 191.454 111.812 191.454 111.153C191.454 110.494 191.821 109.96 192.276 109.96C192.731 109.96 193.118 110.494 193.118 111.153Z" fill="#263238"/>
<path d="M196.296 124.509C196.296 124.509 200.509 122.875 201.681 122.056C202.852 121.237 203.555 120.653 203.555 120.653L197.808 128.251L196.296 124.509Z" fill="#263238"/>
<path d="M147.244 155.967C141.876 154.644 137.477 153.611 136.845 153.611C135.084 153.611 128.284 159.335 127.348 160.037C126.413 160.738 125.119 161.326 125.002 162.725C124.884 164.123 123.712 166.349 125.002 167.399C126.291 168.449 127.108 169.39 127.58 168.802C128.052 168.214 127.466 166.232 127.348 165.862C127.23 165.493 134.734 161.662 134.734 161.662L137.781 160.961C136.693 161.928 135.515 162.789 134.262 163.531C132.27 164.699 131.57 166.69 132.623 166.803C133.677 166.916 133.795 166.454 136.837 165.518C139.879 164.581 142.462 161.545 142.462 161.545C142.462 161.545 143.831 162.183 145.992 163.178C146.675 162.121 147.138 160.938 147.353 159.7C147.568 158.461 147.531 157.191 147.244 155.967Z" fill="#C2C2C2" stroke="#263238" stroke-linecap="round" stroke-linejoin="round"/>
<path d="M142.47 161.557L143.759 158.521" stroke="#263238" stroke-linecap="round" stroke-linejoin="round"/>
<path d="M130.98 160.272C130.98 160.272 125.238 163.897 124.18 164.598C123.122 165.299 119.491 166.114 119.844 166.816C120.198 167.517 121.016 167.87 122.659 167.399C124.534 166.942 126.375 166.357 128.17 165.648C130.045 164.829 134.734 161.675 134.734 161.675" fill="#C2C2C2"/>
<path d="M130.98 160.272C130.98 160.272 125.238 163.897 124.18 164.598C123.122 165.299 119.491 166.114 119.844 166.816C120.198 167.517 121.016 167.87 122.659 167.399C124.534 166.942 126.375 166.357 128.17 165.648C130.045 164.829 134.734 161.675 134.734 161.675" stroke="#263238" stroke-linecap="round" stroke-linejoin="round"/>
<path d="M224.542 125.58C224.542 125.58 232.514 129.087 233.567 131.073C234.62 133.06 236.735 176.433 236.849 177.693C236.891 178.141 236.755 178.588 236.471 178.937C236.186 179.286 235.776 179.511 235.328 179.562C234.743 179.68 197.341 179.449 196.287 179.449C195.234 179.449 192.651 179.214 191.126 178.512C189.601 177.811 188.43 178.046 188.312 176.173C188.274 174.81 188.313 173.445 188.43 172.086C188.43 171.385 187.962 169.398 188.43 168.227C188.897 167.055 189.837 167.059 190.304 166.941C191.046 166.881 191.792 166.881 192.533 166.941C192.946 166.621 193.439 166.419 193.959 166.357C194.479 166.296 195.006 166.377 195.483 166.593C197.24 167.294 200.172 171.498 200.172 171.498C200.172 171.498 202.987 172.317 207.44 171.616C211.894 170.915 221.976 168.81 221.976 168.81L217.99 143.917" fill="#11305B"/>
<path d="M224.542 125.58C224.542 125.58 232.514 129.087 233.567 131.073C234.62 133.06 236.735 176.433 236.849 177.693C236.891 178.141 236.755 178.588 236.471 178.937C236.186 179.286 235.776 179.511 235.328 179.562C234.743 179.68 197.341 179.449 196.287 179.449C195.234 179.449 192.651 179.214 191.126 178.512C189.601 177.811 188.43 178.046 188.312 176.173C188.274 174.81 188.313 173.445 188.43 172.086C188.43 171.385 187.962 169.398 188.43 168.227C188.897 167.055 189.837 167.059 190.304 166.941C191.046 166.881 191.792 166.881 192.533 166.941C192.946 166.621 193.439 166.419 193.959 166.357C194.479 166.296 195.006 166.377 195.483 166.593C197.24 167.294 200.172 171.498 200.172 171.498C200.172 171.498 202.987 172.317 207.44 171.616C211.894 170.915 221.976 168.81 221.976 168.81L217.99 143.917" stroke="#263238" stroke-linecap="round" stroke-linejoin="round"/>
<path d="M221.959 168.802L222.549 173.011" stroke="#263238" stroke-linecap="round" stroke-linejoin="round"/>
<path d="M202.847 179.474C201.617 175.413 202.598 173.09 203.572 171.889C202.421 171.894 201.273 171.76 200.155 171.49C200.155 171.49 197.205 167.29 195.465 166.584C194.988 166.369 194.462 166.287 193.942 166.349C193.422 166.41 192.929 166.612 192.516 166.933C191.774 166.873 191.029 166.873 190.287 166.933C189.819 167.051 188.88 167.051 188.412 168.218C187.944 169.386 188.412 171.377 188.412 172.078C188.295 173.437 188.256 174.801 188.294 176.165C188.412 178.038 189.583 177.803 191.108 178.504C192.634 179.205 195.212 179.441 196.27 179.441L202.847 179.474Z" fill="#C2C2C2" stroke="#263238" stroke-linecap="round" stroke-linejoin="round"/>
<path d="M132.973 177.622H83.5504L75.0479 142.779H124.466L132.973 177.622Z" fill="white" stroke="#263238" stroke-linecap="round" stroke-linejoin="round"/>
<path d="M109.905 160.86C109.905 161.939 106.711 162.813 102.776 162.813C98.8405 162.813 95.6426 161.948 95.6426 160.86C95.6426 159.772 98.8321 158.911 102.772 158.911C106.711 158.911 109.905 159.793 109.905 160.86Z" fill="white" stroke="#263238" stroke-linecap="round" stroke-linejoin="round"/>
<path d="M164.518 177.622H83.5508V179.832H164.518V177.622Z" fill="#C2C2C2" stroke="#263238" stroke-linecap="round" stroke-linejoin="round"/>
<path d="M164.518 177.622H133.664V179.832H164.518V177.622Z" fill="white" stroke="#263238" stroke-linecap="round" stroke-linejoin="round"/>
<path d="M138.728 178.252H136.057V178.735H138.728V178.252Z" fill="white" stroke="#263238" stroke-linecap="round" stroke-linejoin="round"/>
<path d="M145.524 178.252H142.853V178.735H145.524V178.252Z" fill="white" stroke="#263238" stroke-linecap="round" stroke-linejoin="round"/>
<path d="M273.846 179.831H26.6914" stroke="#263238" stroke-linecap="round" stroke-linejoin="round"/>
</svg>
