<svg width="261" height="239" viewBox="0 0 261 239" fill="none" xmlns="http://www.w3.org/2000/svg">
<path d="M220.498 86.0401C221.683 74.8262 224.518 64.2098 219.506 53.4261C210.309 33.6369 182.564 23.1305 161.006 32.5041C149.981 37.2841 140.554 44.2772 128.412 46.8441C95.6409 53.7703 45.0591 16.8687 27.2224 59.8313C21.0993 74.5728 23.5684 93.9988 34.64 106.322C38.1948 110.275 42.5378 113.716 45.1687 118.238C52.3671 130.614 42.1777 144.213 37.5841 155.756C26.6743 183.036 67.8079 198.131 90.1338 200.913C127.039 205.54 157.482 166.822 194.184 182.596C219.762 193.59 242.208 166.822 237.51 140.054C234.436 122.531 218.869 105.758 220.326 87.8995C220.378 87.2829 220.435 86.6662 220.498 86.0401Z" fill="#11305B"/>
<path opacity="0.7" d="M220.498 86.0401C221.683 74.8262 224.518 64.2098 219.506 53.4261C210.309 33.6369 182.564 23.1305 161.006 32.5041C149.981 37.2841 140.554 44.2772 128.412 46.8441C95.6409 53.7703 45.0591 16.8687 27.2224 59.8313C21.0993 74.5728 23.5684 93.9988 34.64 106.322C38.1948 110.275 42.5378 113.716 45.1687 118.238C52.3671 130.614 42.1777 144.213 37.5841 155.756C26.6743 183.036 67.8079 198.131 90.1338 200.913C127.039 205.54 157.482 166.822 194.184 182.596C219.762 193.59 242.208 166.822 237.51 140.054C234.436 122.531 218.869 105.758 220.326 87.8995C220.378 87.2829 220.435 86.6662 220.498 86.0401Z" fill="white"/>
<path d="M44.7717 93.3344C54.7265 93.3344 62.7964 85.9447 62.7964 76.8291C62.7964 67.7134 54.7265 60.3237 44.7717 60.3237C34.817 60.3237 26.7471 67.7134 26.7471 76.8291C26.7471 85.9447 34.817 93.3344 44.7717 93.3344Z" fill="white" stroke="#2E353A" stroke-linecap="round" stroke-linejoin="round"/>
<path d="M43.4299 91.6948C53.3847 91.6948 61.4546 84.3051 61.4546 75.1894C61.4546 66.0738 53.3847 58.6841 43.4299 58.6841C33.4752 58.6841 25.4053 66.0738 25.4053 75.1894C25.4053 84.3051 33.4752 91.6948 43.4299 91.6948Z" fill="white" stroke="#2E353A" stroke-linecap="round" stroke-linejoin="round"/>
<path d="M43.4305 90.0553C52.3964 90.0553 59.6647 83.3997 59.6647 75.1895C59.6647 66.9794 52.3964 60.3237 43.4305 60.3237C34.4646 60.3237 27.1963 66.9794 27.1963 75.1895C27.1963 83.3997 34.4646 90.0553 43.4305 90.0553Z" fill="#2E353A" stroke="#2E353A" stroke-linecap="round" stroke-linejoin="round"/>
<path d="M41.5248 64.0138C41.5248 64.0138 39.7343 59.9126 36.6023 57.0446C33.4703 54.1766 20.7022 52.3267 20.7022 52.3267C22.7639 54.1477 24.6388 56.1382 26.3032 58.273C29.2108 61.9632 38.8312 70.3712 38.8312 70.3712C38.8312 70.3712 34.1332 66.681 29.8737 66.27C25.6142 65.8589 14.8714 67.9095 14.2137 67.9095C13.556 67.9095 18.2436 69.549 21.6052 70.983C24.9669 72.417 37.9491 73.6503 37.9491 73.6503C37.9491 73.6503 32.3532 75.0843 28.5531 76.3175C24.7529 77.5508 21.1511 86.5658 21.1511 86.5658C21.1511 86.5658 26.0788 82.4646 30.3331 81.4417C34.5874 80.4188 40.6321 78.5737 40.6321 78.5737C40.6321 78.5737 36.8268 82.4694 35.9341 85.1366C35.0415 87.8039 35.7097 93.9509 35.7097 93.9509C35.7097 93.9509 37.7246 88.215 40.1884 85.954C42.6523 83.6931 45.3301 79.826 45.3301 79.826C46.5704 81.6772 47.6928 83.5924 48.6918 85.562C50.4823 89.0467 51.5994 94.166 51.5994 94.166C51.5994 94.166 54.5121 88.43 54.2877 85.562C54.0632 82.694 50.7067 77.5651 50.7067 77.5651C50.7067 77.5651 52.9461 76.1311 56.3026 77.3596C59.659 78.588 65.4846 83.717 65.4846 83.717C65.4846 83.717 64.1378 76.9485 61.8984 74.286C59.659 71.6236 50.0334 70.7966 50.0334 70.7966C50.0334 70.7966 55.41 67.9286 58.7664 67.312C62.1229 66.6954 66.5964 68.1342 66.5964 68.1342C66.5964 68.1342 61.4495 61.5712 57.4197 61.1601C53.3898 60.7491 47.3451 66.4755 47.3451 66.4755L49.1407 58.273C49.5844 56.2224 48.6918 51.103 48.6918 51.103C48.6918 51.103 46.228 52.3315 43.3152 56.2272C42.4628 57.3493 41.8651 58.6166 41.5575 59.9542C41.2499 61.2917 41.2388 62.6722 41.5248 64.0138Z" fill="#11305B"/>
<path opacity="0.5" d="M41.5248 64.0138C41.5248 64.0138 39.7343 59.9126 36.6023 57.0446C33.4703 54.1766 20.7022 52.3267 20.7022 52.3267C22.7639 54.1477 24.6388 56.1382 26.3032 58.273C29.2108 61.9632 38.8312 70.3712 38.8312 70.3712C38.8312 70.3712 34.1332 66.681 29.8737 66.27C25.6142 65.8589 14.8714 67.9095 14.2137 67.9095C13.556 67.9095 18.2436 69.549 21.6052 70.983C24.9669 72.417 37.9491 73.6503 37.9491 73.6503C37.9491 73.6503 32.3532 75.0843 28.5531 76.3175C24.7529 77.5508 21.1511 86.5658 21.1511 86.5658C21.1511 86.5658 26.0788 82.4646 30.3331 81.4417C34.5874 80.4188 40.6321 78.5737 40.6321 78.5737C40.6321 78.5737 36.8268 82.4694 35.9341 85.1366C35.0415 87.8039 35.7097 93.9509 35.7097 93.9509C35.7097 93.9509 37.7246 88.215 40.1884 85.954C42.6523 83.6931 45.3301 79.826 45.3301 79.826C46.5704 81.6772 47.6928 83.5924 48.6918 85.562C50.4823 89.0467 51.5994 94.166 51.5994 94.166C51.5994 94.166 54.5121 88.43 54.2877 85.562C54.0632 82.694 50.7067 77.5651 50.7067 77.5651C50.7067 77.5651 52.9461 76.1311 56.3026 77.3596C59.659 78.588 65.4846 83.717 65.4846 83.717C65.4846 83.717 64.1378 76.9485 61.8984 74.286C59.659 71.6236 50.0334 70.7966 50.0334 70.7966C50.0334 70.7966 55.41 67.9286 58.7664 67.312C62.1229 66.6954 66.5964 68.1342 66.5964 68.1342C66.5964 68.1342 61.4495 61.5712 57.4197 61.1601C53.3898 60.7491 47.3451 66.4755 47.3451 66.4755L49.1407 58.273C49.5844 56.2224 48.6918 51.103 48.6918 51.103C48.6918 51.103 46.228 52.3315 43.3152 56.2272C42.4628 57.3493 41.8651 58.6166 41.5575 59.9542C41.2499 61.2917 41.2388 62.6722 41.5248 64.0138Z" fill="black"/>
<path d="M45.9355 57.7711C46.0921 57.1832 46.2644 56.5952 46.4575 56.0168" stroke="#2E353A" stroke-width="0.5" stroke-linecap="round" stroke-linejoin="round"/>
<path d="M30.9805 57.7712C33.0685 59.1718 35.6785 61.1172 37.0461 62.7855C39.51 65.859 44.4376 72.4219 44.4376 72.4219C44.2965 68.0139 44.678 63.6048 45.5756 59.2722" stroke="#2E353A" stroke-width="0.5" stroke-linecap="round" stroke-linejoin="round"/>
<path d="M27.8691 55.8113C27.8691 55.8113 28.5216 56.1937 29.4978 56.8103" stroke="#2E353A" stroke-width="0.5" stroke-linecap="round" stroke-linejoin="round"/>
<path d="M44.4375 72.4217C44.4375 72.4217 52.9461 64.6303 56.527 64.0137C60.1079 63.3971 63.2452 65.8588 63.2452 65.8588" stroke="#2E353A" stroke-width="0.5" stroke-linecap="round" stroke-linejoin="round"/>
<path d="M29.2319 78.937C27.1439 80.1416 26.9717 80.849 26.9717 80.849" stroke="#2E353A" stroke-width="0.5" stroke-linecap="round" stroke-linejoin="round"/>
<path d="M63.0207 79.5967C63.0207 79.5967 61.6792 76.5184 56.976 75.0844C52.2727 73.6504 44.8917 73.4448 44.8917 73.4448C44.8917 73.4448 34.53 76.5518 30.7402 78.1722" stroke="#2E353A" stroke-width="0.5" stroke-linecap="round" stroke-linejoin="round"/>
<path d="M40.3604 72.2737C42.866 72.9429 44.8861 73.4448 44.8861 73.4448" stroke="#2E353A" stroke-width="0.5" stroke-linecap="round" stroke-linejoin="round"/>
<path d="M24.5908 68.6313C27.0233 68.7652 30.1553 69.0711 31.8988 69.7546C33.3187 70.3139 36.1166 71.1217 38.7579 71.8435" stroke="#2E353A" stroke-width="0.5" stroke-linecap="round" stroke-linejoin="round"/>
<path d="M21.1514 68.5261C21.1514 68.5261 21.9709 68.5261 23.1767 68.5691" stroke="#2E353A" stroke-width="0.5" stroke-linecap="round" stroke-linejoin="round"/>
<path d="M44.4376 74.6731C44.4376 74.6731 38.1736 83.2771 37.7194 85.3373C37.4504 86.5527 37.3002 87.7876 37.2705 89.0274" stroke="#2E353A" stroke-width="0.5" stroke-linecap="round" stroke-linejoin="round"/>
<path d="M47.2246 77.3835C48.4304 78.8175 49.8764 80.7295 50.4819 82.2591C51.1867 84.1254 51.7107 86.0448 52.0479 87.9951" stroke="#2E353A" stroke-width="0.5" stroke-linecap="round" stroke-linejoin="round"/>
<path d="M45.3301 75.2898C45.3301 75.2898 45.8521 75.7965 46.5255 76.5756" stroke="#2E353A" stroke-width="0.5" stroke-linecap="round" stroke-linejoin="round"/>
<path d="M38.68 65.7824C38.68 65.7824 37.5264 61.4804 38.2415 57.4891C38.9567 53.4978 48.1595 45.1663 48.1595 45.1663C47.6481 47.7465 47.3947 50.364 47.4026 52.9863C47.4026 57.5369 44.9231 69.506 44.9231 69.506C44.9231 69.506 46.39 63.9995 49.5846 61.38C52.7792 58.7606 62.8173 54.688 63.3602 54.3391C63.903 53.9901 61.1312 57.8237 59.3199 60.7873C57.5086 63.7509 47.7315 71.7 47.7315 71.7C47.7315 71.7 53.1916 69.8741 57.0648 68.832C60.9381 67.79 69.5929 73.2105 69.5929 73.2105C69.5929 73.2105 62.9791 72.5126 58.871 73.9514C54.7628 75.3902 48.6763 77.1206 48.6763 77.1206C48.6763 77.1206 54.2513 78.2534 56.6734 79.9408C59.0954 81.6281 62.478 86.996 62.478 86.996C62.478 86.996 57.1849 83.4063 53.7449 82.89C50.305 82.3738 45.6435 80.6482 45.6435 80.6482C45.8203 82.8135 46.1305 84.9679 46.5727 87.1012C47.34 90.8917 49.7047 95.6526 49.7047 95.6526C49.7047 95.6526 43.686 92.5456 42.0365 90.0935C40.387 87.6413 39.8545 81.6855 39.8545 81.6855C39.8545 81.6855 37.1192 81.7141 35.1565 84.5057C33.1938 87.2972 31.7479 94.5723 31.7479 94.5723C31.7479 94.5723 28.5323 88.3583 28.6524 85.0123C28.7725 81.6663 36.07 75.8443 36.07 75.8443C36.07 75.8443 29.8791 76.3844 26.7575 77.675C23.636 78.9656 20.9111 82.5267 20.9111 82.5267C20.9111 82.5267 20.9111 74.4485 23.9283 71.9629C26.9455 69.4773 35.5115 70.9113 35.5115 70.9113L28.8299 65.2088C27.1595 63.7748 24.6226 59.1382 24.6226 59.1382C24.6226 59.1382 27.41 58.8227 32.2542 60.4336C33.6622 60.885 34.9567 61.5912 36.0606 62.5101C37.1646 63.429 38.0553 64.5418 38.68 65.7824Z" fill="#11305B"/>
<path d="M31.1216 63.0673C30.5996 62.6705 30.1089 62.2881 29.5869 61.9153" stroke="#2E353A" stroke-width="0.5" stroke-linecap="round" stroke-linejoin="round"/>
<path d="M43.2679 55.0801C42.4588 57.3362 41.5557 60.3046 41.5348 62.3887C41.4931 66.2127 41.6705 74.1618 41.6705 74.1618C38.9762 70.507 35.8554 67.1315 32.3633 64.0952" stroke="#2E353A" stroke-width="0.5" stroke-linecap="round" stroke-linejoin="round"/>
<path d="M44.5523 51.8247C44.5523 51.8247 44.26 52.4843 43.8633 53.5025" stroke="#2E353A" stroke-width="0.5" stroke-linecap="round" stroke-linejoin="round"/>
<path d="M41.6708 74.1617C41.6708 74.1617 29.7953 72.3787 26.4962 73.7936C23.1972 75.2085 22.2158 78.87 22.2158 78.87" stroke="#2E353A" stroke-width="0.5" stroke-linecap="round" stroke-linejoin="round"/>
<path d="M58.1768 71.3321C60.6249 71.2078 61.2096 71.6619 61.2096 71.6619" stroke="#2E353A" stroke-width="0.5" stroke-linecap="round" stroke-linejoin="round"/>
<path d="M31.1475 89.9165C31.1475 89.9165 30.281 86.6996 33.1833 83.0238C36.0856 79.348 41.9633 75.2371 41.9633 75.2371C41.9633 75.2371 52.3563 72.221 56.4645 71.5183" stroke="#2E353A" stroke-width="0.5" stroke-linecap="round" stroke-linejoin="round"/>
<path d="M44.8919 71.8674C43.2842 73.746 41.9688 75.2373 41.9688 75.2373" stroke="#2E353A" stroke-width="0.5" stroke-linecap="round" stroke-linejoin="round"/>
<path d="M55.3789 60.4861C53.4893 61.9201 51.1403 63.8321 50.1589 65.2995C49.3602 66.5137 47.6011 68.6455 45.915 70.6579" stroke="#2E353A" stroke-width="0.5" stroke-linecap="round" stroke-linejoin="round"/>
<path d="M58.1036 58.5598C58.1036 58.5598 57.4406 58.9996 56.4854 59.6783" stroke="#2E353A" stroke-width="0.5" stroke-linecap="round" stroke-linejoin="round"/>
<path d="M43.1064 76.002C43.1064 76.002 53.6874 79.6443 55.3526 81.0735C56.3455 81.9168 57.254 82.8398 58.067 83.8316" stroke="#2E353A" stroke-width="0.5" stroke-linecap="round" stroke-linejoin="round"/>
<path d="M42.5689 79.6826C42.4958 81.4895 42.5323 83.8078 43.0282 85.3852C43.6436 87.2803 44.442 89.1214 45.4138 90.8869" stroke="#2E353A" stroke-width="0.5" stroke-linecap="round" stroke-linejoin="round"/>
<path d="M42.7721 76.958C42.7721 76.958 42.6886 77.6368 42.626 78.6406" stroke="#2E353A" stroke-width="0.5" stroke-linecap="round" stroke-linejoin="round"/>
<path d="M73.5131 87.6797H191.835C193.312 87.6797 194.729 88.217 195.773 89.1735C196.818 90.13 197.405 91.4273 197.405 92.78V163.046C197.405 163.779 197.247 164.504 196.941 165.181C196.635 165.857 196.186 166.472 195.62 166.99C195.055 167.508 194.383 167.919 193.644 168.2C192.905 168.48 192.113 168.624 191.313 168.624H74.0351C73.2351 168.624 72.443 168.48 71.7039 168.2C70.9648 167.919 70.2933 167.508 69.7276 166.99C69.1619 166.472 68.7132 165.857 68.4071 165.181C68.1009 164.504 67.9434 163.779 67.9434 163.046V92.78C67.9434 91.4273 68.5302 90.13 69.5747 89.1735C70.6192 88.217 72.0359 87.6797 73.5131 87.6797Z" fill="white" stroke="#2E353A" stroke-linecap="round" stroke-linejoin="round"/>
<path d="M116.818 95.6479H109.531V100.031H116.818V95.6479Z" fill="#2E353A"/>
<path d="M93.2075 122.688H86.4424V128.835H93.2075V122.688Z" fill="#2E353A"/>
<path d="M123.098 101.083H116.28V107.23H123.098V101.083Z" fill="#2E353A"/>
<path d="M108.377 95.6479H101.09V100.031H108.377V95.6479Z" fill="#2E353A"/>
<path d="M131.063 101.083H124.246V107.23H131.063V101.083Z" fill="#2E353A"/>
<path d="M125.254 95.6479H117.967V100.031H125.254V95.6479Z" fill="#2E353A"/>
<path d="M89.1211 115.485H76.3008V121.632H89.1211V115.485Z" fill="#2E353A"/>
<path d="M107.161 101.083H100.344V107.23H107.161V101.083Z" fill="#2E353A"/>
<path d="M85.2948 122.688H76.3008V128.835H85.2948V122.688Z" fill="#2E353A"/>
<path d="M133.694 95.6479H126.407V100.031H133.694V95.6479Z" fill="#2E353A"/>
<path d="M91.2245 101.083H84.4072V107.23H91.2245V101.083Z" fill="#2E353A"/>
<path d="M91.501 95.6479H84.2139V100.031H91.501V95.6479Z" fill="#2E353A"/>
<path d="M99.9414 95.6479H92.6543V100.031H99.9414V95.6479Z" fill="#2E353A"/>
<path d="M99.1904 101.083H92.373V107.23H99.1904V101.083Z" fill="#2E353A"/>
<path d="M115.127 101.083H108.31V107.23H115.127V101.083Z" fill="#2E353A"/>
<path d="M167.452 95.6479H160.165V100.031H167.452V95.6479Z" fill="#2E353A"/>
<path d="M175.888 95.6479H168.601V100.031H175.888V95.6479Z" fill="#2E353A"/>
<path d="M170.907 101.083H164.09V107.23H170.907V101.083Z" fill="#2E353A"/>
<path d="M178.879 101.083H172.062V107.23H178.879V101.083Z" fill="#2E353A"/>
<path d="M191.484 122.688H181.446V128.835H191.484V122.688Z" fill="#2E353A"/>
<path d="M184.328 95.6479H177.041V100.031H184.328V95.6479Z" fill="#2E353A"/>
<path d="M83.259 101.083H76.3008V107.23H83.259V101.083Z" fill="#2E353A"/>
<path d="M142.135 95.6479H134.848V100.031H142.135V95.6479Z" fill="#2E353A"/>
<path d="M150.57 95.6479H143.283V100.031H150.57V95.6479Z" fill="#2E353A"/>
<path d="M147.005 101.083H140.188V107.23H147.005V101.083Z" fill="#2E353A"/>
<path d="M162.942 101.083H156.125V107.23H162.942V101.083Z" fill="#2E353A"/>
<path d="M139.034 101.083H132.217V107.23H139.034V101.083Z" fill="#2E353A"/>
<path d="M154.971 101.083H148.153V107.23H154.971V101.083Z" fill="#2E353A"/>
<path d="M159.011 95.6479H151.724V100.031H159.011V95.6479Z" fill="#2E353A"/>
<path d="M148.628 122.688H141.863V128.835H148.628V122.688Z" fill="#2E353A"/>
<path d="M184.125 115.485H177.359V121.632H184.125V115.485Z" fill="#2E353A"/>
<path d="M176.206 115.485H169.44V121.632H176.206V115.485Z" fill="#2E353A"/>
<path d="M180.293 122.688H173.528V128.835H180.293V122.688Z" fill="#2E353A"/>
<path d="M172.379 122.688H165.614V128.835H172.379V122.688Z" fill="#2E353A"/>
<path d="M156.542 122.688H149.777V128.835H156.542V122.688Z" fill="#2E353A"/>
<path d="M164.46 122.688H157.695V128.835H164.46V122.688Z" fill="#2E353A"/>
<path d="M168.288 115.485H161.522V121.632H168.288V115.485Z" fill="#2E353A"/>
<path d="M160.374 115.485H153.608V121.632H160.374V115.485Z" fill="#2E353A"/>
<path d="M191.49 95.6479H185.481V100.031H191.49V95.6479Z" fill="#2E353A"/>
<path d="M83.0659 95.6479H76.3008V100.031H83.0659V95.6479Z" fill="#2E353A"/>
<path d="M191.491 129.887H76.3008V136.278H191.491V129.887Z" fill="#2E353A"/>
<path d="M191.485 101.083H180.027V107.23H191.485V101.083Z" fill="#2E353A"/>
<path d="M191.485 115.485H185.273V121.632H191.485V115.485Z" fill="#2E353A"/>
<path d="M183.363 114.385H182.209V108.286H175.444V114.385H174.296V108.286H167.531V114.385H166.377V108.286H159.612V114.385H158.458V108.286H151.693V114.385H150.545V108.286H143.78V114.385H142.626V108.286H135.861V114.385H134.707V108.286H127.942V114.385H126.794V108.286H120.029V114.385H118.875V108.286H112.11V114.385H110.956V108.286H104.191V114.385H103.043V108.286H96.2777V114.385H95.1241V108.286H88.359V114.385H87.2054V108.286H76.3008V114.433H191.485V108.286H183.363V114.385Z" fill="#2E353A"/>
<path d="M128.704 115.485H121.938V121.632H128.704V115.485Z" fill="#2E353A"/>
<path d="M152.455 115.485H145.689V121.632H152.455V115.485Z" fill="#2E353A"/>
<path d="M112.872 115.485H106.106V121.632H112.872V115.485Z" fill="#2E353A"/>
<path d="M116.958 122.688H110.193V128.835H116.958V122.688Z" fill="#2E353A"/>
<path d="M120.786 115.485H114.021V121.632H120.786V115.485Z" fill="#2E353A"/>
<path d="M104.953 115.485H98.1875V121.632H104.953V115.485Z" fill="#2E353A"/>
<path d="M101.126 122.688H94.3613V128.835H101.126V122.688Z" fill="#2E353A"/>
<path d="M109.041 122.688H102.275V128.835H109.041V122.688Z" fill="#2E353A"/>
<path d="M136.623 115.485H129.857V121.632H136.623V115.485Z" fill="#2E353A"/>
<path d="M140.709 122.688H133.944V128.835H140.709V122.688Z" fill="#2E353A"/>
<path d="M144.537 115.485H137.771V121.632H144.537V115.485Z" fill="#2E353A"/>
<path d="M124.877 122.688H118.112V128.835H124.877V122.688Z" fill="#2E353A"/>
<path d="M132.791 122.688H126.026V128.835H132.791V122.688Z" fill="#2E353A"/>
<path d="M97.0337 115.485H90.2686V121.632H97.0337V115.485Z" fill="#2E353A"/>
<path d="M204.796 43.7036H59.8573C59.1465 43.7041 58.4454 43.8543 57.8081 44.1425C57.1709 44.4308 56.6145 44.8494 56.1821 45.3659C55.7497 45.8825 55.4528 46.4832 55.3143 47.1216C55.1759 47.76 55.1997 48.419 55.3838 49.0477L65.9804 85.1749C66.2445 86.0767 66.8259 86.8736 67.6346 87.4422C68.4434 88.0108 69.4343 88.3194 70.4539 88.3201H85.2474V90.8201H180.09V88.3345H194.184C195.203 88.3337 196.194 88.0252 197.003 87.4566C197.812 86.888 198.393 86.091 198.657 85.1892L209.254 49.062C209.44 48.4336 209.467 47.7743 209.33 47.1351C209.194 46.4959 208.899 45.894 208.468 45.376C208.037 44.8579 207.482 44.4377 206.845 44.1477C206.208 43.8577 205.507 43.7057 204.796 43.7036Z" fill="#2E353A" stroke="#2E353A" stroke-linecap="round" stroke-linejoin="round"/>
<path d="M188.405 85.132H76.2481L65.0303 48.1682H199.618L188.405 85.132Z" fill="#11305B" stroke="#2E353A" stroke-linecap="round" stroke-linejoin="round"/>
<path d="M83.6923 68.9084V69.3864H81.7139V68.9084H83.6923Z" fill="#2E353A"/>
<path d="M86.1555 68.9084V69.3864H84.1719V68.9084H86.1555Z" fill="#2E353A"/>
<path d="M88.6193 68.9084V69.3864H86.6514V68.9084H88.6193Z" fill="#2E353A"/>
<path d="M91.078 68.9084V69.3864H89.0996V68.9084H91.078Z" fill="#2E353A"/>
<path d="M93.5422 68.9084V69.3864H91.5586V68.9084H93.5422Z" fill="#2E353A"/>
<path d="M96.0061 68.9084V69.3864H94.0225V68.9084H96.0061Z" fill="#2E353A"/>
<path d="M98.4647 68.9084V69.3864H96.4863V68.9084H98.4647Z" fill="#2E353A"/>
<path d="M100.902 71.4277L98.7197 66.1028H99.2417L101.424 71.4277H100.902Z" fill="#2E353A"/>
<path d="M81.6981 61.1553V61.6333H79.7197V61.1553H81.6981Z" fill="#2E353A"/>
<path d="M84.162 61.1553V61.6333H82.1836V61.1553H84.162Z" fill="#2E353A"/>
<path d="M86.6516 61.1553V61.6333H84.668V61.1553H86.6516Z" fill="#2E353A"/>
<path d="M89.0891 61.1553V61.6333H87.1055V61.1553H89.0891Z" fill="#2E353A"/>
<path d="M91.5477 61.1553V61.6333H89.5693V61.1553H91.5477Z" fill="#2E353A"/>
<path d="M95.7131 61.1553V61.6333H93.7295V61.1553H95.7131Z" fill="#2E353A"/>
<path d="M98.1717 61.1553V61.6333H96.1934V61.1553H98.1717Z" fill="#2E353A"/>
<path d="M100.636 61.1553V61.6333H98.6572V61.1553H100.636Z" fill="#2E353A"/>
<path d="M103.1 61.1553V61.6333H101.116V61.1553H103.1Z" fill="#2E353A"/>
<path d="M105.558 61.1553V61.6333H103.58V61.1553H105.558Z" fill="#2E353A"/>
<path d="M108.022 61.1553V61.6333H106.044V61.1553H108.022Z" fill="#2E353A"/>
<path d="M110.487 61.1553V61.6333H108.503V61.1553H110.487Z" fill="#2E353A"/>
<path d="M114.646 61.1553V61.6333H112.668V61.1553H114.646Z" fill="#2E353A"/>
<path d="M117.111 61.1553V61.6333H115.127V61.1553H117.111Z" fill="#2E353A"/>
<path d="M119.574 61.1553V61.6333H117.591V61.1553H119.574Z" fill="#2E353A"/>
<path d="M123.714 61.1553V61.6333H121.735V61.1553H123.714Z" fill="#2E353A"/>
<path d="M126.198 61.1553V61.6333H124.235V61.1553H126.198Z" fill="#2E353A"/>
<path d="M128.662 61.1553V61.6333H126.679V61.1553H128.662Z" fill="#2E353A"/>
<path d="M137.923 61.1553V61.6333H135.944V61.1553H137.923Z" fill="#2E353A"/>
<path d="M140.386 61.1553V61.6333H138.402V61.1553H140.386Z" fill="#2E353A"/>
<path d="M142.85 61.1553V61.6333H140.866V61.1553H142.85Z" fill="#2E353A"/>
<path d="M145.308 61.1553V61.6333H143.33V61.1553H145.308Z" fill="#2E353A"/>
<path d="M147.773 61.1553V61.6333H145.789V61.1553H147.773Z" fill="#2E353A"/>
<path d="M151.932 61.1553V61.6333H149.954V61.1553H151.932Z" fill="#2E353A"/>
<path d="M154.397 61.1553V61.6333H152.424V61.1553H154.397Z" fill="#2E353A"/>
<path d="M156.861 61.1553V61.6333H154.877V61.1553H156.861Z" fill="#2E353A"/>
<path d="M161.021 61.1553V61.6333H159.043V61.1553H161.021Z" fill="#2E353A"/>
<path d="M165.187 61.1553V61.6333H163.203V61.1553H165.187Z" fill="#2E353A"/>
<path d="M198.198 139.715L192.612 159.446L197.895 160.866L198.198 139.715Z" fill="white" stroke="#2E353A" stroke-linecap="round" stroke-linejoin="round"/>
<path d="M200.703 118.859C200.073 117.973 199.843 116.897 200.061 115.858C200.348 113.912 202.911 113.468 202.911 113.468C202.911 113.468 203.47 113.08 205.521 113.793C207.573 114.505 223.436 116.474 233.573 117.731C243.711 118.989 246.994 118.176 246.853 121.364C246.712 124.552 237.817 153.166 237.681 154.064C237.546 154.963 200.703 118.859 200.703 118.859Z" fill="white" stroke="#2E353A" stroke-miterlimit="10"/>
<path d="M243.343 124.154L200.699 118.86L193.808 165.408L236.452 170.701L243.343 124.154Z" fill="white" stroke="#2E353A" stroke-linecap="round" stroke-linejoin="round"/>
<path d="M235.416 133.438L237.896 133.749" stroke="#2E353A" stroke-width="0.5" stroke-linecap="round" stroke-linejoin="round"/>
<path d="M219.887 131.512L233.454 133.2" stroke="#2E353A" stroke-width="0.5" stroke-linecap="round" stroke-linejoin="round"/>
<path d="M203.443 129.471L217.924 131.268" stroke="#2E353A" stroke-width="0.5" stroke-linecap="round" stroke-linejoin="round"/>
<path d="M231.532 137.172L237.285 137.889" stroke="#2E353A" stroke-width="0.5" stroke-linecap="round" stroke-linejoin="round"/>
<path d="M202.833 133.611L225.65 136.44" stroke="#2E353A" stroke-width="0.5" stroke-linecap="round" stroke-linejoin="round"/>
<path d="M214.411 139.26L236.674 142.023" stroke="#2E353A" stroke-width="0.5" stroke-linecap="round" stroke-linejoin="round"/>
<path d="M202.217 137.745L212.119 138.978" stroke="#2E353A" stroke-width="0.5" stroke-linecap="round" stroke-linejoin="round"/>
<path d="M221.808 144.394L236.058 146.163" stroke="#2E353A" stroke-width="0.5" stroke-linecap="round" stroke-linejoin="round"/>
<path d="M209.713 142.888L220.174 144.189" stroke="#2E353A" stroke-width="0.5" stroke-linecap="round" stroke-linejoin="round"/>
<path d="M201.606 141.885L207.912 142.669" stroke="#2E353A" stroke-width="0.5" stroke-linecap="round" stroke-linejoin="round"/>
<path d="M230.348 149.667L235.448 150.297" stroke="#2E353A" stroke-width="0.5" stroke-linecap="round" stroke-linejoin="round"/>
<path d="M200.996 146.024L226.919 149.241" stroke="#2E353A" stroke-width="0.5" stroke-linecap="round" stroke-linejoin="round"/>
<path d="M220.419 152.645L234.837 154.437" stroke="#2E353A" stroke-width="0.5" stroke-linecap="round" stroke-linejoin="round"/>
<path d="M200.38 150.159L217.966 152.343" stroke="#2E353A" stroke-width="0.5" stroke-linecap="round" stroke-linejoin="round"/>
<path d="M224.872 157.415L234.221 158.572" stroke="#2E353A" stroke-width="0.5" stroke-linecap="round" stroke-linejoin="round"/>
<path d="M205.913 155.058L222.586 157.128" stroke="#2E353A" stroke-width="0.5" stroke-linecap="round" stroke-linejoin="round"/>
<path d="M199.769 154.298L203.95 154.815" stroke="#2E353A" stroke-width="0.5" stroke-linecap="round" stroke-linejoin="round"/>
<path d="M243.346 124.156C243.346 124.156 244.076 117.664 246.687 120.274" stroke="#2E353A" stroke-linecap="round" stroke-linejoin="round"/>
<path d="M228.886 174.159L228.839 178.284L226.213 174.891L215.674 142.43L218.346 141.698L228.886 174.159Z" fill="white" stroke="#2E353A" stroke-linecap="round" stroke-linejoin="round"/>
<path d="M217.301 143.085L215.843 143.475L226.198 175.987L227.656 175.597L217.301 143.085Z" fill="#11305B" stroke="#2E353A" stroke-width="0.5" stroke-linecap="round" stroke-linejoin="round"/>
<path d="M228.886 174.169L226.219 174.896L228.839 178.285L228.886 174.169Z" stroke="#2E353A" stroke-linecap="round" stroke-linejoin="round"/>
<path d="M227.529 176.587L228.84 178.284L228.866 176.224L227.529 176.587Z" fill="#2E353A" stroke="#2E353A" stroke-linecap="round" stroke-linejoin="round"/>
<path d="M215.831 138.429C215.477 138.526 215.18 138.748 215.004 139.045C214.828 139.342 214.788 139.691 214.891 140.016L215.674 142.43L218.347 141.703L217.564 139.289C217.458 138.965 217.216 138.693 216.891 138.532C216.566 138.371 216.185 138.334 215.831 138.429Z" fill="white" stroke="#2E353A" stroke-linecap="round" stroke-linejoin="round"/>
<path d="M215.831 138.429C215.477 138.526 215.18 138.748 215.004 139.045C214.828 139.342 214.788 139.691 214.891 140.016L215.267 141.168L217.935 140.441L217.564 139.289C217.458 138.965 217.216 138.693 216.891 138.532C216.566 138.371 216.185 138.334 215.831 138.429Z" fill="#2E353A" stroke="#2E353A" stroke-linecap="round" stroke-linejoin="round"/>
<path d="M84.3814 119.256C84.0474 119.687 83.7185 120.136 83.3896 120.609" stroke="white" stroke-linecap="round" stroke-linejoin="round"/>
<path d="M89.841 113.501C88.3866 114.736 87.0409 116.074 85.8164 117.502" stroke="white" stroke-linecap="round" stroke-linejoin="round"/>
<path d="M83.9168 116.039C82.4907 117.871 81.1985 119.787 80.0488 121.775" stroke="white" stroke-linecap="round" stroke-linejoin="round"/>
<path d="M120.733 126.551C120.404 126.981 120.07 127.43 119.741 127.899" stroke="white" stroke-linecap="round" stroke-linejoin="round"/>
<path d="M126.193 120.795C124.741 122.031 123.397 123.369 122.174 124.796" stroke="white" stroke-linecap="round" stroke-linejoin="round"/>
<path d="M120.274 123.324C118.849 125.166 117.557 127.092 116.406 129.089" stroke="white" stroke-linecap="round" stroke-linejoin="round"/>
<path d="M172.84 114.72C172.365 114.424 171.863 114.127 171.347 113.831" stroke="white" stroke-linecap="round" stroke-linejoin="round"/>
<path d="M179.208 119.634C177.835 118.325 176.354 117.115 174.776 116.015" stroke="white" stroke-linecap="round" stroke-linejoin="round"/>
<path d="M176.348 114.242C174.316 112.965 172.196 111.81 170 110.786" stroke="white" stroke-linecap="round" stroke-linejoin="round"/>
<path d="M119.146 144.356C118.875 146.153 118.468 148.658 118.061 150.145" stroke="#2E353A" stroke-linecap="round" stroke-linejoin="round"/>
<path d="M119.449 142.172C119.449 142.172 119.407 142.511 119.329 143.061" stroke="#2E353A" stroke-linecap="round" stroke-linejoin="round"/>
<path d="M120.843 147.272C120.273 149.013 119.575 150.717 118.755 152.372" stroke="#2E353A" stroke-linecap="round" stroke-linejoin="round"/>
<path d="M146.943 149.82C146.943 149.82 147.293 153.964 149.726 156.196" stroke="#2E353A" stroke-linecap="round" stroke-linejoin="round"/>
<path d="M146.594 153.964C146.594 153.964 147.638 156.832 149.726 158.108" stroke="#2E353A" stroke-linecap="round" stroke-linejoin="round"/>
<g style="mix-blend-mode:multiply">
<path d="M75.6904 176.114C75.6904 176.114 78.0081 174.408 78.0081 159.738C78.0081 145.068 80.6755 134.352 83.9641 129.653C87.2527 124.954 90.3273 123.071 91.768 123.071C93.2088 123.071 92.1752 124.763 90.1237 127.206C88.0723 129.648 86.2244 130.967 85.3996 133.979C84.5749 136.99 84.5801 140.747 85.6084 140.37C86.6368 139.992 88.2759 132.473 89.7114 129.653C91.1469 126.833 94.6443 123.257 96.6957 121.565C98.7472 119.873 103.268 114.797 105.319 116.111C107.371 117.426 106.144 119.309 104.912 120.059C103.68 120.81 98.7472 125.317 96.4921 128.147C94.2371 130.977 92.7964 138.113 94.0283 138.3C95.2602 138.486 98.956 127.961 101.007 125.705C103.059 123.448 111.275 117.239 113.123 117.053C114.971 116.866 115.18 119.495 113.535 120.815C111.891 122.134 106.347 127.77 104.5 131.154C102.652 134.538 101.827 140.747 103.456 139.242C105.084 137.736 107.767 131.531 110.028 129.462C112.288 127.392 119.063 120.815 120.708 121.565C122.352 122.316 121.94 124.199 120.504 125.513C119.069 126.828 113.52 133.979 112.084 137.736C110.649 141.493 108.999 152.028 109.824 150.527C110.649 149.026 113.316 141.311 114.752 138.099C116.187 134.887 119.063 133.4 119.476 134.901C119.888 136.402 119.063 137.157 118.035 140.547C117.007 143.936 116.991 152.974 113.932 158.032C110.873 163.089 98.5958 173.911 96.9567 177.668C95.7694 180.256 94.3518 182.75 92.7181 185.125" fill="#11305B"/>
</g>
<g style="mix-blend-mode:multiply">
<path d="M189.773 177.386C189.773 177.386 187.398 174.408 187.398 159.738C187.398 145.068 184.725 134.352 181.442 129.653C178.159 124.954 175.074 123.071 173.638 123.071C172.203 123.071 173.226 124.763 175.282 127.206C177.339 129.648 179.182 130.967 179.98 133.979C180.779 136.99 180.805 140.747 179.777 140.37C178.748 139.992 177.109 132.473 175.669 129.653C174.228 126.833 170.741 123.257 168.689 121.565C166.638 119.873 162.117 114.797 160.061 116.111C158.004 117.426 159.241 119.309 160.473 120.059C161.705 120.81 166.633 125.317 168.893 128.147C171.153 130.977 172.589 138.113 171.357 138.3C170.125 138.486 166.445 127.961 164.393 125.714C162.342 123.468 154.12 117.249 152.273 117.062C150.425 116.876 150.221 119.505 151.865 120.824C153.51 122.144 159.053 127.779 160.901 131.163C162.749 134.548 163.569 140.757 161.945 139.251C160.322 137.745 157.634 131.541 155.378 129.471C153.123 127.402 146.343 120.824 144.698 121.575C143.054 122.325 143.466 124.208 144.902 125.523C146.337 126.837 151.886 133.988 153.322 137.745C154.757 141.503 156.402 152.038 155.582 150.537C154.762 149.036 152.09 141.321 150.654 138.109C149.219 134.897 146.343 133.41 145.93 134.911C145.518 136.412 146.343 137.167 147.366 140.556C148.389 143.945 148.41 152.984 151.474 158.041C154.538 163.099 166.466 172.969 168.11 176.731C169.754 180.493 172.73 186.42 172.73 186.42" fill="#11305B"/>
</g>
<path d="M74.9072 179.728C74.9072 179.728 77.987 170.517 77.987 155.828C77.987 141.139 80.6544 130.441 83.943 125.743C87.2316 121.044 90.3062 119.161 91.7469 119.161C93.1877 119.161 92.1541 120.853 90.1026 123.295C88.0512 125.738 86.2033 127.057 85.3785 130.064C84.5538 133.07 84.559 136.837 85.5874 136.46C86.6157 136.082 88.2548 128.563 89.6903 125.743C91.1258 122.923 94.6232 119.347 96.6746 117.655C98.7261 115.963 103.247 110.886 105.298 112.201C107.35 113.515 106.123 115.399 104.891 116.149C103.659 116.9 98.7261 121.407 96.471 124.237C94.216 127.067 92.7753 134.203 94.0072 134.39C95.2391 134.576 98.9349 124.051 100.986 121.79C103.038 119.529 111.254 113.329 113.102 113.143C114.95 112.956 115.159 115.585 113.514 116.905C111.87 118.224 106.326 123.859 104.479 127.244C102.631 130.628 101.806 136.837 103.435 135.331C105.063 133.826 107.746 127.621 110.007 125.552C112.267 123.482 119.042 116.905 120.687 117.655C122.331 118.405 121.919 120.289 120.483 121.603C119.048 122.918 113.499 130.064 112.063 133.826C110.628 137.588 108.978 148.118 109.803 146.612C110.628 145.107 113.295 137.401 114.731 134.184C116.166 130.967 119.042 129.481 119.455 130.986C119.867 132.492 119.042 133.243 118.014 136.627C116.986 140.011 116.97 149.055 113.911 154.117C110.852 159.179 98.9192 172.921 97.2749 176.683C95.6306 180.445 91.9349 188.719 91.9349 188.719" fill="white"/>
<path d="M74.9072 179.728C74.9072 179.728 77.987 170.517 77.987 155.828C77.987 141.139 80.6544 130.441 83.943 125.743C87.2316 121.044 90.3062 119.161 91.7469 119.161C93.1877 119.161 92.1541 120.853 90.1026 123.295C88.0512 125.738 86.2033 127.057 85.3785 130.064C84.5538 133.07 84.559 136.837 85.5874 136.46C86.6157 136.082 88.2548 128.563 89.6903 125.743C91.1258 122.923 94.6232 119.347 96.6746 117.655C98.7261 115.963 103.247 110.886 105.298 112.201C107.35 113.515 106.123 115.399 104.891 116.149C103.659 116.9 98.7261 121.407 96.471 124.237C94.216 127.067 92.7753 134.203 94.0072 134.39C95.2391 134.576 98.9349 124.051 100.986 121.79C103.038 119.529 111.254 113.329 113.102 113.143C114.95 112.956 115.159 115.585 113.514 116.905C111.87 118.224 106.326 123.859 104.479 127.244C102.631 130.628 101.806 136.837 103.435 135.331C105.063 133.826 107.746 127.621 110.007 125.552C112.267 123.482 119.042 116.905 120.687 117.655C122.331 118.405 121.919 120.289 120.483 121.603C119.048 122.918 113.499 130.064 112.063 133.826C110.628 137.588 108.978 148.118 109.803 146.612C110.628 145.107 113.295 137.401 114.731 134.184C116.166 130.967 119.042 129.481 119.455 130.986C119.867 132.492 119.042 133.243 118.014 136.627C116.986 140.011 116.97 149.055 113.911 154.117C110.852 159.179 98.9192 172.921 97.2749 176.683C95.6306 180.445 91.9349 188.719 91.9349 188.719" stroke="#2E353A" stroke-linecap="round" stroke-linejoin="round"/>
<path d="M190.473 179.728C190.473 179.728 187.393 170.517 187.393 155.828C187.393 141.139 184.72 130.441 181.437 125.743C178.154 121.044 175.069 119.161 173.633 119.161C172.198 119.161 173.221 120.853 175.277 123.295C177.334 125.738 179.177 127.057 179.975 130.064C180.774 133.07 180.8 136.837 179.772 136.46C178.744 136.082 177.104 128.563 175.664 125.743C174.223 122.923 170.736 119.347 168.685 117.655C166.633 115.963 162.113 110.886 160.056 112.201C157.999 113.515 159.236 115.399 160.468 116.149C161.7 116.9 166.628 121.407 168.888 124.237C171.148 127.067 172.584 134.203 171.352 134.39C170.12 134.576 166.424 124.051 164.373 121.79C162.321 119.529 154.1 113.329 152.252 113.143C150.404 112.956 150.201 115.585 151.845 116.905C153.489 118.224 159.033 123.859 160.881 127.244C162.729 130.628 163.548 136.837 161.925 135.331C160.301 133.826 157.613 127.621 155.358 125.552C153.103 123.482 146.322 116.905 144.678 117.655C143.034 118.405 143.446 120.289 144.881 121.603C146.317 122.918 151.866 130.064 153.301 133.826C154.737 137.588 156.381 148.118 155.562 146.612C154.742 145.107 152.069 137.401 150.634 134.184C149.198 130.967 146.322 129.481 145.91 130.986C145.497 132.492 146.322 133.243 147.345 136.627C148.368 140.011 148.389 149.055 151.453 154.117C154.518 159.179 166.445 172.921 168.09 176.683C169.734 180.445 173.43 188.719 173.43 188.719" fill="white"/>
<path d="M190.473 179.728C190.473 179.728 187.393 170.517 187.393 155.828C187.393 141.139 184.72 130.441 181.437 125.743C178.154 121.044 175.069 119.161 173.633 119.161C172.198 119.161 173.221 120.853 175.277 123.295C177.334 125.738 179.177 127.057 179.975 130.064C180.774 133.07 180.8 136.837 179.772 136.46C178.744 136.082 177.104 128.563 175.664 125.743C174.223 122.923 170.736 119.347 168.685 117.655C166.633 115.963 162.113 110.886 160.056 112.201C157.999 113.515 159.236 115.399 160.468 116.149C161.7 116.9 166.628 121.407 168.888 124.237C171.148 127.067 172.584 134.203 171.352 134.39C170.12 134.576 166.424 124.051 164.373 121.79C162.321 119.529 154.1 113.329 152.252 113.143C150.404 112.956 150.201 115.585 151.845 116.905C153.489 118.224 159.033 123.859 160.881 127.244C162.729 130.628 163.548 136.837 161.925 135.331C160.301 133.826 157.613 127.621 155.358 125.552C153.103 123.482 146.322 116.905 144.678 117.655C143.034 118.405 143.446 120.289 144.881 121.603C146.317 122.918 151.866 130.064 153.301 133.826C154.737 137.588 156.381 148.118 155.562 146.612C154.742 145.107 152.069 137.401 150.634 134.184C149.198 130.967 146.322 129.481 145.91 130.986C145.497 132.492 146.322 133.243 147.345 136.627C148.368 140.011 148.389 149.055 151.453 154.117C154.518 159.179 166.445 172.921 168.09 176.683C169.734 180.445 173.43 188.719 173.43 188.719" stroke="#2E353A" stroke-linecap="round" stroke-linejoin="round"/>
<path d="M61.9092 208.408H93.2292C93.6363 206.974 94.1479 205.368 94.7952 203.628C97.259 196.869 105.235 188.418 105.235 188.418C99.5186 183.808 92.8011 180.357 85.5245 178.294C73.5185 174.91 64.728 175.904 64.728 175.904C66.3462 182.014 66.5241 188.369 65.25 194.546C63.684 201.506 62.64 205.908 61.9092 208.408Z" fill="#2E353A" stroke="#2E353A" stroke-linecap="round" stroke-linejoin="round"/>
<path d="M171.947 208.408H204.488C203.444 205.932 201.189 200.554 198.934 195.177C195.854 187.854 197.086 177.998 195.854 177.998C194.622 177.998 180.784 177.152 174.019 179.121C167.254 181.09 159.56 186.726 159.56 186.726C163.043 190.432 166.037 194.501 168.481 198.848C170.051 201.895 171.215 205.105 171.947 208.408Z" fill="#2E353A" stroke="#2E353A" stroke-linecap="round" stroke-linejoin="round"/>
<path d="M81.4738 181.736C81.2494 180.923 77.9086 182.147 77.9086 182.147C77.9086 182.147 79.0257 178.275 77.2456 178.275C75.4656 178.275 75.2412 181.143 75.2412 181.143C75.2412 181.143 71.9004 179.924 71.9004 181.755C71.9004 183.585 74.1241 183.552 74.1241 183.552C74.1241 183.552 71.4514 186.611 73.4559 187.218C75.4604 187.825 76.7915 185.588 76.7915 185.588C76.7915 185.588 78.1278 187.629 79.9235 186.812C81.7192 185.995 80.3672 184.164 80.3672 184.164C80.3672 184.164 81.6931 182.553 81.4738 181.736ZM77.0212 184.795C76.8532 184.761 76.6991 184.684 76.5768 184.573C76.4545 184.462 76.3689 184.322 76.3298 184.168C76.2908 184.014 76.2999 183.854 76.3561 183.705C76.4124 183.556 76.5134 183.425 76.6477 183.326C76.7819 183.227 76.9438 183.165 77.1148 183.147C77.2858 183.129 77.4589 183.156 77.6141 183.224C77.7694 183.292 77.9004 183.399 77.9923 183.532C78.0841 183.665 78.1329 183.82 78.133 183.977C78.0954 184.217 77.9596 184.435 77.7532 184.587C77.5468 184.739 77.2851 184.813 77.0212 184.795ZM86.3702 204.584C86.1457 203.771 82.8049 204.995 82.8049 204.995C82.8049 204.995 83.922 201.123 82.1368 201.123C80.3515 201.123 80.1375 203.991 80.1375 203.991C80.1375 203.991 76.7967 202.768 76.7967 204.598C76.7967 206.429 79.0257 206.434 79.0257 206.434C79.0257 206.434 76.353 209.493 78.3575 210.105C80.362 210.717 81.6931 208.47 81.6931 208.47C81.6931 208.47 83.0294 210.511 84.8251 209.694C86.6208 208.876 85.2688 207.046 85.2688 207.046C85.2688 207.046 86.5894 205.378 86.3702 204.584ZM81.9175 207.643C81.7495 207.609 81.5955 207.532 81.4732 207.421C81.3508 207.31 81.2652 207.17 81.2262 207.016C81.1872 206.863 81.1963 206.702 81.2525 206.553C81.3087 206.404 81.4098 206.273 81.544 206.174C81.6782 206.076 81.8402 206.014 82.0112 205.996C82.1822 205.978 82.3553 206.004 82.5105 206.072C82.6657 206.14 82.7968 206.247 82.8886 206.381C82.9804 206.514 83.0292 206.668 83.0294 206.826C82.9917 207.064 82.855 207.279 82.6477 207.427C82.4405 207.575 82.1789 207.644 81.9175 207.619V207.643ZM66.7795 207.643C66.5551 206.826 63.2195 208.05 63.2195 208.05C63.2195 208.05 64.3314 204.178 62.5513 204.178C60.7713 204.178 60.5469 207.046 60.5469 207.046C60.5469 207.046 57.2061 205.822 57.2061 207.658C57.2061 209.493 59.435 209.493 59.435 209.493C59.435 209.493 56.7624 212.548 58.7668 213.159C60.7713 213.771 62.1024 211.529 62.1024 211.529C62.1024 211.529 63.4387 213.566 65.2344 212.753C67.0301 211.94 65.6833 210.105 65.6833 210.105C65.6833 210.105 67.004 208.432 66.7848 207.619L66.7795 207.643ZM62.3269 210.698C62.1586 210.663 62.0044 210.586 61.882 210.475C61.7597 210.364 61.6741 210.223 61.6353 210.07C61.5964 209.916 61.6059 209.755 61.6625 209.606C61.7192 209.457 61.8207 209.326 61.9554 209.227C62.0901 209.129 62.2525 209.067 62.4238 209.05C62.595 209.032 62.7683 209.059 62.9234 209.128C63.0785 209.197 63.2092 209.305 63.3004 209.438C63.3916 209.572 63.4395 209.727 63.4387 209.885C63.3999 210.121 63.2633 210.335 63.0574 210.482C62.8514 210.629 62.5918 210.697 62.3321 210.674L62.3269 210.698ZM91.0369 191.745H93.4851C95.2651 191.745 96.3769 193.58 96.3769 193.58C92.5977 194.575 91.0421 191.721 91.0421 191.721L91.0369 191.745ZM88.5887 207.643H91.0369C92.8169 207.643 93.9288 209.479 93.9288 209.479C90.1495 210.473 88.5939 207.619 88.5939 207.619L88.5887 207.643ZM67.2285 204.584H69.6766C71.4567 204.584 72.5685 206.42 72.5685 206.42C68.784 207.414 67.2285 204.584 67.2285 204.584ZM79.0622 190.201L80.4925 192.022C81.5365 193.351 80.5499 195.244 80.5499 195.244C77.4388 193.002 79.0622 190.177 79.0622 190.177V190.201ZM66.8161 196.291L67.9332 194.297C68.7527 192.863 71.0391 192.777 71.0391 192.777C70.2717 196.324 66.8161 196.291 66.8161 196.291Z" fill="white"/>
<path d="M186.297 185.607C186.073 184.795 182.732 186.019 182.732 186.019C182.732 186.019 183.849 182.147 182.069 182.147C180.289 182.147 180.064 185.015 180.064 185.015C180.064 185.015 176.724 183.796 176.724 185.627C176.724 187.457 178.953 187.462 178.953 187.462C178.953 187.462 176.28 190.521 178.284 191.133C180.289 191.745 181.62 189.498 181.62 189.498C181.62 189.498 182.956 191.539 184.752 190.722C186.548 189.905 185.196 188.074 185.196 188.074C185.196 188.074 186.516 186.42 186.297 185.607ZM181.844 188.667C181.676 188.632 181.522 188.555 181.4 188.445C181.278 188.334 181.192 188.193 181.153 188.04C181.114 187.886 181.123 187.726 181.179 187.577C181.236 187.428 181.337 187.296 181.471 187.198C181.605 187.099 181.767 187.037 181.938 187.019C182.109 187.001 182.282 187.028 182.437 187.096C182.593 187.164 182.724 187.271 182.815 187.404C182.907 187.537 182.956 187.692 182.956 187.849C182.925 188.092 182.791 188.313 182.583 188.466C182.375 188.619 182.11 188.691 181.844 188.667ZM196.753 201.506C196.534 200.688 193.193 201.912 193.193 201.912C193.193 201.912 194.305 198.04 192.525 198.04C190.745 198.04 190.525 200.908 190.525 200.908C190.525 200.908 187.184 199.685 187.184 201.52C187.184 203.356 189.408 203.356 189.408 203.356C189.408 203.356 186.741 206.41 188.745 207.022C190.75 207.634 192.081 205.392 192.081 205.392C192.081 205.392 193.417 207.428 195.213 206.616C197.009 205.803 195.657 203.967 195.657 203.967C195.657 203.967 196.977 202.318 196.753 201.506ZM192.305 204.584C192.137 204.55 191.983 204.473 191.86 204.362C191.738 204.25 191.653 204.11 191.614 203.956C191.575 203.802 191.584 203.642 191.641 203.493C191.698 203.343 191.799 203.212 191.934 203.114C192.069 203.015 192.231 202.954 192.402 202.936C192.573 202.919 192.747 202.946 192.902 203.015C193.057 203.083 193.188 203.191 193.279 203.325C193.37 203.459 193.418 203.614 193.417 203.771C193.384 204.013 193.25 204.233 193.042 204.385C192.834 204.537 192.57 204.608 192.305 204.584ZM185.629 207.643C185.404 206.826 182.069 208.05 182.069 208.05C182.069 208.05 183.181 204.178 181.401 204.178C179.621 204.178 179.396 207.046 179.396 207.046C179.396 207.046 176.055 205.822 176.055 207.658C176.055 209.493 178.284 209.493 178.284 209.493C178.284 209.493 175.612 212.548 177.616 213.159C179.621 213.771 180.952 211.529 180.952 211.529C180.952 211.529 182.288 213.566 184.084 212.753C185.879 211.94 184.533 210.105 184.533 210.105C184.533 210.105 185.832 208.432 185.629 207.619V207.643ZM181.176 210.698C181.008 210.663 180.854 210.586 180.731 210.475C180.609 210.364 180.523 210.223 180.485 210.07C180.446 209.916 180.455 209.755 180.512 209.606C180.569 209.457 180.67 209.326 180.805 209.227C180.939 209.129 181.102 209.067 181.273 209.05C181.444 209.032 181.618 209.059 181.773 209.128C181.928 209.197 182.059 209.305 182.15 209.439C182.241 209.572 182.289 209.727 182.288 209.885C182.249 210.122 182.112 210.337 181.905 210.484C181.698 210.63 181.437 210.699 181.176 210.674V210.698ZM195.865 195.617H198.314C200.094 195.617 201.205 197.452 201.205 197.452C197.421 198.447 195.865 195.593 195.865 195.593V195.617ZM169.604 207.213H172.052C173.832 207.213 174.944 209.044 174.944 209.044C171.159 210.067 169.604 207.213 169.604 207.213ZM183.885 194.068L185.316 195.889C186.36 197.218 185.373 199.111 185.373 199.111C182.262 196.874 183.885 194.068 183.885 194.068ZM198.36 205.464L199.786 207.285C200.83 208.609 199.843 210.506 199.843 210.506C196.732 208.284 198.36 205.464 198.36 205.464ZM171.618 200.163L172.736 198.169C173.555 196.735 175.868 196.649 175.868 196.649C175.095 200.196 171.613 200.163 171.613 200.163H171.618Z" fill="white"/>
</svg>
