<svg width="290" height="193" viewBox="0 0 290 193" fill="none" xmlns="http://www.w3.org/2000/svg">
<path d="M210.996 22.0716C210.996 22.0716 33.8988 58.8921 26.2582 76.8141C22.3529 85.97 26.2582 165.374 52.509 167.034C71.5949 168.238 200.216 177.742 262.829 162.402C281.775 157.77 256.518 53.2758 246.882 40.009C237.247 26.7422 222.627 19.4198 210.996 22.0716Z" fill="#11305B"/>
<path opacity="0.7" d="M210.996 22.0716C210.996 22.0716 33.8988 58.8921 26.2582 76.8141C22.3529 85.97 26.2582 165.374 52.509 167.034C71.5949 168.238 200.216 177.742 262.829 162.402C281.775 157.77 256.518 53.2758 246.882 40.009C237.247 26.7422 222.627 19.4198 210.996 22.0716Z" fill="white"/>
<path d="M36.3463 110.099C36.3518 110.093 36.3548 110.085 36.3548 110.077C36.3548 110.07 36.3518 110.062 36.3463 110.056C36.3399 110.051 36.3317 110.047 36.3231 110.047C36.3146 110.047 36.3063 110.051 36.2999 110.056C35.3205 112.393 34.5443 114.809 33.9799 117.278C33.4136 119.747 32.9876 122.246 32.7039 124.763L32.5261 126.654C32.499 126.971 32.4642 127.287 32.441 127.604L32.3869 128.553C32.3598 129.186 32.3211 129.819 32.3057 130.452V132.352L32.3289 133.305C32.3289 133.622 32.3637 133.934 32.3869 134.251C32.4333 134.884 32.4719 135.517 32.5299 136.146C32.6537 137.408 32.8431 138.663 33.0365 139.909C33.0382 139.917 33.0427 139.924 33.049 139.929C33.0554 139.934 33.0632 139.937 33.0713 139.936C33.0792 139.936 33.0866 139.932 33.0922 139.926C33.0978 139.921 33.1014 139.913 33.1022 139.906C33.1022 139.273 33.0713 138.643 33.0597 138.01C33.0481 137.377 32.9862 136.752 32.9939 136.123C33.0017 135.494 32.9939 134.864 32.9939 134.235V133.293V132.352V130.468L33.0442 128.584V127.642C33.0442 127.33 33.079 127.013 33.0983 126.701L33.2143 124.821C33.4288 122.313 33.7851 119.819 34.2815 117.352C34.7603 114.879 35.4511 112.453 36.3463 110.099Z" fill="#263238"/>
<path d="M36.5977 119.953C36.6003 119.945 36.5998 119.936 36.5962 119.928C36.5926 119.92 36.5863 119.914 36.5783 119.911C36.5743 119.909 36.5699 119.908 36.5655 119.908C36.5611 119.908 36.5567 119.909 36.5527 119.911C36.5486 119.913 36.545 119.915 36.5421 119.919C36.5392 119.922 36.5371 119.926 36.5358 119.93C35.9973 121.499 35.5468 123.097 35.1863 124.716C34.8394 126.34 34.5812 127.982 34.413 129.634C34.2467 131.282 34.0611 132.934 34.0263 134.59C33.9851 136.25 34.0445 137.91 34.2042 139.562C34.2042 139.562 34.2042 139.589 34.2351 139.593C34.2437 139.593 34.2521 139.59 34.2585 139.584C34.2649 139.578 34.269 139.571 34.2699 139.562C34.4633 137.914 34.5793 136.266 34.6953 134.621C34.8113 132.977 34.8267 131.325 34.935 129.68C35.0379 128.038 35.2341 126.402 35.5228 124.782C35.792 123.154 36.1508 121.542 36.5977 119.953Z" fill="#263238"/>
<path d="M42.0693 123.42C42.0664 123.416 42.0628 123.414 42.0588 123.412C42.0548 123.41 42.0505 123.409 42.0461 123.409C42.0417 123.409 42.0373 123.41 42.0333 123.412C42.0293 123.414 42.0258 123.416 42.0229 123.42C40.6547 124.299 39.4224 125.373 38.365 126.608C37.8322 127.227 37.3535 127.891 36.9343 128.592L36.6405 129.148L36.4123 129.696C36.3321 129.885 36.2649 130.08 36.2113 130.279C36.1494 130.476 36.0837 130.665 36.0334 130.869C35.6073 132.444 35.3481 134.058 35.2601 135.687C35.1794 137.306 35.2403 138.93 35.4418 140.539C35.4428 140.546 35.4464 140.553 35.4521 140.558C35.4578 140.563 35.4652 140.566 35.4727 140.566C35.4771 140.566 35.4816 140.566 35.4858 140.565C35.49 140.563 35.4939 140.561 35.4972 140.558C35.5005 140.555 35.5031 140.552 35.5049 140.548C35.5067 140.544 35.5076 140.539 35.5075 140.535L35.9599 135.745C36.0741 134.156 36.2768 132.575 36.567 131.008C36.6134 130.815 36.6675 130.622 36.7178 130.433C36.7632 130.243 36.8187 130.054 36.8841 129.87L37.0813 129.314L37.3326 128.789C37.7132 128.091 38.1517 127.426 38.6434 126.801C39.6198 125.529 40.7765 124.405 42.077 123.466C42.0799 123.463 42.082 123.459 42.0832 123.454C42.0843 123.45 42.0846 123.445 42.0838 123.441C42.0831 123.437 42.0814 123.432 42.0789 123.429C42.0764 123.425 42.0731 123.422 42.0693 123.42Z" fill="#263238"/>
<path d="M39.4401 129.588C38.7286 130.107 38.1574 130.794 37.7774 131.587C37.3768 132.365 37.0642 133.184 36.8455 134.031C36.7798 134.239 36.7295 134.451 36.6831 134.668L36.5323 135.305C36.4511 135.733 36.3969 136.166 36.3699 136.602C36.3699 137.038 36.3506 137.474 36.3699 137.906C36.4014 138.341 36.4582 138.774 36.5401 139.203C36.5409 139.21 36.544 139.216 36.5489 139.221C36.5538 139.226 36.5602 139.229 36.5671 139.23C36.5717 139.231 36.5765 139.231 36.5811 139.231C36.5858 139.23 36.5902 139.228 36.5942 139.226C36.5982 139.223 36.6016 139.22 36.6042 139.216C36.6069 139.212 36.6087 139.208 36.6097 139.203C36.7093 138.783 36.7855 138.358 36.8378 137.929C36.9074 137.505 36.9731 137.084 37.0234 136.663C37.0737 136.243 37.1394 135.83 37.1742 135.405C37.209 134.98 37.2631 134.563 37.3521 134.15C37.5006 133.32 37.7405 132.508 38.0674 131.73C38.3612 130.935 38.8396 130.221 39.4633 129.646C39.4687 129.64 39.4717 129.632 39.4717 129.625C39.4717 129.617 39.4687 129.609 39.4633 129.603C39.4607 129.599 39.4573 129.596 39.4533 129.593C39.4493 129.591 39.4448 129.589 39.4401 129.588Z" fill="#263238"/>
<path d="M31.749 134.401C31.5673 132.267 31.2154 130.155 30.8829 128.048C30.5503 125.94 30.1791 123.832 29.7925 121.733C29.4058 119.633 28.9766 117.541 28.5203 115.456C28.5199 115.452 28.5185 115.447 28.5163 115.444C28.514 115.44 28.511 115.436 28.5073 115.434C28.5036 115.431 28.4994 115.429 28.495 115.429C28.4906 115.428 28.486 115.428 28.4817 115.429C28.4739 115.432 28.4672 115.437 28.463 115.444C28.4587 115.451 28.4571 115.46 28.4585 115.468C28.8219 117.57 29.1571 119.677 29.4638 121.787C29.7847 123.898 30.0863 126.01 30.3531 128.121C30.6199 130.232 30.821 132.367 31.0839 134.471L31.8573 140.816C31.8582 140.825 31.8623 140.833 31.8687 140.839C31.8752 140.844 31.8835 140.847 31.8921 140.847C31.9007 140.847 31.909 140.844 31.9154 140.839C31.9218 140.833 31.9259 140.825 31.9269 140.816C31.9501 140.28 31.9501 139.747 31.9617 139.211C31.9733 138.674 31.9423 138.141 31.9307 137.605C31.9191 136.532 31.8302 135.486 31.749 134.401Z" fill="#263238"/>
<path d="M30.4693 134.37C30.3534 133.525 30.1987 132.687 30.0363 131.85L29.7347 130.603C29.638 130.19 29.5452 129.773 29.4253 129.364C28.9973 127.711 28.4507 126.091 27.7897 124.516L27.5345 123.929L27.2484 123.354C27.0705 122.968 26.8617 122.582 26.6413 122.227C26.2201 121.48 25.6998 120.793 25.0947 120.185C25.0883 120.179 25.08 120.176 25.0715 120.176C25.0629 120.176 25.0547 120.179 25.0483 120.185C25.0443 120.187 25.041 120.191 25.0387 120.195C25.0364 120.199 25.0352 120.203 25.0352 120.208C25.0352 120.213 25.0364 120.217 25.0387 120.221C25.041 120.225 25.0443 120.229 25.0483 120.231C25.6095 120.862 26.0842 121.564 26.4596 122.319C26.6452 122.705 26.8463 123.091 27.0009 123.477L27.2523 124.056L27.4727 124.651C28.0649 126.231 28.5405 127.853 28.8956 129.503C29.0928 130.321 29.2204 131.159 29.379 131.985L29.58 133.236C29.6535 133.649 29.7424 134.062 29.8004 134.482C29.9319 135.316 30.0865 136.146 30.2335 136.98C30.3804 137.813 30.5157 138.651 30.6936 139.489C30.6946 139.496 30.6982 139.503 30.7039 139.508C30.7096 139.513 30.717 139.516 30.7245 139.516C30.7338 139.516 30.7426 139.512 30.7492 139.506C30.7557 139.499 30.7593 139.49 30.7593 139.481C30.7593 138.632 30.7387 137.78 30.6975 136.926C30.6588 136.065 30.5467 135.22 30.4693 134.37Z" fill="#263238"/>
<path d="M28.6985 134.478C28.3118 133.359 27.8478 132.267 27.349 131.19C26.8432 130.12 26.2751 129.082 25.6477 128.079C25.641 128.074 25.6329 128.071 25.6245 128.071C25.6161 128.071 25.608 128.074 25.6013 128.079C25.598 128.081 25.5954 128.085 25.5936 128.089C25.5918 128.093 25.5908 128.097 25.5908 128.102C25.5908 128.106 25.5918 128.11 25.5936 128.114C25.5954 128.118 25.598 128.122 25.6013 128.125C26.1504 129.165 26.6346 130.237 27.0513 131.336C27.4882 132.425 27.8788 133.533 28.2113 134.656C28.5438 135.779 28.7874 136.926 29.0852 138.053C29.3829 139.18 29.6536 140.319 30.0016 141.461C30.0038 141.468 30.008 141.473 30.0135 141.477C30.019 141.482 30.0256 141.484 30.0325 141.484C30.0411 141.484 30.0494 141.481 30.0558 141.476C30.0623 141.47 30.0663 141.462 30.0673 141.453C30.0805 140.261 29.9691 139.071 29.7348 137.902C29.4828 136.735 29.1362 135.59 28.6985 134.478Z" fill="#263238"/>
<path d="M28.6134 138.207C28.3998 137.516 28.0873 136.86 27.6854 136.258C27.3094 135.632 26.8488 135.06 26.3166 134.56C26.0473 134.315 25.756 134.095 25.4466 133.903C25.1435 133.704 24.8107 133.554 24.4606 133.459C24.4551 133.455 24.4483 133.453 24.4413 133.453C24.4343 133.453 24.4274 133.455 24.4219 133.459C24.4162 133.466 24.4131 133.474 24.4131 133.483C24.4131 133.491 24.4162 133.499 24.4219 133.506C25.0524 133.808 25.6112 134.241 26.0614 134.776C26.5237 135.296 26.9139 135.877 27.2214 136.501C27.5462 137.115 27.7125 137.79 27.9947 138.431C28.1185 138.751 28.2422 139.08 28.3814 139.4C28.5041 139.738 28.6474 140.068 28.8106 140.388C28.8128 140.394 28.8165 140.398 28.8213 140.402C28.8261 140.405 28.8318 140.407 28.8377 140.407C28.8469 140.407 28.8558 140.404 28.8623 140.397C28.8688 140.391 28.8725 140.382 28.8725 140.373C28.8847 140.009 28.8718 139.646 28.8338 139.284C28.7874 138.914 28.7139 138.574 28.6134 138.207Z" fill="#263238"/>
<path d="M28.7601 118.502C27.6925 118.205 26.7267 117.622 25.9668 116.816C25.207 116.011 24.682 115.013 24.4487 113.932C23.6445 110.168 26.2467 111.782 23.9113 105.868C21.5758 99.9547 22.1171 98.6114 22.9253 96.9091C23.7334 95.2069 24.1819 95.7511 24.9011 97.9822C25.6203 100.213 28.2187 103.718 29.2086 110.257C30.1985 116.796 28.7601 118.502 28.7601 118.502Z" fill="#11305B"/>
<path d="M35.67 112.148C35.67 112.148 33.35 111.342 33.2456 106.953C33.1412 102.564 34.9508 103.456 35.2214 97.9899C35.4921 92.5241 35.8478 88.6757 36.8377 88.583C37.8276 88.4904 40.426 91.285 41.323 97.3645C42.2201 103.444 40.163 107.489 38.3612 109.28C36.5593 111.071 35.67 112.148 35.67 112.148Z" fill="#11305B"/>
<path d="M27.5037 123.794C27.5037 123.794 26.9624 120.571 25.8874 119.046C24.8125 117.522 22.4771 116.186 20.9497 113.221C19.4224 110.257 17.7211 108.833 17.81 113.044C17.8989 117.255 19.7859 119.405 22.1175 120.837C24.4491 122.269 27.5037 123.794 27.5037 123.794Z" fill="#11305B"/>
<path d="M26.5136 129.349C26.5136 129.349 24.3599 125.23 21.2202 122.181C18.0804 119.131 15.5671 117.614 16.4642 119.135C17.3612 120.656 18.4362 120.571 19.9635 123.257C21.4908 125.944 21.0384 127.917 23.196 129.433C25.3536 130.95 26.5136 129.349 26.5136 129.349Z" fill="#11305B"/>
<path d="M26.2471 134.637C26.1543 134.366 26.0654 132.394 23.0146 130.777C19.9638 129.159 17.0909 129.788 17.4505 130.595C17.8101 131.402 19.6931 132.745 21.5801 133.552C23.467 134.359 26.2471 134.637 26.2471 134.637Z" fill="#11305B"/>
<path d="M35.4883 123.975C35.4883 123.975 34.1427 122.273 34.8619 118.687C35.5811 115.101 37.1819 115.985 38.9915 114.117C40.8011 112.249 40.426 111.967 42.2202 109.998C44.0143 108.03 45.6306 106.953 46.3498 107.756C47.069 108.559 45.9902 111.072 44.9114 112.507C43.8326 113.943 42.1467 114.642 41.3231 116.448C40.4995 118.255 40.8746 121.108 38.8098 122.451C36.745 123.794 35.4883 123.975 35.4883 123.975Z" fill="#11305B"/>
<path d="M39.9775 124.96C39.9775 124.96 43.2062 121.285 45.5417 118.598C47.8771 115.912 48.7742 113.851 48.8631 115.642C48.9521 117.433 49.6713 118.869 47.7843 121.196C45.8974 123.524 39.9775 124.96 39.9775 124.96Z" fill="#11305B"/>
<path d="M38.2794 130.873C38.2794 130.873 38.1905 129.437 43.3061 126.125C48.4217 122.813 50.5754 122.18 50.0341 123.524C49.4927 124.867 47.2539 126.226 44.8295 128.63C42.4051 131.035 38.2794 130.873 38.2794 130.873Z" fill="#11305B"/>
<path d="M28.9732 118.116C28.9732 118.116 27.7707 111.689 26.514 107.119C25.2574 102.548 24.4492 99.7847 24.4492 99.7847" stroke="#263238" stroke-linecap="round" stroke-linejoin="round"/>
<path d="M35.4609 112.214C35.4609 112.214 37.6417 105.266 38.3609 101.039C39.0801 96.8126 38.272 93.7053 37.9124 91.8101" stroke="#263238" stroke-linecap="round" stroke-linejoin="round"/>
<path d="M27.217 123.659C26.2519 122 25.1458 120.427 23.911 118.957C21.939 116.641 20.4117 115.371 19.5146 113.133" stroke="#263238" stroke-linecap="round" stroke-linejoin="round"/>
<path d="M35.4883 123.975C35.4883 123.975 36.2075 119.672 37.9127 117.433C39.6179 115.194 43.0283 111.701 44.3739 109.458" stroke="#263238" stroke-linecap="round" stroke-linejoin="round"/>
<path d="M26.034 134.536C26.034 134.536 23.0141 132.575 20.8604 131.499" stroke="#263238" stroke-linecap="round" stroke-linejoin="round"/>
<path d="M43.3262 152.597C43.1252 147.158 37.0738 143.534 37.0738 143.534H27.7938C27.7938 143.534 21.7425 147.158 21.5376 152.597C21.3326 158.036 28.397 177.965 28.397 177.965H36.4706C36.4706 177.965 43.5273 158.032 43.3262 152.597Z" fill="#263238" stroke="#263238" stroke-linecap="round" stroke-linejoin="round"/>
<path d="M38.2685 138.188H26.4326L27.8014 143.534H36.9036L38.2685 138.188Z" fill="#263238" stroke="#263238" stroke-linecap="round" stroke-linejoin="round"/>
<path d="M228.701 46.7485C228.701 46.7485 228.516 47.0303 228.156 47.5205" stroke="#263238" stroke-linecap="round" stroke-linejoin="round"/>
<path d="M227.004 49.107C222.283 55.3177 208.022 71.7536 188.438 73.1509C164.24 74.8841 141.199 36.6353 117.005 25.4182C93.2558 14.4133 62.8715 18.64 36.6787 40.5494" stroke="#263238" stroke-linecap="round" stroke-linejoin="round" stroke-dasharray="5.03 5.03"/>
<path d="M35.9328 41.1785L35.1865 41.8115" stroke="#263238" stroke-linecap="round" stroke-linejoin="round"/>
<path d="M238.241 32.6865L219.967 39.3219L227.94 42.3056L238.241 32.6865Z" fill="white" stroke="#263238" stroke-linecap="round" stroke-linejoin="round"/>
<path d="M227.939 42.3056L228.701 46.7485L230.062 43.0082L238.24 32.6865L227.939 42.3056Z" fill="white" stroke="#263238" stroke-linecap="round" stroke-linejoin="round"/>
<path d="M228.701 46.7485L238.24 32.6865L230.062 43.0082L228.701 46.7485Z" fill="white" stroke="#263238" stroke-linecap="round" stroke-linejoin="round"/>
<path d="M238.241 32.6865L230.062 43.0082L237.552 46.405L238.241 32.6865Z" fill="white" stroke="#263238" stroke-linecap="round" stroke-linejoin="round"/>
<path d="M38.748 79.1995C38.748 79.1995 49.0256 110.157 73.0995 128.052C97.1734 145.947 156.531 154.84 183.501 144.364C210.471 133.888 249.729 119.961 269.089 127.994C288.45 136.026 284.03 151.308 275.233 156.492C266.437 161.676 261.855 163.127 234.564 150.119C207.273 137.111 174.576 113.341 174.576 113.341" stroke="#263238" stroke-linecap="round" stroke-linejoin="round" stroke-dasharray="5 5"/>
<path d="M31.2266 61.2891L48.093 70.9506L39.7216 72.5294L31.2266 61.2891Z" fill="white" stroke="#263238" stroke-linecap="round" stroke-linejoin="round"/>
<path d="M39.7216 72.5294L38.2136 76.7754L37.5138 72.8575L31.2266 61.2891L39.7216 72.5294Z" fill="white" stroke="#263238" stroke-linecap="round" stroke-linejoin="round"/>
<path d="M38.2136 76.7754L31.2266 61.2891L37.5138 72.8575L38.2136 76.7754Z" fill="white" stroke="#263238" stroke-linecap="round" stroke-linejoin="round"/>
<path d="M31.227 61.2891L37.5142 72.8575L29.5527 74.9264L31.227 61.2891Z" fill="white" stroke="#263238" stroke-linecap="round" stroke-linejoin="round"/>
<g opacity="0.3">
<path d="M172.491 25.364L173.234 27.6453H175.639L173.694 29.058L174.436 31.3393L172.491 29.9265L170.546 31.3393L171.289 29.058L169.348 27.6453H171.749L172.491 25.364Z" stroke="#263238" stroke-linecap="round" stroke-linejoin="round"/>
<path d="M180.851 25.364L181.593 27.6453H183.994L182.049 29.058L182.796 31.3393L180.851 29.9265L178.906 31.3393L179.648 29.058L177.703 27.6453H180.108L180.851 25.364Z" stroke="#263238" stroke-linecap="round" stroke-linejoin="round"/>
<path d="M189.207 25.364L189.953 27.6453H192.355L190.41 29.058L191.152 31.3393L189.207 29.9265L187.266 31.3393L188.008 29.058L186.063 27.6453H188.469L189.207 25.364Z" stroke="#263238" stroke-linecap="round" stroke-linejoin="round"/>
<path d="M197.566 25.364L198.309 27.6453H200.714L198.769 29.058L199.511 31.3393L197.566 29.9265L195.625 31.3393L196.368 29.058L194.423 27.6453H196.824L197.566 25.364Z" stroke="#263238" stroke-linecap="round" stroke-linejoin="round"/>
<path d="M205.927 25.364L206.669 27.6453H209.074L207.129 29.058L207.872 31.3393L205.927 29.9265L203.982 31.3393L204.724 29.058L202.779 27.6453H205.184L205.927 25.364Z" stroke="#263238" stroke-linecap="round" stroke-linejoin="round"/>
</g>
<g opacity="0.3">
<path d="M169.901 158.326L170.644 160.607H173.045L171.1 162.02L171.842 164.301L169.901 162.892L167.956 164.301L168.699 162.02L166.754 160.607H169.159L169.901 158.326Z" stroke="#263238" stroke-linecap="round" stroke-linejoin="round"/>
<path d="M178.257 158.326L178.999 160.607H181.404L179.459 162.02L180.202 164.301L178.257 162.892L176.316 164.301L177.058 162.02L175.113 160.607H177.514L178.257 158.326Z" stroke="#263238" stroke-linecap="round" stroke-linejoin="round"/>
<path d="M186.617 158.326L187.36 160.607H189.765L187.82 162.02L188.562 164.301L186.617 162.892L184.672 164.301L185.415 162.02L183.474 160.607H185.875L186.617 158.326Z" stroke="#263238" stroke-linecap="round" stroke-linejoin="round"/>
<path d="M194.977 158.326L195.719 160.607H198.12L196.179 162.02L196.918 164.301L194.977 162.892L193.032 164.301L193.774 162.02L191.829 160.607H194.234L194.977 158.326Z" stroke="#263238" stroke-linecap="round" stroke-linejoin="round"/>
<path d="M203.337 158.326L204.075 160.607H206.481L204.536 162.02L205.278 164.301L203.337 162.892L201.392 164.301L202.134 162.02L200.189 160.607H202.591L203.337 158.326Z" stroke="#263238" stroke-linecap="round" stroke-linejoin="round"/>
</g>
<g opacity="0.3">
<path d="M27.6348 50.2764L28.3772 52.5576H30.7784L28.8373 53.9665L29.5797 56.2478L27.6348 54.8389L25.6898 56.2478L26.4322 53.9665L24.4873 52.5576H26.8924L27.6348 50.2764Z" stroke="#263238" stroke-linecap="round" stroke-linejoin="round"/>
<path d="M35.9941 50.2764L36.7365 52.5576H39.1377L37.1928 53.9665L37.9352 56.2478L35.9941 54.8389L34.0492 56.2478L34.7916 53.9665L32.8467 52.5576H35.2517L35.9941 50.2764Z" stroke="#263238" stroke-linecap="round" stroke-linejoin="round"/>
<path d="M44.3506 50.2764L45.093 52.5576H47.4981L45.5532 53.9665L46.2956 56.2478L44.3506 54.8389L42.4096 56.2478L43.152 53.9665L41.207 52.5576H43.6082L44.3506 50.2764Z" stroke="#263238" stroke-linecap="round" stroke-linejoin="round"/>
<path d="M52.71 50.2764L53.4524 52.5576H55.8575L53.9125 53.9665L54.6549 56.2478L52.71 54.8389L50.7651 56.2478L51.5075 53.9665L49.5664 52.5576H51.9676L52.71 50.2764Z" stroke="#263238" stroke-linecap="round" stroke-linejoin="round"/>
<path d="M61.0703 50.2764L61.8127 52.5576H64.2139L62.269 53.9665L63.0153 56.2478L61.0703 54.8389L59.1254 56.2478L59.8678 53.9665L57.9229 52.5576H60.3279L61.0703 50.2764Z" stroke="#263238" stroke-linecap="round" stroke-linejoin="round"/>
</g>
<path d="M146.987 149.112V169.068C146.991 169.625 146.884 170.177 146.673 170.692C146.462 171.207 146.151 171.675 145.758 172.07C145.365 172.465 144.897 172.778 144.382 172.991C143.867 173.205 143.315 173.315 142.757 173.314H109.04C108.48 173.318 107.926 173.21 107.408 172.998C106.89 172.786 106.42 172.473 106.024 172.078C105.629 171.683 105.316 171.214 105.103 170.697C104.891 170.18 104.783 169.627 104.787 169.068V149.112H98.6348V169.84C98.6348 171.302 99.2165 172.704 100.252 173.738C101.288 174.771 102.692 175.352 104.156 175.352H147.625C148.351 175.353 149.069 175.21 149.74 174.934C150.41 174.657 151.019 174.251 151.532 173.739C152.045 173.227 152.452 172.619 152.73 171.95C153.008 171.281 153.151 170.564 153.151 169.84V149.112H146.987Z" fill="#263238" stroke="#263238" stroke-linecap="round" stroke-linejoin="round"/>
<path d="M152.138 149.112V169.068C152.141 169.625 152.035 170.177 151.823 170.692C151.612 171.207 151.301 171.675 150.908 172.07C150.515 172.465 150.047 172.778 149.532 172.991C149.017 173.205 148.465 173.315 147.908 173.314H110.2C109.64 173.318 109.086 173.21 108.568 172.998C108.05 172.786 107.58 172.473 107.184 172.078C106.789 171.683 106.475 171.214 106.263 170.697C106.051 170.18 105.943 169.627 105.947 169.068V149.112H103.777V169.84C103.777 171.302 104.359 172.704 105.395 173.738C106.43 174.771 107.835 175.352 109.299 175.352H148.781C149.507 175.353 150.225 175.21 150.896 174.934C151.566 174.657 152.175 174.251 152.688 173.739C153.201 173.227 153.609 172.619 153.886 171.95C154.164 171.281 154.307 170.564 154.307 169.84V149.112H152.138Z" fill="white" stroke="#263238" stroke-linecap="round" stroke-linejoin="round"/>
<path d="M168.861 175.202H81.6797V177.965H168.861V175.202Z" fill="#263238" stroke="#263238" stroke-linecap="round" stroke-linejoin="round"/>
<path d="M168.861 175.202H103.201V177.965H168.861V175.202Z" fill="white" stroke="#263238" stroke-linecap="round" stroke-linejoin="round"/>
<path d="M193.229 43.1201H58.6342C56.8148 43.1201 55.3398 44.5925 55.3398 46.4088V148.992C55.3398 150.809 56.8148 152.281 58.6342 152.281H193.229C195.049 152.281 196.523 150.809 196.523 148.992V46.4088C196.523 44.5925 195.049 43.1201 193.229 43.1201Z" fill="#263238" stroke="#263238" stroke-linecap="round" stroke-linejoin="round"/>
<path d="M196.341 43.1201H61.7466C59.9271 43.1201 58.4521 44.5925 58.4521 46.4088V148.992C58.4521 150.809 59.9271 152.281 61.7466 152.281H196.341C198.161 152.281 199.636 150.809 199.636 148.992V46.4088C199.636 44.5925 198.161 43.1201 196.341 43.1201Z" fill="#11305B" stroke="#263238" stroke-linecap="round" stroke-linejoin="round"/>
<path d="M64.4107 45.1621H193.673C194.547 45.1621 195.385 45.5086 196.003 46.1254C196.621 46.7421 196.968 47.5786 196.968 48.4508V141.778H61.1163V48.4701C61.1137 48.0366 61.1971 47.6069 61.3615 47.2057C61.5259 46.8044 61.7681 46.4396 62.0743 46.1322C62.3805 45.8247 62.7445 45.5808 63.1455 45.4143C63.5464 45.2478 63.9764 45.1621 64.4107 45.1621Z" fill="white" stroke="#263238" stroke-linecap="round" stroke-linejoin="round"/>
<path d="M177.601 62.0881C176.453 59.2224 174.376 56.8234 171.702 55.2742C169.028 53.7251 165.911 53.1152 162.849 53.5421C141.648 56.522 79.1397 65.8246 77.7593 72.1589C76.1005 79.7862 73.1193 123.902 80.0793 125.562C87.0393 127.222 182.415 131.198 185.736 122.574C188.261 116.043 184.68 79.6589 177.601 62.0881Z" fill="#11305B"/>
<path opacity="0.7" d="M177.601 62.0881C176.453 59.2224 174.376 56.8234 171.702 55.2742C169.028 53.7251 165.911 53.1152 162.849 53.5421C141.648 56.522 79.1397 65.8246 77.7593 72.1589C76.1005 79.7862 73.1193 123.902 80.0793 125.562C87.0393 127.222 182.415 131.198 185.736 122.574C188.261 116.043 184.68 79.6589 177.601 62.0881Z" fill="white"/>
<path d="M143.34 88.585C147.694 88.1527 150.873 84.2786 150.44 79.9319C150.007 75.5853 146.126 72.4121 141.772 72.8444C137.417 73.2767 134.239 77.1508 134.672 81.4975C135.105 85.8442 138.986 89.0173 143.34 88.585Z" fill="white" stroke="#263238" stroke-linecap="round" stroke-linejoin="round"/>
<path d="M137.979 85.8967C138.414 85.0853 139.058 84.4045 139.845 83.9243C140.632 83.444 141.533 83.1818 142.455 83.1645C143.377 83.1472 144.287 83.3755 145.091 83.8258C145.895 84.2762 146.565 84.9324 147.03 85.7268" fill="white"/>
<path d="M137.979 85.8967C138.414 85.0853 139.058 84.4045 139.845 83.9243C140.632 83.444 141.533 83.1818 142.455 83.1645C143.377 83.1472 144.287 83.3755 145.091 83.8258C145.895 84.2762 146.565 84.9324 147.03 85.7268" stroke="#263238" stroke-linecap="round" stroke-linejoin="round"/>
<path d="M140.669 79.2575C140.669 80.1608 140.403 80.8942 140.074 80.8942C139.745 80.8942 139.479 80.1608 139.479 79.2575C139.479 78.3543 139.745 77.6248 140.074 77.6248C140.403 77.6248 140.669 78.3582 140.669 79.2575Z" fill="#263238" stroke="#263238" stroke-linecap="round" stroke-linejoin="round"/>
<path d="M145.135 79.2575C145.135 80.1608 144.868 80.8942 144.54 80.8942C144.211 80.8942 143.944 80.1608 143.944 79.2575C143.944 78.3543 144.211 77.6248 144.54 77.6248C144.868 77.6248 145.135 78.3582 145.135 79.2575Z" fill="#263238" stroke="#263238" stroke-linecap="round" stroke-linejoin="round"/>
<path d="M134.25 67.9708C135.946 63.944 134.05 59.3074 130.016 57.6147C125.983 55.922 121.338 57.8142 119.642 61.8409C117.947 65.8677 119.842 70.5043 123.876 72.197C127.91 73.8897 132.554 71.9976 134.25 67.9708Z" fill="white" stroke="#263238" stroke-linecap="round" stroke-linejoin="round"/>
<path d="M131.425 66.7317C130.989 67.5431 130.345 68.2239 129.558 68.7041C128.772 69.1843 127.871 69.4466 126.949 69.4639C126.027 69.4812 125.117 69.2529 124.313 68.8025C123.508 68.3522 122.839 67.696 122.373 66.9015" fill="white"/>
<path d="M131.425 66.7317C130.989 67.5431 130.345 68.2239 129.558 68.7041C128.772 69.1843 127.871 69.4466 126.949 69.4639C126.027 69.4812 125.117 69.2529 124.313 68.8025C123.508 68.3522 122.839 67.696 122.373 66.9015" stroke="#263238" stroke-linecap="round" stroke-linejoin="round"/>
<path d="M125.064 63.443C125.064 64.3463 124.797 65.0758 124.469 65.0758C124.14 65.0758 123.873 64.3463 123.873 63.443C123.873 62.5398 124.14 61.8064 124.469 61.8064C124.797 61.8064 125.064 62.5321 125.064 63.443Z" fill="#263238" stroke="#263238" stroke-linecap="round" stroke-linejoin="round"/>
<path d="M129.534 63.443C129.534 64.3463 129.271 65.0758 128.938 65.0758C128.606 65.0758 128.343 64.3463 128.343 63.443C128.343 62.5398 128.61 61.8064 128.938 61.8064C129.267 61.8064 129.534 62.5321 129.534 63.443Z" fill="#263238" stroke="#263238" stroke-linecap="round" stroke-linejoin="round"/>
<path d="M120.027 95.359C121.723 91.3322 119.828 86.6956 115.794 85.0029C111.76 83.3102 107.115 85.2023 105.42 89.2291C103.724 93.2559 105.62 97.8925 109.653 99.5852C113.687 101.278 118.332 99.3857 120.027 95.359Z" fill="white" stroke="#263238" stroke-linecap="round" stroke-linejoin="round"/>
<path d="M110.838 90.8298C110.838 91.733 110.572 92.4664 110.243 92.4664C109.914 92.4664 109.647 91.733 109.647 90.8298C109.647 89.9266 109.914 89.197 110.243 89.197C110.572 89.197 110.838 89.9381 110.838 90.8298Z" fill="#263238" stroke="#263238" stroke-linecap="round" stroke-linejoin="round"/>
<path d="M115.304 90.8298C115.304 91.733 115.041 92.4664 114.709 92.4664C114.376 92.4664 114.113 91.733 114.113 90.8298C114.113 89.9266 114.38 89.197 114.709 89.197C115.037 89.197 115.304 89.9381 115.304 90.8298Z" fill="#263238" stroke="#263238" stroke-linecap="round" stroke-linejoin="round"/>
<path d="M108.967 87.6528L111.681 89.3783" stroke="#263238" stroke-linecap="round" stroke-linejoin="round"/>
<path d="M115.997 87.6528L113.286 89.3783" stroke="#263238" stroke-linecap="round" stroke-linejoin="round"/>
<path d="M111.558 95.6548H113.653" stroke="#263238" stroke-linecap="round" stroke-linejoin="round"/>
<path d="M117.284 103.097H107.289V134.371H117.284V103.097Z" fill="#ADADAD" stroke="#263238" stroke-linecap="round" stroke-linejoin="round"/>
<path d="M131.803 75.4246H121.808V134.371H131.803V75.4246Z" fill="#11305B" stroke="#263238" stroke-linecap="round" stroke-linejoin="round"/>
<path d="M146.512 90.6714H136.517V134.367H146.512V90.6714Z" fill="#263238" stroke="#263238" stroke-linecap="round" stroke-linejoin="round"/>
<path d="M111.256 47.1152L111.998 49.3965H114.399L112.455 50.8054L113.197 53.0867L111.256 51.6778L109.311 53.0867L110.053 50.8054L108.108 49.3965H110.513L111.256 47.1152Z" fill="#263238"/>
<path d="M119.611 47.1152L120.354 49.3965H122.759L120.814 50.8054L121.556 53.0867L119.611 51.6778L117.67 53.0867L118.413 50.8054L116.468 49.3965H118.869L119.611 47.1152Z" fill="#263238"/>
<path d="M127.972 47.1152L128.714 49.3965H131.119L129.174 50.8054L129.917 53.0867L127.972 51.6778L126.027 53.0867L126.769 50.8054L124.828 49.3965H127.229L127.972 47.1152Z" fill="#263238"/>
<path d="M136.331 47.1152L137.073 49.3965H139.475L137.534 50.8054L138.276 53.0867L136.331 51.6778L134.386 53.0867L135.129 50.8054L133.184 49.3965H135.589L136.331 47.1152Z" fill="#263238"/>
<path d="M144.688 47.1152L145.434 49.3965H147.835L145.89 50.8054L146.632 53.0867L144.688 51.6778L142.746 53.0867L143.489 50.8054L141.544 49.3965H143.945L144.688 47.1152Z" fill="#263238"/>
<path d="M67.9531 102.935L68.6955 105.216H71.0967L69.1557 106.629L69.8981 108.91L67.9531 107.501L66.0082 108.91L66.7506 106.629L64.8057 105.216H67.2107L67.9531 102.935Z" fill="#263238"/>
<path d="M76.3125 102.935L77.0549 105.216H79.4561L77.5112 106.629L78.2536 108.91L76.3125 107.501L74.3676 108.91L75.11 106.629L73.165 105.216H75.5701L76.3125 102.935Z" fill="#263238"/>
<path opacity="0.2" d="M84.669 102.935L85.4114 105.216H87.8165L85.8715 106.629L86.6139 108.91L84.669 107.501L82.7241 108.91L83.4703 106.629L81.5254 105.216H83.9266L84.669 102.935Z" fill="#263238"/>
<path opacity="0.2" d="M93.0284 102.935L93.7708 105.216H96.172L94.2309 106.629L94.9733 108.91L93.0284 107.501L91.0834 108.91L91.8258 106.629L89.8848 105.216H92.286L93.0284 102.935Z" fill="#263238"/>
<path opacity="0.2" d="M101.389 102.935L102.131 105.216H104.532L102.587 106.629L103.334 108.91L101.389 107.501L99.4437 108.91L100.186 106.629L98.2412 105.216H100.646L101.389 102.935Z" fill="#263238"/>
<path d="M153.824 86.1863L154.567 88.4675H156.968L155.027 89.8764L155.769 92.1577L153.824 90.7488L151.879 92.1577L152.622 89.8764L150.681 88.4675H153.082L153.824 86.1863Z" fill="#263238"/>
<path d="M162.184 86.1863L162.926 88.4675H165.327L163.382 89.8764L164.125 92.1577L162.184 90.7488L160.239 92.1577L160.981 89.8764L159.036 88.4675H161.441L162.184 86.1863Z" fill="#263238"/>
<path d="M170.54 86.1863L171.282 88.4675H173.688L171.743 89.8764L172.485 92.1577L170.54 90.7488L168.599 92.1577L169.341 89.8764L167.396 88.4675H169.798L170.54 86.1863Z" fill="#263238"/>
<path opacity="0.2" d="M178.899 86.1863L179.642 88.4675H182.047L180.102 89.8764L180.844 92.1577L178.899 90.7488L176.955 92.1577L177.697 89.8764L175.756 88.4675H178.157L178.899 86.1863Z" fill="#263238"/>
<path opacity="0.2" d="M187.259 86.1863L188.001 88.4675H190.402L188.461 89.8764L189.204 92.1577L187.259 90.7488L185.314 92.1577L186.056 89.8764L184.111 88.4675H186.516L187.259 86.1863Z" fill="#263238"/>
<path d="M240.681 156.508L240.058 168.068L236.582 167.713L235.337 156.955L240.681 156.508Z" fill="white" stroke="#263238" stroke-linecap="round" stroke-linejoin="round"/>
<path d="M241.481 167.003L234.177 167.092L234.266 169.138C234.266 169.138 233.376 166.648 233.287 167.98C233.198 169.311 233.999 171.183 233.91 171.538C233.821 171.894 233.554 172.959 230.523 174.117C227.491 175.275 226.695 175.719 227.043 176.34C227.391 176.962 229.448 177.761 232.456 177.761C234.3 177.753 236.122 177.358 237.804 176.603L237.893 177.579L241.454 177.491C241.844 176.534 241.967 175.489 241.809 174.468C241.543 172.777 241.187 171.268 241.276 170.732C241.365 170.195 241.481 167.003 241.481 167.003Z" fill="#263238" stroke="#263238" stroke-linecap="round" stroke-linejoin="round"/>
<path d="M231.061 156.33L233.199 168.96H236.938L238.098 156.152L231.061 156.33Z" fill="white" stroke="#263238" stroke-linecap="round" stroke-linejoin="round"/>
<path d="M238.898 167.003L231.594 167.092L231.683 169.138C231.683 169.138 230.793 166.648 230.704 167.98C230.615 169.311 231.416 171.183 231.327 171.538C231.238 171.894 230.971 172.959 227.94 174.117C224.908 175.275 224.112 175.719 224.46 176.34C224.808 176.962 226.366 177.965 229.394 177.965C231.292 177.949 233.177 177.654 234.989 177.089L235.329 177.711L238.89 177.622C239.273 176.619 239.395 175.535 239.246 174.472C238.979 172.781 238.623 171.272 238.712 170.736C238.801 170.199 238.898 167.003 238.898 167.003Z" fill="#263238" stroke="#263238" stroke-linecap="round" stroke-linejoin="round"/>
<path d="M223.307 121.47L222.24 157.488C225.841 158.026 229.47 158.352 233.109 158.465C238.275 158.553 245.313 156.866 245.313 156.866L242.552 119.517L223.307 119.069V121.47Z" fill="#263238" stroke="#263238" stroke-linecap="round" stroke-linejoin="round"/>
<path d="M229.993 88.7258C229.993 88.7258 228.025 91.9103 227.368 94.3459C226.71 96.7816 225.206 121.239 225.206 121.239L242.196 121.331C242.196 121.331 241.349 101.645 239.49 95.1913C237.63 88.7374 236.145 87.6218 236.145 87.6218L229.993 88.7258Z" fill="white" stroke="#263238" stroke-linecap="round" stroke-linejoin="round"/>
<path d="M229.467 72.9153C229.467 72.9153 228.535 74.0733 227.99 74.9302C227.79 75.2768 227.522 75.5794 227.202 75.8196C226.881 76.0597 226.516 76.2326 226.126 76.3275C225.581 76.4047 225.04 76.7946 225.504 77.6476C225.771 78.141 226.083 78.6088 226.436 79.045C226.436 79.045 226.281 82.8432 226.981 83.0787C227.681 83.3141 230.012 83.0015 230.012 83.0015L230.167 86.8615L235.298 85.7768L235.14 80.7356C235.14 80.7356 235.526 77.3967 233.206 75.0692C230.886 72.7416 229.467 72.9153 229.467 72.9153Z" fill="white" stroke="#263238" stroke-linecap="round" stroke-linejoin="round"/>
<path d="M228.969 76.1461C228.93 76.5321 228.729 76.8332 228.524 76.8139C228.319 76.7946 228.188 76.4588 228.226 76.0689C228.265 75.6791 228.466 75.378 228.671 75.4012C228.876 75.4243 229.008 75.7563 228.969 76.1461Z" fill="#263238"/>
<path d="M227.197 79.3035C227.197 79.3035 227.874 79.6432 228.937 79.0642" stroke="#263238" stroke-linecap="round" stroke-linejoin="round"/>
<path d="M228.647 74.498C228.647 74.498 229.177 74.1622 229.661 74.9342" stroke="#263238" stroke-linecap="round" stroke-linejoin="round"/>
<path d="M233.933 84.4722C233.933 84.4722 228.261 85.7306 228.261 86.298C228.261 86.8654 228.825 89.4439 228.825 89.4439L236.145 87.6219L235.449 84.1479L233.933 84.4722Z" fill="white" stroke="#263238" stroke-linecap="round" stroke-linejoin="round"/>
<path d="M236.377 85.8193C236.377 85.8193 227.553 92.5666 226.053 96.7817C224.553 100.997 221.923 122.551 222.766 122.644C223.609 122.736 229.057 124.049 234.595 123.86C240.132 123.67 245.011 122.269 245.294 122.08C245.576 121.891 244.826 115.518 243.511 106.995C242.196 98.4724 239.849 92.5666 238.817 90.324C238.087 88.7787 237.273 87.2748 236.377 85.8193Z" fill="#11305B" stroke="#263238" stroke-linecap="round" stroke-linejoin="round"/>
<path d="M235.31 89.9302L232.135 93.4775L229.622 94.0449V95.4114L225.516 101.904" stroke="#263238" stroke-linecap="round" stroke-linejoin="round"/>
<path d="M236.926 88.1238L236.118 89.027" stroke="#263238" stroke-linecap="round" stroke-linejoin="round"/>
<path d="M230.04 127.886C230.04 127.886 228.006 127.831 227.755 128.461C227.504 129.09 226.904 132.768 226.904 132.768L228.335 132.803C228.335 132.803 228.64 129.545 228.957 129.167C229.275 128.789 233.891 128.58 234.332 128.893C234.773 129.206 234.901 132.614 234.901 132.614H236.544C236.544 132.614 235.975 129.271 235.279 128.326C234.583 127.38 230.04 127.886 230.04 127.886Z" fill="#ADADAD" stroke="#263238" stroke-linecap="round" stroke-linejoin="round"/>
<path d="M239.857 132.359C239.857 132.359 224.708 132.359 223.76 132.425C223.334 132.434 222.929 132.611 222.633 132.918C222.337 133.225 222.175 133.636 222.183 134.062C222.183 134.946 221.108 147.548 221.549 147.992C221.989 148.436 239.165 148.938 240.495 148.872C240.982 148.87 241.45 148.689 241.811 148.364C242.172 148.038 242.4 147.591 242.452 147.108C242.452 146.479 241.504 133.371 241.315 132.865C241.125 132.359 239.857 132.359 239.857 132.359Z" fill="#ADADAD" stroke="#263238" stroke-linecap="round" stroke-linejoin="round"/>
<path d="M238.867 135.984C239.428 135.417 239.945 134.81 240.414 134.166C240.576 133.843 240.649 133.483 240.623 133.124" fill="#ADADAD"/>
<path d="M238.867 135.984C239.428 135.417 239.945 134.81 240.414 134.166C240.576 133.843 240.649 133.483 240.623 133.124" stroke="#263238" stroke-linecap="round" stroke-linejoin="round"/>
<path d="M222.852 133.888C222.852 133.888 230.198 143.152 231.524 142.789C232.344 142.577 235.457 139.558 237.769 137.146" fill="#ADADAD"/>
<path d="M222.852 133.888C222.852 133.888 230.198 143.152 231.524 142.789C232.344 142.577 235.457 139.558 237.769 137.146" stroke="#263238" stroke-linecap="round" stroke-linejoin="round"/>
<path d="M229.475 125.936C229.475 125.936 228.775 129.796 229.413 130.182C230.051 130.568 231.002 129.993 231.002 129.993C231.292 130.069 231.594 130.09 231.891 130.055C232.31 129.955 232.715 129.806 233.098 129.611C233.209 129.682 233.343 129.708 233.473 129.685C233.603 129.661 233.719 129.589 233.798 129.484C234.115 129.098 234.115 126.187 234.115 126.187L229.475 125.936Z" fill="white" stroke="#263238" stroke-linecap="round" stroke-linejoin="round"/>
<path d="M234.521 93.219C234.521 93.219 231.521 93.6899 230.113 96.4074C228.706 99.1248 228.953 114.21 228.953 114.21L228.86 126.562L234.397 126.751L238.902 101.734" fill="#11305B"/>
<path d="M234.521 93.219C234.521 93.219 231.521 93.6899 230.113 96.4074C228.706 99.1248 228.953 114.21 228.953 114.21L228.86 126.562L234.397 126.751L238.902 101.734" stroke="#263238" stroke-linecap="round" stroke-linejoin="round"/>
<path d="M240.12 71.6724C240.12 71.6724 238.797 69.7424 237.243 69.1905C235.689 68.6385 227.994 68.8045 227.839 69.7347C227.685 70.665 227.839 72.0507 229.239 73.9228C230.639 75.7949 232.27 78.1881 232.27 78.1881C232.27 78.1881 232.657 80.4385 232.893 81.7586C233.129 83.0787 232.812 85.9467 232.812 85.9467C234.414 86.1109 236.027 86.1367 237.634 86.0239C240.82 85.8695 242.216 85.2519 242.216 85.2519C242.216 85.2519 241.442 84.3989 241.284 80.5968C241.125 76.7947 240.12 71.6724 240.12 71.6724Z" fill="#263238" stroke="#263238" stroke-linecap="round" stroke-linejoin="round"/>
<path d="M239.366 69.0129C239.366 69.0129 236.957 71.186 237.889 73.5136C238.821 75.8412 239.908 77.5473 241.462 77.4701C243.016 77.3929 244.416 76.5399 245.738 74.7681C247.061 72.9964 246.98 70.6534 245.039 69.3371C243.098 68.0209 239.753 68.3914 239.366 69.0129Z" fill="#263238" stroke="#263238" stroke-linecap="round" stroke-linejoin="round"/>
<path d="M231.412 79.13C231.412 79.13 233.199 77.034 233.898 78.0415C234.598 79.0489 233.585 80.5235 232.967 80.8361L232.344 81.1449L231.721 80.8361" fill="white"/>
<path d="M231.412 79.13C231.412 79.13 233.199 77.034 233.898 78.0415C234.598 79.0489 233.585 80.5235 232.967 80.8361L232.344 81.1449L231.721 80.8361" stroke="#263238" stroke-linecap="round" stroke-linejoin="round"/>
<path d="M9.76367 177.965H276.888" stroke="#263238" stroke-linecap="round" stroke-linejoin="round"/>
</svg>
