<svg width="223" height="223" viewBox="0 0 223 223" fill="none" xmlns="http://www.w3.org/2000/svg">
<path d="M141.2 14.0847C128.739 8.28667 115.042 5.65526 101.011 7.84066C84.0629 10.5167 68.9391 20.2885 58.3109 33.5882C54.143 38.7194 50.7417 44.4282 48.2134 50.5362C39.0615 73.2822 36.8494 100.716 20.1154 135.432C3.38153 170.149 17.9078 209.281 57.0398 218.433C96.1718 227.585 122.053 191.923 153.296 192.239C184.538 192.556 215.785 166.675 216.101 129.121C216.471 86.078 189.105 45.987 154.683 21.9922C150.426 18.9701 145.915 16.3242 141.2 14.0847Z" fill="#11305B"/>
<path opacity="0.7" d="M141.2 14.0847C128.739 8.28667 115.042 5.65526 101.011 7.84066C84.0629 10.5167 68.9391 20.2885 58.3109 33.5882C54.143 38.7194 50.7417 44.4282 48.2134 50.5362C39.0615 73.2822 36.8494 100.716 20.1154 135.432C3.38153 170.149 17.9078 209.281 57.0398 218.433C96.1718 227.585 122.053 191.923 153.296 192.239C184.538 192.556 215.785 166.675 216.101 129.121C216.471 86.078 189.105 45.987 154.683 21.9922C150.426 18.9701 145.915 16.3242 141.2 14.0847Z" fill="white"/>
<g opacity="0.2">
<path d="M54.791 191.044C54.5323 189.657 52.6948 187.075 52.6948 187.075C52.6948 187.075 51.3568 188.801 51.2899 188.921C50.4782 190.313 49.7289 193.479 50.9331 194.822C51.1393 195.039 51.3889 195.21 51.6657 195.325C51.9425 195.44 52.2403 195.495 52.5397 195.487C52.8392 195.479 53.1336 195.408 53.4039 195.279C53.6742 195.149 53.9143 194.965 54.1086 194.737C54.9649 193.796 55.014 192.226 54.791 191.044Z" fill="black"/>
<path d="M37.379 164.159C37.379 164.124 35.314 164.864 35.1891 164.922C33.7486 165.635 31.3758 167.861 31.6211 169.645C31.6723 169.939 31.7846 170.218 31.9506 170.465C32.1167 170.713 32.3328 170.922 32.5851 171.081C32.8374 171.239 33.1201 171.343 33.4151 171.386C33.71 171.428 34.0105 171.408 34.2971 171.326C35.5326 171.014 36.4379 169.734 36.9062 168.624C37.4905 167.326 37.379 164.159 37.379 164.159Z" fill="black"/>
<path d="M22.5807 162.79C23.4281 164.378 26.6572 164.761 28.2449 164.48C28.3787 164.454 30.4749 163.825 30.4749 163.798V163.762C30.9834 163.829 31.5319 163.892 32.1296 163.95C33.2357 164.043 34.4889 164.146 35.8581 164.159C37.3333 164.191 38.8091 164.138 40.278 163.999C41.9251 163.85 43.5553 163.551 45.1483 163.107H45.2063C44.7603 163.397 43.5561 164.248 43.4669 164.324C42.2627 165.39 40.5634 168.164 41.286 169.814C41.4157 170.084 41.6007 170.323 41.8289 170.517C42.0571 170.711 42.3234 170.854 42.6106 170.938C42.8978 171.022 43.1994 171.045 43.496 171.005C43.7925 170.965 44.0774 170.864 44.3321 170.706C45.4382 170.082 45.9734 168.606 46.1161 167.415C46.2945 166.077 45.4427 163.254 45.3713 163.031C46.9832 162.541 48.5611 161.945 50.0945 161.247C50.9865 160.845 51.8785 160.413 52.7705 159.971C52.4003 160.234 52.0658 160.471 52.0212 160.511C50.817 161.577 49.1177 164.351 49.8402 166.001C49.97 166.271 50.155 166.51 50.3832 166.704C50.6114 166.897 50.8777 167.041 51.1649 167.125C51.452 167.209 51.7537 167.232 52.0503 167.192C52.3468 167.152 52.6317 167.05 52.8864 166.893C53.9925 166.269 54.5277 164.793 54.6704 163.602C54.8131 162.411 54.1531 159.976 53.9613 159.338L54.9782 158.821C56.5971 157.982 58.2072 157.139 59.8172 156.363C60.3837 156.087 60.9501 155.837 61.5165 155.587C61.182 155.819 60.9055 156.033 60.8654 156.033C59.6612 157.103 57.9619 159.878 58.6844 161.528C58.8142 161.797 58.9992 162.037 59.2274 162.23C59.4555 162.424 59.7219 162.567 60.009 162.652C60.2962 162.736 60.5979 162.758 60.8944 162.719C61.191 162.679 61.4759 162.577 61.7306 162.42C62.8367 161.791 63.3719 160.319 63.5146 159.124C63.6573 157.929 63.0686 155.734 62.8411 154.98C63.4299 154.74 64.0186 154.494 64.5984 154.289C64.9998 154.16 65.3744 154.004 65.7847 153.892L66.98 153.544C67.7471 153.348 68.541 153.143 69.2948 152.973C69.8166 152.853 70.3206 152.746 70.8245 152.635C70.2581 152.902 69.1565 153.446 69.0718 153.527C67.9096 154.338 66.9758 155.434 66.3601 156.711C66.2257 156.795 66.1002 156.892 65.9854 157.001C65.7609 157.199 65.5806 157.442 65.4561 157.714C65.3316 157.987 65.2657 158.282 65.2628 158.582C65.2598 158.881 65.3199 159.178 65.439 159.453C65.5581 159.727 65.7336 159.974 65.9542 160.176C67.319 161.358 70.4677 160.556 71.8459 159.73C71.9262 159.681 72.7379 159.048 73.2642 158.642C72.9966 158.928 72.7379 159.2 72.4703 159.498C71.9351 160.083 71.4177 160.68 70.8602 161.323L70.0842 162.344C69.8166 162.665 69.5713 163.035 69.3126 163.379C68.7239 164.195 68.1708 165.047 67.6312 165.921C67.1183 165.453 65.2718 163.82 64.1256 163.441C62.9794 163.062 61.4229 162.897 60.3748 163.62C60.1246 163.781 59.911 163.994 59.7478 164.243C59.5846 164.492 59.4753 164.773 59.427 165.067C59.3787 165.361 59.3924 165.662 59.4673 165.95C59.5422 166.239 59.6766 166.508 59.8619 166.742C61.0304 168.115 64.2683 167.799 65.758 167.188C65.8516 167.147 66.8685 166.585 67.4216 166.264C67.1004 166.791 66.7793 167.317 66.4716 167.861C65.5796 169.431 64.7411 171.045 63.8848 172.655C63.6261 173.151 63.3585 173.637 63.0954 174.127C62.917 173.958 60.7628 171.969 59.4783 171.545C58.3365 171.166 56.7755 171.001 55.7274 171.723C55.4773 171.885 55.2637 172.098 55.1005 172.347C54.9373 172.596 54.828 172.877 54.7797 173.171C54.7314 173.465 54.7451 173.766 54.82 174.054C54.8949 174.342 55.0293 174.612 55.2145 174.845C56.3831 176.219 59.621 175.902 61.1107 175.291C61.2222 175.242 62.685 174.431 63.0463 174.208C62.4665 175.287 61.8733 176.353 61.2623 177.383C60.4281 178.78 59.5029 180.121 58.4926 181.397C58.4079 181.317 56.1734 179.23 54.8577 178.792C53.716 178.418 52.155 178.253 51.1069 178.975C50.8561 179.137 50.6421 179.349 50.4784 179.598C50.3148 179.847 50.2053 180.128 50.157 180.422C50.1086 180.717 50.1226 181.018 50.1978 181.306C50.2731 181.595 50.4081 181.864 50.594 182.097C51.7625 183.471 55.0005 183.154 56.4856 182.543C56.5838 182.503 57.6988 181.888 58.225 181.58L58.2919 181.66C57.239 182.915 56.0779 184.074 54.8221 185.126C54.1352 185.71 53.4484 186.232 52.7705 186.727C52.3914 186.281 50.6475 184.345 49.5102 183.819C48.3729 183.293 46.8833 182.985 45.7593 183.587C45.4911 183.72 45.254 183.908 45.0632 184.139C44.8725 184.37 44.7324 184.639 44.6521 184.927C44.5717 185.216 44.553 185.518 44.597 185.814C44.641 186.11 44.7468 186.394 44.9075 186.646C45.9154 188.141 49.1712 188.181 50.7055 187.73C50.7858 187.708 51.5975 187.365 52.213 187.106C51.9052 187.324 51.5886 187.552 51.2853 187.757C50.1569 188.52 49.0553 189.153 48.1098 189.702C47.5612 190.009 47.0572 190.277 46.5844 190.522C45.9957 190.295 43.6052 189.394 42.3742 189.456C41.1432 189.519 39.6581 189.925 38.94 190.977C38.7609 191.219 38.6349 191.496 38.5705 191.791C38.506 192.085 38.5045 192.389 38.566 192.684C38.6275 192.979 38.7506 193.257 38.9273 193.501C39.1039 193.745 39.3302 193.949 39.5912 194.099C41.1789 194.96 44.0824 193.497 45.2464 192.382C45.349 192.288 46.7539 190.598 46.7227 190.598H46.687C47.133 190.371 47.637 190.121 48.1677 189.84C49.1445 189.309 50.2416 188.703 51.3923 187.958C52.6421 187.172 53.8454 186.314 54.996 185.389C56.2833 184.355 57.4772 183.211 58.564 181.968C58.577 181.952 58.5889 181.936 58.5997 181.919C58.3901 182.405 57.8504 183.783 57.8192 183.89C57.4044 185.447 57.5159 188.698 59.0323 189.688C59.289 189.843 59.5752 189.942 59.8726 189.979C60.1699 190.016 60.4717 189.99 60.7584 189.903C61.0451 189.816 61.3103 189.669 61.537 189.474C61.7636 189.278 61.9465 189.036 62.074 188.765C62.6493 187.632 62.2836 186.089 61.7574 185.023C61.1642 183.801 58.8985 181.928 58.7201 181.776C59.797 180.483 60.7864 179.12 61.6815 177.695C62.2078 176.87 62.7118 176.018 63.2069 175.162C63.0374 175.586 62.8902 175.969 62.8768 176.023C62.462 177.579 62.5735 180.831 64.0855 181.821C64.3417 181.976 64.6277 182.076 64.925 182.114C65.2223 182.151 65.5242 182.126 65.8111 182.039C66.0979 181.953 66.3634 181.807 66.5901 181.611C66.8169 181.415 66.9998 181.173 67.1272 180.902C67.707 179.765 67.3368 178.226 66.815 177.16C66.2932 176.094 64.3798 174.422 63.8714 173.993C64.0587 173.663 64.2505 173.333 64.4334 173.003C65.3254 171.411 66.2174 169.819 67.1094 168.285C67.4305 167.741 67.765 167.219 68.0995 166.697C67.9478 167.076 67.8274 167.393 67.814 167.446C67.3993 169.003 67.5108 172.254 69.0272 173.244C69.2833 173.399 69.5693 173.499 69.8665 173.536C70.1636 173.573 70.4653 173.548 70.7519 173.461C71.0384 173.373 71.3034 173.227 71.5296 173.031C71.7557 172.834 71.938 172.592 72.0644 172.321C72.6442 171.188 72.2785 169.645 71.7522 168.583C71.2259 167.522 69.5222 166.006 68.9023 165.493C69.2591 164.971 69.6159 164.44 69.9905 163.95C70.2492 163.62 70.4767 163.281 70.7576 162.964L71.5649 162.014C72.0956 161.43 72.6442 160.819 73.1794 160.261C73.5496 159.869 73.9064 159.503 74.2677 159.133C73.9421 159.668 73.3266 160.729 73.2865 160.823C72.6398 162.299 72.2562 165.533 73.6076 166.728C73.8372 166.92 74.1046 167.062 74.3926 167.144C74.6805 167.227 74.9825 167.247 75.279 167.205C75.5755 167.163 75.8599 167.059 76.1136 166.9C76.3673 166.741 76.5848 166.531 76.7519 166.282C77.4967 165.247 77.3629 163.686 77.0061 162.536C76.6181 161.269 74.7493 159.151 74.513 158.883C75.1106 158.276 75.6993 157.688 76.2657 157.144C78.1969 155.266 79.8783 153.772 81.0781 152.742L80.3912 151.729L80.311 151.796C79.1201 152.871 77.4387 154.427 75.512 156.385C74.901 157.001 74.2632 157.67 73.612 158.366C72.8562 157.86 72.073 157.397 71.2661 156.979C71.5738 155.641 71.2126 153.036 71.1635 152.701C72.002 152.523 72.8137 152.358 73.5853 152.215C76.2657 151.64 78.4957 151.328 80.0434 151.127L79.2896 150.017C77.7554 150.257 75.7216 150.601 73.389 151.1C72.5416 151.274 71.6363 151.484 70.713 151.702C70.5837 151.381 69.491 148.768 68.5232 147.862C67.6312 147.042 66.2932 146.239 65.0399 146.453C64.7426 146.494 64.4573 146.597 64.2025 146.756C63.9477 146.915 63.7291 147.125 63.5609 147.374C63.3926 147.622 63.2786 147.903 63.226 148.199C63.1735 148.494 63.1837 148.798 63.2559 149.089C63.7421 150.824 66.8239 151.894 68.4251 151.957C68.5187 151.957 69.5534 151.885 70.2091 151.827L69.0762 152.104C68.3091 152.296 67.5464 152.51 66.7258 152.737L65.5394 153.112C65.138 153.232 64.7322 153.406 64.3219 153.558C63.3853 153.915 62.4531 154.32 61.521 154.753C61.3515 154.08 60.7137 151.698 59.9644 150.739C59.2152 149.78 58.011 148.794 56.7399 148.821C56.4399 148.816 56.1423 148.874 55.8664 148.992C55.5906 149.11 55.3427 149.285 55.1389 149.505C54.9352 149.725 54.7802 149.986 54.6841 150.27C54.588 150.554 54.5529 150.855 54.5812 151.154C54.7953 152.938 57.672 154.463 59.2553 154.771C59.3534 154.771 60.513 154.882 61.1508 154.923C60.5933 155.186 60.0313 155.444 59.4783 155.73C57.8727 156.55 56.276 157.429 54.6749 158.303C54.1887 158.571 53.6937 158.829 53.2031 159.093C53.1496 158.852 52.4493 156.006 51.6153 154.945C50.8705 153.999 49.6618 153 48.3863 153.023C48.0867 153.019 47.7898 153.078 47.5146 153.196C47.2394 153.315 46.992 153.489 46.7886 153.709C46.5851 153.929 46.4301 154.189 46.3335 154.473C46.2368 154.756 46.2008 155.057 46.2276 155.355C46.4462 157.139 49.3229 158.669 50.9017 158.977C51.0221 158.999 52.6857 159.128 53.1317 159.142C52.0524 159.717 50.9731 160.283 49.8804 160.801C48.4128 161.501 46.9023 162.107 45.3579 162.616C45.3312 162.505 44.6176 159.53 43.7613 158.441C43.0164 157.496 41.8033 156.497 40.5322 156.519C40.231 156.512 39.9317 156.569 39.654 156.686C39.3764 156.803 39.1266 156.977 38.921 157.198C38.7155 157.418 38.5588 157.679 38.4614 157.964C38.364 158.249 38.328 158.552 38.3557 158.852C38.5743 160.636 41.4465 162.166 43.0298 162.473C43.1324 162.473 44.4035 162.594 45.01 162.625V162.728C43.4395 163.195 41.8306 163.522 40.2022 163.704C39.3102 163.816 38.4494 163.874 37.6065 163.909C37.5306 163.339 37.1605 160.752 36.4915 159.686C35.8225 158.62 34.7877 157.541 33.5033 157.438C33.2061 157.4 32.9044 157.426 32.6178 157.512C32.3311 157.599 32.0659 157.745 31.8396 157.942C31.6132 158.138 31.4306 158.379 31.3039 158.651C31.1771 158.922 31.1089 159.217 31.1038 159.516C31.1038 161.323 33.8155 163.151 35.3497 163.628C35.4344 163.655 36.3131 163.825 36.9553 163.941C36.5762 163.941 36.1882 163.967 35.8225 163.972C34.4845 163.972 33.2089 163.914 32.1028 163.843C31.474 163.793 30.9075 163.74 30.3768 163.686C30.0111 163.169 28.5125 161.1 27.4555 160.471C26.3985 159.842 24.9311 159.36 23.7492 159.842C23.4696 159.947 23.2151 160.109 23.002 160.319C22.789 160.528 22.622 160.779 22.512 161.057C22.4019 161.335 22.3512 161.632 22.363 161.931C22.3749 162.229 22.449 162.522 22.5807 162.79Z" fill="black"/>
</g>
<g opacity="0.2">
<path d="M160.797 36.8084C161.635 37.9457 164.41 39.4844 164.414 39.4844C164.418 39.4844 164.86 37.348 164.86 37.2098C164.985 35.6042 164.28 32.4242 162.63 31.7418C162.35 31.6357 162.051 31.5899 161.752 31.6071C161.453 31.6244 161.161 31.7044 160.895 31.842C160.629 31.9796 160.395 32.1716 160.209 32.4057C160.022 32.6397 159.886 32.9104 159.811 33.2002C159.441 34.4089 160.083 35.8405 160.797 36.8084Z" fill="black"/>
<path d="M188.176 53.4352C188.176 53.462 189.728 51.901 189.812 51.7895C190.803 50.5184 191.971 47.4856 190.954 45.9915C190.779 45.7482 190.555 45.5446 190.296 45.3938C190.037 45.2431 189.749 45.1487 189.451 45.1167C189.153 45.0847 188.852 45.1159 188.567 45.2082C188.282 45.3005 188.019 45.4519 187.797 45.6525C186.82 46.4687 186.566 48.0163 186.628 49.2205C186.699 50.6299 188.176 53.4308 188.176 53.4352Z" fill="black"/>
<path d="M202.1 48.226C200.642 47.1645 197.569 48.226 196.262 49.1715C196.151 49.2518 194.536 50.7325 194.563 50.7503H194.598C194.112 50.9153 193.59 51.0982 193.029 51.3078C191.989 51.7003 190.821 52.1597 189.581 52.7395C188.238 53.3521 186.932 54.0431 185.67 54.8089C184.248 55.6569 182.904 56.6301 181.656 57.7168L181.615 57.7614C181.887 57.3154 182.606 56.0176 182.65 55.9105C183.27 54.4254 183.591 51.1874 182.204 50.0144C181.971 49.8283 181.702 49.6931 181.414 49.6174C181.125 49.5418 180.824 49.5275 180.53 49.5754C180.236 49.6233 179.955 49.7324 179.706 49.8956C179.456 50.0588 179.244 50.2725 179.082 50.5229C178.355 51.5665 178.516 53.1275 178.895 54.2737C179.318 55.5582 181.312 57.7258 181.468 57.8952C180.231 59.0344 179.069 60.2531 177.989 61.5435C177.361 62.2928 176.745 63.0688 176.143 63.8538C176.366 63.4524 176.562 63.0956 176.589 63.0421C177.209 61.5569 177.534 58.3189 176.165 57.146C175.932 56.9612 175.663 56.8271 175.375 56.7522C175.086 56.6774 174.786 56.6634 174.492 56.7113C174.198 56.7591 173.918 56.8677 173.668 57.0301C173.419 57.1925 173.206 57.4051 173.043 57.6544C172.321 58.698 172.481 60.259 172.856 61.4053C173.231 62.5515 174.903 64.4425 175.349 64.9331C175.117 65.2364 174.903 65.5352 174.658 65.8251C173.565 67.288 172.481 68.7464 171.375 70.1469C170.983 70.6419 170.581 71.1147 170.18 71.5874C170.381 71.2306 170.541 70.9318 170.564 70.8828C171.183 69.3976 171.509 66.1596 170.118 64.9866C169.885 64.8005 169.615 64.6653 169.327 64.5897C169.039 64.514 168.738 64.4997 168.444 64.5476C168.149 64.5956 167.869 64.7046 167.619 64.8678C167.37 65.031 167.157 65.2447 166.996 65.4951C166.269 66.5432 166.429 68.0997 166.808 69.2459C167.187 70.3922 168.69 72.1003 169.217 72.6846C168.793 73.1574 168.369 73.6301 167.937 74.0717C167.633 74.3616 167.361 74.6648 167.045 74.9414L166.108 75.82C165.501 76.3284 164.877 76.8592 164.27 77.3408C163.856 77.6798 163.45 77.992 163.044 78.3087C163.436 77.8225 164.186 76.8547 164.239 76.7655C164.933 75.53 165.297 74.137 165.296 72.7203C165.381 72.587 165.451 72.4449 165.506 72.2966C165.623 72.0213 165.681 71.7245 165.675 71.4255C165.67 71.1265 165.603 70.8319 165.476 70.5607C165.35 70.2896 165.169 70.0479 164.943 69.8514C164.718 69.6549 164.454 69.5078 164.168 69.4199C162.424 68.9739 159.935 71.0478 159.061 72.3992C159.008 72.4794 158.544 73.4071 158.263 73.9958C158.374 73.6257 158.49 73.2644 158.602 72.8808C158.829 72.1226 159.048 71.3555 159.257 70.5349C159.351 70.1335 159.445 69.7321 159.543 69.3218C159.641 68.9114 159.703 68.4788 159.788 68.0551C159.962 67.065 160.087 66.057 160.194 65.0357C160.859 65.2319 163.231 65.9009 164.427 65.7448C165.622 65.5887 167.103 65.058 167.727 63.9608C167.884 63.7061 167.986 63.4212 168.026 63.1247C168.066 62.8281 168.043 62.5265 167.959 62.2393C167.875 61.9521 167.731 61.6858 167.538 61.4576C167.344 61.2294 167.105 61.0444 166.835 60.9147C165.185 60.1877 162.411 61.8825 161.34 63.0867C161.273 63.1625 160.6 64.1125 160.243 64.6388C160.301 64.0277 160.363 63.4123 160.404 62.7879C160.515 61.0039 160.573 59.1663 160.64 57.3467C160.662 56.7892 160.689 56.2361 160.711 55.6786C160.948 55.7544 163.753 56.6063 165.091 56.4324C166.286 56.2763 167.767 55.7411 168.391 54.6484C168.549 54.3936 168.65 54.1088 168.69 53.8122C168.73 53.5156 168.707 53.214 168.623 52.9268C168.539 52.6396 168.396 52.3733 168.202 52.1451C168.009 51.9169 167.769 51.732 167.499 51.6022C165.849 50.8752 163.071 52.57 162 53.7742C161.92 53.8634 160.957 55.2326 160.725 55.5894C160.783 54.3674 160.845 53.1498 160.961 51.9501C161.107 50.3285 161.357 48.718 161.71 47.1288C161.822 47.1645 164.743 48.0699 166.117 47.8915C167.308 47.7354 168.793 47.2002 169.413 46.1075C169.571 45.8529 169.673 45.568 169.713 45.2713C169.754 44.9746 169.731 44.6727 169.647 44.3853C169.563 44.0979 169.419 43.8315 169.225 43.6033C169.031 43.3752 168.791 43.1905 168.521 43.0613C166.871 42.3343 164.092 44.0291 163.022 45.2333C162.95 45.3091 162.214 46.3528 161.88 46.8567L161.786 46.8166C162.185 45.2267 162.725 43.6758 163.401 42.1827C163.762 41.3576 164.155 40.5904 164.551 39.8501C165.078 40.0731 167.495 41.0721 168.748 41.0454C170.002 41.0186 171.478 40.6573 172.227 39.6271C172.41 39.3903 172.541 39.1178 172.612 38.8272C172.683 38.5366 172.692 38.2344 172.638 37.9401C172.585 37.6458 172.47 37.366 172.302 37.1188C172.133 36.8716 171.915 36.6625 171.661 36.5051C170.104 35.6131 167.156 36.9778 165.961 38.0572C165.894 38.1151 165.301 38.7841 164.873 39.2747C165.055 38.9447 165.243 38.6013 165.426 38.2846C166.108 37.1072 166.808 36.0546 167.437 35.1626C167.794 34.6453 168.133 34.1859 168.449 33.7577C169.083 33.7087 171.625 33.4767 172.709 32.8657C173.793 32.2547 174.939 31.2601 175.139 30.0024C175.194 29.7077 175.186 29.4047 175.116 29.1133C175.046 28.8218 174.915 28.5485 174.732 28.3111C174.548 28.0737 174.317 27.8777 174.053 27.7356C173.789 27.5936 173.498 27.5089 173.199 27.487C171.415 27.4022 169.417 29.9846 168.851 31.501C168.802 31.6303 168.271 33.7577 168.307 33.7577H168.342C168.03 34.1636 167.696 34.6007 167.339 35.0957C166.692 35.9877 165.965 37.0224 165.256 38.2177C164.471 39.4674 163.762 40.7631 163.133 42.0979C162.419 43.5884 161.839 45.1391 161.398 46.7319C161.398 46.7319 161.398 46.772 161.398 46.7898C161.376 46.2636 161.26 44.7918 161.238 44.6758C160.939 43.097 159.422 40.2158 157.63 39.9973C157.331 39.9691 157.03 40.004 156.746 40.0998C156.462 40.1956 156.201 40.3501 155.981 40.5533C155.76 40.7565 155.585 41.0038 155.467 41.2791C155.348 41.5545 155.289 41.8517 155.292 42.1514C155.266 43.4225 156.265 44.6357 157.206 45.3805C158.272 46.2234 161.126 46.9281 161.354 46.9816C160.945 48.6144 160.647 50.2728 160.462 51.9456C160.35 52.9179 160.265 53.9035 160.194 54.8892C160.158 54.4432 160.123 54.0284 160.114 53.9704C159.81 52.3871 158.294 49.5104 156.506 49.2874C156.207 49.2593 155.906 49.2942 155.622 49.39C155.338 49.4858 155.077 49.6403 154.857 49.8435C154.636 50.0467 154.461 50.294 154.343 50.5693C154.224 50.8446 154.165 51.1419 154.169 51.4416C154.142 52.7172 155.136 53.9258 156.082 54.6751C157.027 55.4244 159.463 56.08 160.096 56.245C160.074 56.6241 160.042 56.9988 160.02 57.3779C159.918 59.202 159.815 61.0172 159.668 62.7968C159.614 63.4212 159.538 64.0367 159.463 64.6521C159.431 64.2507 159.405 63.9073 159.396 63.8583C159.092 62.275 157.576 59.3983 155.788 59.1753C155.489 59.1471 155.188 59.182 154.904 59.2778C154.62 59.3736 154.359 59.5281 154.139 59.7313C153.918 59.9345 153.743 60.1818 153.625 60.4571C153.506 60.7325 153.447 61.0297 153.45 61.3294C153.424 62.6005 154.418 63.8137 155.359 64.5585C156.3 65.3033 158.508 65.8965 159.271 66.1016C159.177 66.726 159.083 67.3594 158.963 67.9615C158.874 68.3718 158.816 68.7776 158.7 69.1835L158.392 70.3922C158.165 71.1504 157.946 71.9353 157.696 72.6712C157.536 73.1841 157.371 73.6703 157.21 74.1609C157.268 73.5365 157.362 72.3144 157.357 72.2118C157.295 70.6018 156.234 67.5244 154.499 67.0382C154.207 66.9645 153.904 66.9533 153.608 67.0052C153.311 67.0571 153.03 67.171 152.781 67.3395C152.532 67.508 152.321 67.7272 152.163 67.9827C152.005 68.2382 151.903 68.5243 151.863 68.8222C151.644 70.0755 152.443 71.4224 153.263 72.3055C154.155 73.2733 156.773 74.3705 157.099 74.5043C156.822 75.316 156.55 76.101 156.278 76.8369C155.359 79.3657 154.494 81.444 153.865 82.8935L154.922 83.5046L154.962 83.4109C155.569 81.9257 156.403 79.7938 157.286 77.1892C157.567 76.3686 157.853 75.4855 158.138 74.5756C159.038 74.708 159.945 74.7854 160.854 74.8076C161.153 76.1456 162.616 78.331 162.803 78.6164C162.13 79.1382 161.465 79.6422 160.836 80.106C158.673 81.7116 156.822 82.9649 155.484 83.8301L156.648 84.4991C157.919 83.6071 159.587 82.4297 161.487 80.9579C162.174 80.4316 162.897 79.8518 163.637 79.2497C163.896 79.4816 166.014 81.3548 167.281 81.7518C168.432 82.1086 169.993 82.2468 171.027 81.502C171.276 81.3349 171.486 81.1175 171.645 80.8637C171.805 80.61 171.908 80.3257 171.951 80.0292C171.993 79.7327 171.972 79.4307 171.89 79.1427C171.807 78.8548 171.666 78.5873 171.473 78.3577C170.278 77.0197 167.049 77.381 165.568 78.0277C165.484 78.0634 164.583 78.5807 164.021 78.9197C164.324 78.6699 164.618 78.4335 164.913 78.1749C165.524 77.6664 166.112 77.1401 166.755 76.5782L167.647 75.7263C167.954 75.4453 168.244 75.1108 168.539 74.8031C169.226 74.0761 169.877 73.3045 170.541 72.5107C170.987 73.0414 172.597 74.9057 173.686 75.4364C174.774 75.9672 176.29 76.3284 177.423 75.7575C177.695 75.632 177.938 75.4504 178.135 75.2245C178.333 74.9986 178.48 74.7336 178.567 74.4468C178.655 74.16 178.681 73.8579 178.644 73.5604C178.606 73.2628 178.506 72.9765 178.351 72.7203C177.378 71.2039 174.127 71.0835 172.553 71.4982C172.455 71.5205 171.371 71.9442 170.769 72.1895C171.157 71.7079 171.549 71.2306 171.924 70.7311C173.012 69.295 174.065 67.8054 175.126 66.3246L176.107 64.9866C176.263 65.1784 178.128 67.4352 179.345 68.0284C180.425 68.5591 181.95 68.9204 183.087 68.3539C183.359 68.2274 183.6 68.0451 183.797 67.8191C183.993 67.5931 184.14 67.3283 184.227 67.0419C184.315 66.7555 184.341 66.4539 184.305 66.1567C184.268 65.8595 184.169 65.5733 184.015 65.3167C183.038 63.7958 179.787 63.6799 178.217 64.0902C178.101 64.1214 176.54 64.7324 176.152 64.9064C176.874 63.9162 177.601 62.935 178.36 61.9984C179.373 60.7249 180.47 59.5196 181.642 58.3903C181.714 58.4795 183.649 60.8478 184.898 61.4543C185.977 61.9806 187.503 62.3463 188.64 61.7799C188.912 61.653 189.153 61.4703 189.35 61.2437C189.546 61.0172 189.693 60.7518 189.78 60.4649C189.867 60.178 189.893 59.876 189.855 59.5785C189.818 59.281 189.718 58.9947 189.563 58.7382C188.591 57.2218 185.34 57.1014 183.765 57.5161C183.663 57.5429 182.476 58.0067 181.914 58.2387L181.861 58.1539C183.068 57.0481 184.372 56.0539 185.759 55.1836C186.517 54.693 187.266 54.2648 187.989 53.8679C188.305 54.3451 189.773 56.5126 190.834 57.1861C191.896 57.8596 193.323 58.3635 194.514 57.9175C194.798 57.8212 195.058 57.6664 195.279 57.4629C195.499 57.2595 195.674 57.0121 195.793 56.7367C195.911 56.4613 195.97 56.1641 195.967 55.8642C195.963 55.5644 195.897 55.2687 195.771 54.9962C194.969 53.3817 191.757 52.909 190.156 53.1453C190.072 53.1453 189.206 53.3906 188.577 53.5646C188.912 53.3906 189.255 53.2033 189.585 53.0428C190.807 52.4362 191.963 51.959 192.988 51.5397C193.577 51.3078 194.108 51.0937 194.612 50.9287C195.165 51.2365 197.413 52.4451 198.626 52.5522C199.839 52.6592 201.378 52.4496 202.23 51.5041C202.462 51.2942 202.645 51.036 202.766 50.7475C202.888 50.4591 202.944 50.1475 202.932 49.8347C202.92 49.522 202.839 49.2158 202.695 48.9379C202.551 48.6599 202.348 48.4168 202.1 48.226Z" fill="black"/>
</g>
<g opacity="0.2">
<path d="M177.985 161.769C176.977 161.715 174.863 162.558 174.863 162.558C174.863 162.558 175.84 163.776 175.911 163.847C176.745 164.645 178.819 165.707 179.961 165.096C180.148 164.989 180.31 164.844 180.437 164.67C180.564 164.497 180.653 164.298 180.698 164.087C180.743 163.877 180.743 163.659 180.699 163.449C180.654 163.238 180.565 163.04 180.438 162.866C179.93 162.112 178.846 161.813 177.985 161.769Z" fill="black"/>
<path d="M156.318 169.351C156.296 169.351 156.461 170.907 156.483 171.001C156.733 172.129 157.884 174.158 159.159 174.274C159.373 174.288 159.588 174.256 159.789 174.181C159.99 174.106 160.173 173.99 160.326 173.84C160.479 173.69 160.599 173.509 160.677 173.31C160.756 173.11 160.792 172.896 160.783 172.682C160.783 171.79 160.034 170.925 159.342 170.412C158.544 169.806 156.318 169.351 156.318 169.351Z" fill="black"/>
<path d="M152.863 179.426C154.111 179.105 154.923 176.919 154.994 175.764C154.994 175.666 154.919 174.096 154.896 174.105H154.87C154.999 173.762 155.137 173.391 155.275 172.986C155.53 172.232 155.811 171.375 156.056 170.425C156.327 169.398 156.538 168.355 156.689 167.303C156.866 166.132 156.938 164.947 156.903 163.762C156.903 163.762 156.903 163.735 156.903 163.722C157.033 164.079 157.416 165.06 157.456 165.136C157.996 166.157 159.642 167.812 160.913 167.584C161.124 167.542 161.323 167.455 161.497 167.329C161.672 167.204 161.818 167.043 161.927 166.858C162.035 166.672 162.103 166.466 162.125 166.252C162.148 166.038 162.126 165.822 162.059 165.618C161.814 164.726 160.873 164.119 160.07 163.807C159.178 163.454 157.059 163.575 156.894 163.584C156.825 162.386 156.676 161.194 156.448 160.016C156.319 159.325 156.172 158.633 156.002 157.937C156.123 158.245 156.234 158.517 156.252 158.553C156.792 159.574 158.438 161.229 159.709 161.001C159.919 160.958 160.118 160.871 160.292 160.745C160.466 160.62 160.612 160.459 160.72 160.274C160.829 160.088 160.896 159.882 160.92 159.668C160.943 159.455 160.921 159.239 160.855 159.035C160.61 158.143 159.673 157.536 158.866 157.224C158.058 156.912 156.257 156.97 155.779 156.996L155.592 156.198C155.28 154.931 154.968 153.665 154.7 152.416C154.606 151.97 154.526 151.524 154.446 151.1C154.553 151.368 154.647 151.595 154.664 151.631C155.204 152.652 156.845 154.307 158.121 154.08C158.331 154.036 158.53 153.949 158.704 153.823C158.879 153.698 159.025 153.537 159.133 153.352C159.241 153.166 159.309 152.96 159.332 152.747C159.355 152.533 159.333 152.317 159.267 152.113C159.017 151.221 158.081 150.614 157.278 150.302C156.475 149.99 154.843 150.043 154.276 150.07C154.21 149.624 154.138 149.178 154.094 148.732C154.094 148.433 154.027 148.143 154.018 147.84L153.978 146.948C153.978 146.382 153.978 145.793 153.978 145.24C153.978 144.852 153.978 144.486 154 144.116C154.089 144.562 154.281 145.414 154.308 145.485C154.678 146.43 155.282 147.265 156.065 147.911C156.102 148.018 156.148 148.121 156.203 148.219C156.303 148.409 156.442 148.576 156.611 148.709C156.779 148.842 156.974 148.938 157.183 148.99C157.391 149.043 157.608 149.051 157.819 149.014C158.031 148.977 158.233 148.896 158.411 148.777C159.463 148.027 159.437 145.699 159.089 144.598C159.089 144.531 158.768 143.853 158.567 143.429L159.013 144.125C159.33 144.598 159.66 145.057 160.012 145.557L160.561 146.288C160.734 146.529 160.953 146.761 161.149 147.002C161.618 147.546 162.117 148.076 162.634 148.598C162.224 148.879 160.775 149.887 160.315 150.623C159.856 151.359 159.481 152.407 159.807 153.263C159.876 153.467 159.988 153.653 160.134 153.811C160.28 153.968 160.458 154.093 160.656 154.177C160.854 154.262 161.067 154.303 161.282 154.299C161.497 154.295 161.708 154.246 161.903 154.155C163.058 153.576 163.384 151.265 163.205 150.141C163.205 150.07 162.973 149.249 162.844 148.83C163.156 149.142 163.468 149.455 163.794 149.758C164.74 150.65 165.721 151.506 166.698 152.371L167.59 153.17C167.442 153.268 165.694 154.427 165.177 155.253C164.731 155.984 164.343 157.037 164.668 157.893C164.738 158.096 164.849 158.283 164.995 158.44C165.142 158.598 165.319 158.723 165.517 158.807C165.715 158.891 165.928 158.933 166.143 158.929C166.358 158.925 166.57 158.876 166.764 158.785C167.92 158.205 168.245 155.895 168.071 154.771C168.071 154.686 167.737 153.531 167.625 153.241C168.276 153.825 168.923 154.419 169.534 155.025C170.364 155.844 171.141 156.715 171.858 157.634C171.791 157.679 169.958 158.883 169.431 159.726C168.985 160.457 168.597 161.51 168.923 162.366C168.992 162.57 169.104 162.756 169.25 162.914C169.396 163.071 169.574 163.196 169.772 163.28C169.97 163.364 170.183 163.406 170.398 163.402C170.613 163.398 170.825 163.349 171.019 163.258C172.174 162.678 172.5 160.368 172.322 159.244C172.322 159.168 172.072 158.285 171.947 157.871L172.009 157.835C172.707 158.779 173.319 159.783 173.838 160.836C174.132 161.416 174.378 161.983 174.605 162.54C174.244 162.728 172.589 163.611 172.032 164.324C171.474 165.038 171.042 165.912 171.265 166.804C171.312 167.014 171.403 167.211 171.531 167.383C171.66 167.555 171.823 167.699 172.011 167.803C172.199 167.908 172.406 167.972 172.621 167.991C172.835 168.01 173.05 167.984 173.254 167.914C174.467 167.468 175.038 165.207 174.993 164.052C174.993 163.99 174.891 163.356 174.81 162.893C174.908 163.147 175.015 163.405 175.109 163.651C175.448 164.565 175.702 165.435 175.925 166.188C176.046 166.634 176.148 167.022 176.237 167.393C175.979 167.763 174.949 169.279 174.783 170.144C174.618 171.01 174.65 172.116 175.261 172.794C175.399 172.958 175.57 173.091 175.764 173.184C175.957 173.278 176.168 173.33 176.382 173.336C176.597 173.343 176.81 173.305 177.009 173.223C177.208 173.142 177.387 173.02 177.535 172.865C178.405 171.906 177.874 169.636 177.299 168.637C177.25 168.548 176.313 167.299 176.3 167.299V167.321C176.22 166.96 176.13 166.576 176.023 166.162C175.818 165.39 175.577 164.52 175.261 163.593C174.922 162.591 174.526 161.61 174.074 160.654C173.573 159.579 172.976 158.552 172.29 157.585L172.264 157.549C172.567 157.777 173.432 158.388 173.508 158.441C174.52 158.994 176.804 159.467 177.74 158.58C177.891 158.427 178.009 158.244 178.085 158.043C178.161 157.843 178.194 157.628 178.181 157.414C178.169 157.199 178.112 156.99 178.014 156.799C177.916 156.608 177.778 156.44 177.611 156.305C176.92 155.712 175.796 155.707 174.935 155.89C173.985 156.095 172.295 157.358 172.161 157.46C171.443 156.491 170.661 155.572 169.82 154.708C169.333 154.2 168.825 153.705 168.312 153.214C168.58 153.406 168.82 153.571 168.856 153.589C169.869 154.142 172.152 154.615 173.089 153.727C173.241 153.575 173.359 153.393 173.436 153.192C173.512 152.991 173.546 152.777 173.534 152.562C173.522 152.347 173.465 152.138 173.367 151.947C173.269 151.755 173.131 151.587 172.964 151.453C172.273 150.859 171.149 150.855 170.288 151.038C169.427 151.221 167.969 152.269 167.585 152.55L166.987 151.992C166.033 151.1 165.07 150.208 164.155 149.316C163.834 149 163.526 148.679 163.219 148.357C163.455 148.527 163.665 148.665 163.691 148.683C164.704 149.236 166.987 149.709 167.924 148.817C168.076 148.665 168.194 148.482 168.271 148.282C168.348 148.081 168.381 147.866 168.369 147.652C168.358 147.437 168.301 147.227 168.202 147.036C168.104 146.845 167.967 146.677 167.799 146.542C167.103 145.949 165.979 145.949 165.123 146.132C164.267 146.315 162.951 147.26 162.492 147.595C162.188 147.256 161.881 146.917 161.6 146.573C161.417 146.337 161.221 146.127 161.047 145.873L160.561 145.16C160.244 144.691 159.909 144.205 159.611 143.741C159.401 143.416 159.209 143.104 159.013 142.791C159.33 143.108 159.963 143.715 160.025 143.759C160.94 144.459 163.125 145.271 164.187 144.535C164.36 144.408 164.504 144.246 164.611 144.059C164.717 143.872 164.783 143.665 164.803 143.451C164.824 143.237 164.799 143.022 164.73 142.818C164.662 142.614 164.551 142.427 164.405 142.269C163.812 141.574 162.701 141.404 161.841 141.458C160.895 141.516 159.098 142.457 158.875 142.577C158.554 142.055 158.241 141.547 157.96 141.061C156.979 139.402 156.221 137.975 155.708 136.967L154.887 137.274C154.898 137.297 154.909 137.32 154.923 137.341C155.467 138.354 156.261 139.785 157.305 141.458C157.63 141.989 157.987 142.546 158.362 143.117C157.88 143.554 157.423 144.017 156.993 144.504C156.123 144.058 154.241 143.875 154 143.848C154 143.237 154.04 142.644 154.067 142.064C154.169 140.133 154.325 138.532 154.45 137.404L153.558 137.743C153.465 138.849 153.362 140.312 153.313 142.033C153.291 142.653 153.282 143.318 153.282 144C153.037 144.04 151.03 144.357 150.236 144.892C149.513 145.365 148.728 146.168 148.666 147.077C148.644 147.291 148.668 147.507 148.736 147.711C148.803 147.915 148.913 148.103 149.058 148.262C149.202 148.421 149.379 148.547 149.576 148.634C149.772 148.72 149.985 148.764 150.2 148.763C151.489 148.719 152.756 146.761 153.072 145.641C153.072 145.574 153.21 144.843 153.282 144.379C153.282 144.656 153.282 144.928 153.282 145.213C153.282 145.784 153.309 146.35 153.326 146.957C153.349 147.251 153.367 147.55 153.389 147.849C153.411 148.148 153.456 148.46 153.487 148.768C153.576 149.481 153.701 150.199 153.844 150.922C153.344 150.922 151.578 150.966 150.793 151.328C150.008 151.689 149.107 152.362 148.911 153.25C148.857 153.458 148.847 153.675 148.882 153.887C148.917 154.099 148.997 154.302 149.116 154.481C149.234 154.66 149.389 154.812 149.571 154.928C149.752 155.043 149.956 155.119 150.169 155.15C151.453 155.302 153.001 153.553 153.478 152.505C153.509 152.438 153.772 151.649 153.924 151.212C154.013 151.658 154.098 152.077 154.201 152.51C154.504 153.767 154.847 155.03 155.182 156.292C155.284 156.675 155.382 157.063 155.485 157.447C155.307 157.447 153.206 157.447 152.327 157.853C151.542 158.214 150.642 158.887 150.445 159.779C150.392 159.987 150.382 160.204 150.418 160.415C150.454 160.627 150.533 160.829 150.652 161.007C150.77 161.186 150.925 161.338 151.106 161.453C151.288 161.568 151.491 161.644 151.703 161.675C152.987 161.827 154.531 160.083 155.012 159.03C155.048 158.954 155.423 157.813 155.503 157.518C155.721 158.37 155.949 159.217 156.109 160.065C156.35 161.205 156.517 162.36 156.609 163.521C156.524 163.521 154.334 163.521 153.429 163.927C152.644 164.289 151.748 164.962 151.547 165.85C151.493 166.058 151.484 166.275 151.52 166.487C151.556 166.699 151.636 166.901 151.755 167.081C151.874 167.26 152.029 167.412 152.211 167.527C152.392 167.642 152.596 167.718 152.809 167.749C154.089 167.901 155.637 166.153 156.118 165.105C156.15 165.038 156.435 164.168 156.564 163.767H156.636C156.697 164.938 156.654 166.113 156.506 167.277C156.431 167.919 156.324 168.53 156.208 169.119C155.802 169.074 153.933 168.9 153.086 169.181C152.238 169.462 151.302 170.024 151.003 170.885C150.926 171.086 150.893 171.3 150.905 171.515C150.917 171.73 150.974 171.939 151.073 172.13C151.171 172.321 151.309 172.489 151.476 172.624C151.644 172.758 151.838 172.855 152.046 172.91C153.304 173.204 155.03 171.639 155.614 170.648C155.65 170.595 155.918 170.011 156.105 169.583C156.047 169.846 155.994 170.122 155.936 170.376C155.713 171.326 155.454 172.187 155.217 172.945C155.079 173.391 154.945 173.762 154.816 174.123C154.392 174.288 152.698 174.984 152.082 175.612C151.467 176.241 150.882 177.182 151.021 178.088C151.043 178.301 151.111 178.507 151.218 178.693C151.326 178.879 151.471 179.04 151.644 179.166C151.818 179.292 152.016 179.38 152.226 179.425C152.436 179.47 152.653 179.47 152.863 179.426Z" fill="black"/>
</g>
<g opacity="0.2">
<path d="M68.7905 64.9287C69.7227 64.5362 71.2524 62.8592 71.2524 62.8592C71.2524 62.8592 69.8431 62.1858 69.7494 62.1546C68.6523 61.7978 66.3197 61.7487 65.5615 62.7923C65.4371 62.9701 65.3519 63.1724 65.3117 63.3856C65.2714 63.5988 65.277 63.8182 65.3281 64.0291C65.3791 64.24 65.4744 64.4377 65.6077 64.6089C65.741 64.7802 65.9092 64.9211 66.1011 65.0223C66.8995 65.4639 67.9922 65.2632 68.7905 64.9287Z" fill="black"/>
<path d="M84.9987 48.672C84.9987 48.672 84.1915 47.334 84.1067 47.2537C83.3887 46.3617 81.4709 45.0237 80.2622 45.4697C80.0628 45.5505 79.8826 45.6724 79.7335 45.8275C79.5844 45.9826 79.4697 46.1674 79.3969 46.3699C79.3241 46.5723 79.2948 46.7879 79.311 47.0024C79.3271 47.217 79.3883 47.4257 79.4906 47.615C79.8965 48.4311 80.9312 48.8727 81.7786 49.0332C82.7955 49.225 84.9943 48.672 84.9987 48.672Z" fill="black"/>
<path d="M83.723 38.0929C82.7374 38.9269 82.9559 41.2505 83.3974 42.3165C83.4331 42.4101 84.1913 43.7838 84.2092 43.766C84.2404 44.1317 84.2805 44.5242 84.3296 44.9523C84.4277 45.7418 84.5481 46.6338 84.7444 47.5971C84.9458 48.6355 85.2064 49.6614 85.5249 50.6701C85.8714 51.8008 86.3192 52.8979 86.8629 53.9482V53.9883C86.5953 53.7207 85.8192 53.0026 85.7523 52.9536C84.8202 52.2712 82.6303 51.4952 81.5733 52.2534C81.4027 52.3839 81.2614 52.5488 81.1588 52.7376C81.0562 52.9263 80.9944 53.1345 80.9776 53.3486C80.9608 53.5628 80.9892 53.7781 81.0611 53.9805C81.133 54.1829 81.2468 54.3679 81.3949 54.5235C82.0015 55.2059 83.1165 55.3575 83.9772 55.2906C84.9451 55.2103 86.787 54.189 86.9342 54.1043C87.5177 55.1601 88.1703 56.1762 88.8877 57.146C89.3025 57.7124 89.7396 58.2699 90.1856 58.8229C89.9447 58.5999 89.7396 58.4037 89.695 58.3769C88.7628 57.6946 86.573 56.9185 85.5159 57.6767C85.3453 57.8072 85.2041 57.9722 85.1014 58.1609C84.9988 58.3496 84.9371 58.5578 84.9202 58.772C84.9034 58.9861 84.9319 59.2014 85.0038 59.4039C85.0757 59.6063 85.1894 59.7913 85.3375 59.9469C85.9441 60.6292 87.0591 60.7809 87.9199 60.7095C88.7807 60.6382 90.3818 59.8175 90.7966 59.5722L91.3139 60.2055C92.1435 61.2135 92.9775 62.217 93.767 63.225C94.0435 63.5818 94.3066 63.9386 94.5653 64.2998C94.3512 64.0991 94.1728 63.9386 94.1416 63.9163C93.2094 63.2294 91.0196 62.4578 89.9626 63.216C89.7923 63.3469 89.6514 63.5121 89.5492 63.701C89.4469 63.8899 89.3856 64.0982 89.3692 64.3123C89.3528 64.5265 89.3817 64.7417 89.4539 64.9439C89.5262 65.1462 89.6402 65.3309 89.7886 65.4862C90.3907 66.1686 91.5057 66.3202 92.3665 66.2488C93.2273 66.1775 94.6723 65.4193 95.1718 65.1517C95.4261 65.5263 95.6847 65.9054 95.9167 66.2801C96.0683 66.5387 96.2333 66.7796 96.3627 67.0516L96.8087 67.8366C97.0629 68.345 97.326 68.8669 97.558 69.3708C97.723 69.7187 97.8746 70.0532 98.004 70.3922C97.7319 70.0354 97.1833 69.3485 97.1119 69.295C96.3681 68.6036 95.4588 68.1151 94.4716 67.8767C94.3928 67.7956 94.3062 67.7224 94.213 67.6582C94.041 67.53 93.8441 67.4395 93.6349 67.3923C93.4257 67.3452 93.2089 67.3426 92.9986 67.3846C92.7884 67.4267 92.5893 67.5125 92.4143 67.6364C92.2393 67.7604 92.0924 67.9198 91.983 68.1042C91.363 69.2415 92.4022 71.3288 93.1916 72.1673C93.2407 72.2163 93.8071 72.6935 94.1728 72.9924L93.4503 72.5464C92.9597 72.2609 92.4646 71.9889 91.9294 71.6945L91.1311 71.2931C90.8679 71.1504 90.5736 71.0389 90.2926 70.9051C89.6325 70.6196 88.9546 70.361 88.2588 70.1157C88.5086 69.6697 89.3738 68.1443 89.4675 67.2836C89.5612 66.4228 89.4407 65.3078 88.7762 64.6834C88.6248 64.5309 88.4429 64.4121 88.2425 64.3346C88.0421 64.2572 87.8276 64.2228 87.613 64.2337C87.3984 64.2447 87.1886 64.3007 86.9971 64.3981C86.8056 64.4956 86.6367 64.6323 86.5016 64.7993C85.7122 65.8251 86.4258 68.0462 87.0814 68.9917C87.1215 69.0542 87.6701 69.683 87.9734 70.022C87.5542 69.8748 87.1394 69.7276 86.7112 69.5983C85.4803 69.2147 84.2181 68.8624 82.9648 68.5101C82.5768 68.403 82.1977 68.2871 81.8141 68.1756C81.9033 68.0239 82.9737 66.2176 83.0763 65.2543C83.17 64.3979 83.0496 63.2785 82.385 62.6541C82.2336 62.502 82.0519 62.3834 81.8517 62.306C81.6515 62.2285 81.4373 62.194 81.223 62.2045C81.0086 62.215 80.7988 62.2703 80.6072 62.367C80.4155 62.4637 80.2463 62.5994 80.1104 62.7656C79.3255 63.7914 80.0346 66.0125 80.6902 66.9624C80.7437 67.0338 81.5332 67.9392 81.7428 68.1577C80.8998 67.9124 80.0614 67.6582 79.2452 67.3772C78.1411 67.0012 77.0626 66.5543 76.0161 66.0392C76.0607 65.9679 77.1847 64.0902 77.2917 63.1001C77.3854 62.2438 77.2649 61.1243 76.6004 60.4999C76.449 60.3475 76.2671 60.2286 76.0667 60.1512C75.8663 60.0737 75.6518 60.0393 75.4372 60.0502C75.2226 60.0612 75.0128 60.1172 74.8213 60.2147C74.6298 60.3121 74.4609 60.4488 74.3258 60.6159C73.5364 61.6417 74.25 63.8627 74.9056 64.8083C74.9502 64.8707 75.5523 65.562 75.8422 65.8831L75.7976 65.9411C74.7598 65.3943 73.7731 64.7555 72.8495 64.0322C72.3322 63.6397 71.8639 63.2383 71.4179 62.8369C71.6632 62.5069 72.7559 60.995 72.961 60.1163C73.1662 59.2377 73.1484 58.1495 72.5552 57.4403C72.4217 57.2725 72.2544 57.1346 72.0642 57.0356C71.8739 56.9366 71.665 56.8787 71.4509 56.8656C71.2368 56.8526 71.0224 56.8847 70.8216 56.9599C70.6207 57.0351 70.4379 57.1517 70.285 57.3021C69.393 58.2387 69.8391 60.5222 70.401 61.5391C70.4322 61.5926 70.798 62.1233 71.07 62.5024C70.8693 62.3196 70.6597 62.1323 70.4724 61.9494C69.7677 61.2759 69.1611 60.6114 68.6304 60.0182C68.3316 59.6793 68.0684 59.3671 67.8231 59.0727C67.8945 58.6267 68.1665 56.8159 67.9391 55.9507C67.7116 55.0855 67.1987 54.1176 66.3558 53.7742C66.1598 53.686 65.9473 53.6401 65.7324 53.6395C65.5174 53.639 65.3048 53.6837 65.1082 53.7708C64.9117 53.8579 64.7358 53.9854 64.5918 54.1451C64.4479 54.3048 64.3393 54.493 64.273 54.6974C63.9117 55.9418 65.3746 57.7525 66.329 58.4037C66.4138 58.4572 67.8008 59.1887 67.8053 59.1664V59.1396C68.0372 59.425 68.2825 59.7328 68.5635 60.0628C69.0808 60.6649 69.674 61.3428 70.3475 62.0386C71.0859 62.7941 71.8678 63.5059 72.689 64.1705C73.6076 64.9196 74.5912 65.5853 75.6281 66.1596H75.6638C75.2936 66.0838 74.2455 65.9143 74.1652 65.9099C73.0146 65.8519 70.7533 66.4228 70.294 67.6314C70.2241 67.8344 70.1978 68.0499 70.2167 68.2637C70.2355 68.4775 70.2992 68.685 70.4035 68.8726C70.5078 69.0602 70.6505 69.2238 70.8222 69.3527C70.9939 69.4815 71.1908 69.5728 71.4 69.6206C72.292 69.857 73.2955 69.3664 73.9735 68.8356C74.7406 68.238 75.7129 66.3693 75.7887 66.2176C76.8565 66.7771 77.9605 67.2644 79.0935 67.676C79.7536 67.9213 80.4315 68.1443 81.1005 68.3629L80.4494 68.2603C79.2942 68.2068 77.033 68.7732 76.5781 69.9819C76.5075 70.1848 76.4804 70.4004 76.4986 70.6145C76.5169 70.8286 76.58 71.0365 76.6839 71.2246C76.7879 71.4126 76.9303 71.5767 77.1018 71.7061C77.2734 71.8355 77.4703 71.9273 77.6797 71.9755C78.5717 72.2074 79.5752 71.7213 80.2576 71.1905C80.94 70.6598 81.8052 69.072 82.0416 68.6528C82.3003 68.7331 82.559 68.8178 82.8221 68.8936C84.0709 69.2772 85.3197 69.6518 86.5328 70.0577C86.9788 70.2004 87.3758 70.3565 87.795 70.5037C87.5051 70.4591 87.2643 70.4189 87.2241 70.4189C86.0735 70.361 83.8122 70.9318 83.3573 72.1405C83.2867 72.3432 83.2596 72.5584 83.2779 72.7723C83.2962 72.9861 83.3593 73.1937 83.4633 73.3814C83.5673 73.5692 83.7097 73.7328 83.8813 73.8618C84.0528 73.9907 84.2497 74.082 84.4589 74.1297C85.3509 74.366 86.3544 73.8799 87.0323 73.3447C87.7103 72.8095 88.4997 71.3823 88.7673 70.8828C89.1865 71.0567 89.6102 71.2262 90.0116 71.4135C90.2837 71.5429 90.5557 71.6544 90.8189 71.8015L91.6083 72.2208C92.0989 72.5062 92.6073 72.8006 93.0801 73.0905L94.0301 73.6837C93.5841 73.5365 92.7724 73.2644 92.6921 73.2377C91.5592 73.0057 89.24 73.2377 88.6023 74.3527C88.5028 74.5431 88.4444 74.7523 88.431 74.9667C88.4175 75.1812 88.4492 75.396 88.524 75.5974C88.5989 75.7988 88.7152 75.9822 88.8654 76.1358C89.0156 76.2894 89.1965 76.4097 89.3961 76.489C90.2302 76.8547 91.305 76.5247 92.0721 76.101C92.8972 75.655 94.1014 74.0092 94.2531 73.8041C94.7705 74.1297 95.27 74.4552 95.7383 74.7674C97.3439 75.8378 98.6417 76.7878 99.5471 77.4747L100.154 76.8413L100.091 76.7967C99.1591 76.1233 97.8166 75.1822 96.153 74.1207C95.6312 73.7862 95.0648 73.4384 94.4761 73.086C94.7199 72.4821 94.9269 71.864 95.096 71.2351C96.0728 71.2351 97.8479 70.6018 98.0798 70.5171C98.3295 71.079 98.5659 71.6231 98.7845 72.1405C99.5337 73.9245 100.091 75.432 100.47 76.5024L101.135 75.8066C100.738 74.7674 100.189 73.4071 99.4891 71.8372C99.2349 71.2708 98.9539 70.6687 98.6596 70.0532C98.8647 69.915 100.528 68.7554 101.019 67.9392C101.465 67.1988 101.822 66.1329 101.465 65.2899C101.392 65.0883 101.277 64.9043 101.128 64.7499C100.979 64.5956 100.799 64.4743 100.6 64.394C100.401 64.3136 100.187 64.276 99.9729 64.2836C99.7585 64.2912 99.5481 64.3439 99.3553 64.4381C98.2091 65.0402 97.9237 67.3549 98.1244 68.4922C98.1244 68.5591 98.3429 69.2727 98.4812 69.7187C98.3607 69.469 98.2448 69.2237 98.1155 68.9694C97.8657 68.4565 97.6025 67.957 97.3171 67.4174L96.8711 66.6413C96.7284 66.3782 96.5455 66.1195 96.385 65.8564C95.9925 65.2543 95.5643 64.6611 95.1228 64.0724C95.5688 63.8538 97.1432 63.0466 97.6917 62.3776C98.2403 61.7086 98.7621 60.7184 98.5525 59.8309C98.5105 59.6199 98.4245 59.4202 98.3001 59.2447C98.1757 59.0693 98.0156 58.922 97.8304 58.8126C97.6453 58.7032 97.4391 58.634 97.2254 58.6097C97.0116 58.5853 96.7952 58.6063 96.5901 58.6713C95.3681 59.0905 94.7392 61.3473 94.7615 62.4891C94.7615 62.5604 94.873 63.3811 94.9444 63.8271C94.6768 63.4747 94.4092 63.1224 94.1237 62.779C93.3076 61.7755 92.4513 60.7898 91.5994 59.8041C91.3363 59.5009 91.082 59.1931 90.8233 58.8898C90.9794 58.814 92.8705 57.8953 93.4993 57.1504C94.0479 56.4859 94.5653 55.4869 94.3557 54.5993C94.313 54.3887 94.2266 54.1894 94.102 54.0143C93.9774 53.8392 93.8175 53.6922 93.6325 53.5829C93.4475 53.4736 93.2415 53.4044 93.0281 53.3797C92.8146 53.355 92.5983 53.3755 92.3933 53.4397C91.1712 53.8634 90.5424 56.1157 90.5647 57.2619C90.5647 57.3467 90.7297 58.5375 90.7832 58.8363C90.2168 58.1673 89.6548 57.4983 89.133 56.807C88.4182 55.8857 87.7642 54.9188 87.1751 53.9125C87.2509 53.8768 89.2267 52.9268 89.8511 52.1642C90.3997 51.4996 90.917 50.5006 90.7074 49.613C90.6653 49.4026 90.5794 49.2034 90.4553 49.0283C90.3311 48.8532 90.1715 48.7062 89.9869 48.5968C89.8022 48.4875 89.5966 48.4182 89.3834 48.3935C89.1702 48.3688 88.9542 48.3892 88.7495 48.4534C87.5274 48.8727 86.8941 51.1294 86.9164 52.2712C86.9164 52.347 87.0413 53.2524 87.1082 53.685H87.0413C86.4759 52.6561 86.0042 51.5784 85.6319 50.4649C85.4178 49.8583 85.2483 49.2607 85.0967 48.6809C85.4803 48.5382 87.2375 47.887 87.8842 47.2582C88.5309 46.6293 89.1285 45.7239 89.017 44.8185C88.9985 44.6045 88.9352 44.3968 88.8311 44.2089C88.7269 44.0209 88.5844 43.8571 88.4127 43.7279C88.2411 43.5987 88.0441 43.5072 87.8347 43.4592C87.6253 43.4112 87.4081 43.4078 87.1974 43.4493C85.9352 43.7348 85.061 45.8979 84.9674 47.0485C84.9674 47.111 84.9674 47.7532 84.9941 48.2171C84.9272 47.9539 84.8559 47.6863 84.7979 47.4321C84.5838 46.4777 84.4455 45.5901 84.3296 44.8052C84.2671 44.3592 84.2181 43.9488 84.1779 43.5697C84.4857 43.2352 85.7077 41.8749 85.9887 41.0365C86.2697 40.198 86.3812 39.1008 85.8683 38.3605C85.6184 38.0418 85.2527 37.8348 84.8508 37.7846C84.4489 37.7345 84.0435 37.8453 83.723 38.0929Z" fill="black"/>
</g>
<path d="M159.602 164.185C184.376 139.411 184.376 99.2432 159.602 74.4687C134.827 49.6942 94.66 49.6942 69.8855 74.4687C45.111 99.2432 45.111 139.411 69.8855 164.185C94.66 188.96 134.827 188.96 159.602 164.185Z" fill="#999999" stroke="#263238" stroke-miterlimit="10"/>
<path d="M157.037 133.817C165.043 110.458 152.598 85.0303 129.238 77.0235C105.879 69.0167 80.4517 81.4624 72.4449 104.822C64.4381 128.181 76.8837 153.608 100.243 161.615C123.602 169.622 149.03 157.176 157.037 133.817Z" fill="#11305B"/>
<path d="M108.687 99.4714L113.245 100.412L114.802 102.027L116.826 102.339L117.469 104.257L116.996 105.559L115.618 106.193L112.233 105.64L112.139 105.225L113.74 104.11L112.634 102.072L109.61 101.657L108 100.274L108.687 99.4714Z" fill="white"/>
<path d="M145.419 141.529L141.828 140.936L137.467 140.383L134.255 141.097L131.111 141.146L127.958 142.604L126.116 143.121L124.979 143.376L123.079 145.102L121.192 146.391L118.003 145.249L118.083 142.189L116.139 141.828L114.069 142.274L113.552 141.413L113.342 139.5L112.388 138.608L110.983 139.139L110.8 140.267L109.061 140.762L107.094 139.241L105.921 136.922L106.813 133.68L109.864 133.234L110.854 133.773L112.094 133.497L113.432 132.221L114.872 132.333L117.477 135.138L118.177 134.87L117.441 132.533L116.549 131.432L116.317 129.416L119.783 126.909L119.448 122.958L120.808 121.245L121.625 118.569L122.615 118.123L124.653 116.04L124.573 115.188L122.94 115.657L122.445 114.899L121.303 115.153L119.635 115.956L120.166 114.426L123.56 112.584L124.18 111.469L126.138 113.427L127.28 114.149L128.618 113.413L127.699 112.205L125.179 111.134L122.057 108.904L119.078 107.718L116.496 107.856L114.979 106.888L113.231 106.844L113.115 107.29L113.561 110.34L114.203 111.286L114.007 114.805L111.567 113.61V112.089L109.159 111.536L108.008 110.608L107.95 107.905L110.47 105.06L110.127 102.531L109.007 102.888L108.075 102.116L107.419 100.631L106.675 100.689L106.626 102.437L105.533 102.883L104.195 99.3733L103.254 99.0388L101.688 98.7444L100.212 99.9397L102.723 101.447L103.53 103.12L99.1774 101.148L95.9662 98.9184L95.1367 96.1665L92.26 95.9346L90.476 97.7454C90.0407 98.1604 89.5836 98.5519 89.1067 98.9184C88.3327 99.2969 87.5323 99.6189 86.7117 99.8817L86.6894 101.737L84.3301 102.37L84.7761 103.463L88.7455 103.231L91.1985 104.971L92.0013 108.597L91.5776 112.062L92.5409 115.434L90.7569 121.156L91.814 128.854L93.7139 132.997L95.7967 136.012L97.3934 135.874L96.5014 134.335L95.4444 133.283L94.4186 131.12L95.3106 130.705L97.5897 134.112L99.3737 137.199L99.9713 139.875L102.469 141.824L106.568 143.63L112.276 143.884L114.279 145.07L115.889 146.449L118.008 147.176L120.425 147.292L122.682 146.681C122.682 146.681 122.806 147.742 122.922 148.259C123.038 148.777 121.977 150.86 121.977 150.86L121.299 153.183L122.637 155.279L125.126 155.725L129.073 158.326L130.661 158.624L131.004 160.176L131.347 160.863C139.115 157.769 145.856 152.553 150.802 145.811L150.686 145.048L152.358 139.348L150.771 138.706L145.419 141.529Z" fill="white"/>
<path d="M147.105 98.2226L145.531 96.5055L143.573 94.552L142.471 91.5371L144.403 91.4345L144.278 90.3775L142.909 90.5693L143.93 89.7977L145.014 88.7986L144.782 87.7639L143.172 86.3813L142.413 84.2093C134.757 78.1866 125.344 74.8269 115.604 74.6401C105.864 74.4534 96.3294 77.4498 88.4474 83.1746L91.2126 84.3386L90.1779 86.524L88.3003 87.3759L88.715 90.2169L87.9568 90.712L87.1719 92.0812L87.6892 93.9232L89.4955 93.7403L89.1655 95.6626L90.9227 95.2701L93.0769 90.77L93.0189 89.0439L95.8733 88.1921L96.3193 86.7872L99.254 85.8104L99.1737 83.9818L101.328 83.3931C101.328 83.3931 102.697 82.2201 103.009 82.1532C103.636 82.1484 104.262 82.1901 104.883 82.2781L106.711 83.1701L108.888 82.6884L110.498 81.1363L112.928 80.8152C113.32 80.967 113.742 81.0221 114.159 80.9758C114.677 80.8598 116.073 79.7894 116.073 79.7894L119.489 80.9892L120.939 81.6448L121.282 83.1969L122.883 83.0586L123.195 82.0105L124.68 82.3361L124.761 83.188L121.835 84.7043L124.105 86.5909L128.293 87.8353L130.305 89.5613L132.633 89.2625L132.918 88.1118L133.703 87.7238L130.55 86.2475L128.846 86.4081L130.099 85.6945L128.449 84.2093L130.184 83.7142L132.74 84.4546L133.81 86.8228L135.251 87.92L136.847 90.7164L139.497 91.8671L140.255 95.2835L142.984 96.3093L143.132 97.4733V98.8871L144.166 100.613L144.581 101.505L146.41 101.425L146.856 99.4803L147.105 98.2226Z" fill="white"/>
<path d="M146.137 87.4874L146.266 88.0805L146.119 89.8645L146.752 91.2471L147.983 91.4077L148.429 93.379L147.091 93.1337L148.024 98.7979L147.288 101.354L148.759 104.07L150.383 105.015L151.596 110.608L153.906 114.658L156.092 117.65L158.612 117.744L158.982 115.487L159.263 115.148C159.085 113.299 158.795 111.463 158.393 109.649C156.541 101.231 152.283 93.5314 146.137 87.4874Z" fill="white"/>
<path d="M122.063 92.1525L114.561 90.6674L111.578 91.4345L111.292 93.5664L109.749 92.496L107.586 93.5218L108.139 96.9827L110.302 97.9149L111.212 95.6492L113.107 96.8578L116.943 98.9407L118.232 101.808L121.684 104.627L125.872 102.937L125.421 101.407L124.101 99.8505L122.973 95.7518L123.62 93.7626L122.063 92.1525Z" fill="white"/>
<path d="M128.164 93.1873L126.518 93.1204L125.426 94.5565L126.817 97.402L128.164 97.1031V93.1873Z" fill="white"/>
<path d="M138.234 93.0178L134.296 91.934L133.297 90.8547L132.539 91.3453L133.721 93.2586L134.943 95.8142L136.633 96.0907L136.852 95.609L135.576 94.2577L138.498 94.6992L138.234 93.0178Z" fill="white"/>
<path d="M116.292 137.132L115.971 137.636L119.284 137.876L120.85 139.054L122.861 138.822L123.334 137.524L120.859 137.636L116.292 137.132Z" fill="white"/>
<path d="M125.946 137.051L123.908 138.157L124.403 138.916L127.097 138.318L127.432 137.373L126.522 137.685L125.946 137.051Z" fill="white"/>
<path d="M175.148 121.232L166.51 106.781L146.385 118.811L155.024 133.262L175.148 121.232Z" fill="white" stroke="#263238" stroke-miterlimit="10"/>
<path d="M164.953 110.305L171.184 120.728" stroke="#263238" stroke-miterlimit="10"/>
<path d="M162.896 111.531L169.127 121.959" stroke="#263238" stroke-miterlimit="10"/>
<path d="M160.842 112.758L167.077 123.185" stroke="#263238" stroke-miterlimit="10"/>
<path d="M158.785 113.989L165.02 124.416" stroke="#263238" stroke-miterlimit="10"/>
<path d="M156.734 115.215L162.965 125.643" stroke="#263238" stroke-miterlimit="10"/>
<path d="M154.678 116.446L160.908 126.874" stroke="#263238" stroke-miterlimit="10"/>
<path d="M152.621 117.673L158.856 128.1" stroke="#263238" stroke-miterlimit="10"/>
<path d="M176.476 132.145L171.965 115.924L149.376 122.205L153.886 138.426L176.476 132.145Z" fill="white" stroke="#263238" stroke-miterlimit="10"/>
<path d="M169.547 118.913L172.798 130.616" stroke="#263238" stroke-miterlimit="10"/>
<path d="M167.236 119.555L170.492 131.258" stroke="#263238" stroke-miterlimit="10"/>
<path d="M167.379 129.001L168.186 131.9" stroke="#263238" stroke-miterlimit="10"/>
<path d="M164.932 120.197L167.113 128.033" stroke="#263238" stroke-miterlimit="10"/>
<path d="M164.053 125.964L165.881 132.542" stroke="#263238" stroke-miterlimit="10"/>
<path d="M162.625 120.839L163.62 124.407" stroke="#263238" stroke-miterlimit="10"/>
<path d="M162.02 127.587L163.576 133.185" stroke="#263238" stroke-miterlimit="10"/>
<path d="M160.32 121.477L161.721 126.521" stroke="#263238" stroke-miterlimit="10"/>
<path d="M159.275 126.66L161.265 133.822" stroke="#263238" stroke-miterlimit="10"/>
<path d="M158.014 122.119L158.928 125.406" stroke="#263238" stroke-miterlimit="10"/>
<path d="M158.299 132.092L158.959 134.465" stroke="#263238" stroke-miterlimit="10"/>
<path d="M155.703 122.762L158.058 131.227" stroke="#263238" stroke-miterlimit="10"/>
<path d="M111.831 85.1044L128.092 80.7411L122.016 58.0959L105.754 62.4592L111.831 85.1044Z" fill="white" stroke="#263238" stroke-miterlimit="10"/>
<path d="M122.49 78.9866L113.396 81.4263" stroke="#263238" stroke-miterlimit="10"/>
<path d="M125.13 78.2775L123.895 78.612" stroke="#263238" stroke-miterlimit="10"/>
<path d="M119.555 77.2963L112.775 79.1159" stroke="#263238" stroke-miterlimit="10"/>
<path d="M124.511 75.9672L121.072 76.8904" stroke="#263238" stroke-miterlimit="10"/>
<path d="M114.823 76.0876L112.156 76.8012" stroke="#263238" stroke-miterlimit="10"/>
<path d="M123.885 73.6525L116.896 75.5301" stroke="#263238" stroke-miterlimit="10"/>
<path d="M119.095 72.4617L111.535 74.491" stroke="#263238" stroke-miterlimit="10"/>
<path d="M123.265 71.3422L120.121 72.1851" stroke="#263238" stroke-miterlimit="10"/>
<path d="M122.646 69.0319L110.912 72.1762" stroke="#263238" stroke-miterlimit="10"/>
<path d="M122.025 66.7172L110.291 69.8659" stroke="#263238" stroke-miterlimit="10"/>
<path d="M121.406 64.4069L109.672 67.5512" stroke="#263238" stroke-miterlimit="10"/>
<path d="M81.9665 114.942L83.6387 98.1885L60.3084 95.8598L58.6362 112.613L81.9665 114.942Z" fill="white" stroke="#263238" stroke-miterlimit="10"/>
<path d="M79.639 106.648L79.0859 112.178" stroke="#263238" stroke-miterlimit="10"/>
<path d="M80.2936 100.091L79.7852 105.189" stroke="#263238" stroke-miterlimit="10"/>
<path d="M76.886 110.113L76.7031 111.942" stroke="#263238" stroke-miterlimit="10"/>
<path d="M77.9115 99.855L77.0195 108.797" stroke="#263238" stroke-miterlimit="10"/>
<path d="M74.6924 108.017L74.3223 111.705" stroke="#263238" stroke-miterlimit="10"/>
<path d="M75.5298 99.6186L74.9277 105.631" stroke="#263238" stroke-miterlimit="10"/>
<path d="M72.9251 101.594L71.9395 111.469" stroke="#263238" stroke-miterlimit="10"/>
<path d="M73.1494 99.3777L73.0156 100.72" stroke="#263238" stroke-miterlimit="10"/>
<path d="M70.7628 99.1414L69.5586 111.228" stroke="#263238" stroke-miterlimit="10"/>
<path d="M68.3819 98.905L67.1777 110.992" stroke="#263238" stroke-miterlimit="10"/>
<path d="M65.9991 98.6641L64.7949 110.755" stroke="#263238" stroke-miterlimit="10"/>
<path d="M108.574 211.056C108.574 211.056 119.224 212.002 124.808 204.188C130.392 196.374 129.785 182.735 128.737 177.298H85.2745C85.2745 177.298 84.4851 212.769 108.574 211.056Z" fill="white" stroke="#263238" stroke-miterlimit="10"/>
<path d="M126.275 155.208C126.275 155.208 124.674 152.001 124.674 151.702C124.674 151.404 126.378 147.688 125.776 146.591C125.174 145.494 123.269 144.187 122.654 143.786C122.038 143.385 119.447 144.986 118.64 145.49C117.832 145.994 118.64 146.591 118.938 146.591L120.722 146.292C120.24 146.713 119.802 147.183 119.416 147.693C119.219 148.094 119.416 149.499 119.416 149.798C119.416 150.097 119.518 150.199 119.92 150.69C120.321 151.181 120.018 151.694 120.919 152.996C121.765 154.354 122.535 155.758 123.225 157.202L126.275 155.208Z" fill="white" stroke="#263238" stroke-miterlimit="10"/>
<path d="M129.384 145.574L117.561 146.676" stroke="#263238" stroke-miterlimit="10"/>
<path d="M123.471 148.38C123.471 148.38 122.771 144.972 122.071 144.874C121.371 144.776 118.663 146.078 118.949 146.578C119.234 147.077 120.733 146.279 120.733 146.279C120.733 146.279 118.628 149.682 119.93 150.686" fill="white"/>
<path d="M123.471 148.38C123.471 148.38 122.771 144.972 122.071 144.874C121.371 144.776 118.663 146.078 118.949 146.578C119.234 147.077 120.733 146.279 120.733 146.279C120.733 146.279 118.628 149.682 119.93 150.686" stroke="#263238" stroke-miterlimit="10"/>
<path d="M116.012 137.06H99.1758V160.507H116.012V137.06Z" fill="white" stroke="#263238" stroke-miterlimit="10"/>
<path d="M101.402 140.2H113.547" stroke="#263238" stroke-miterlimit="10"/>
<path d="M108.551 142.595H113.546" stroke="#263238" stroke-miterlimit="10"/>
<path d="M101.402 142.595H107.678" stroke="#263238" stroke-miterlimit="10"/>
<path d="M111.277 144.99H113.547" stroke="#263238" stroke-miterlimit="10"/>
<path d="M101.402 144.99H109.966" stroke="#263238" stroke-miterlimit="10"/>
<path d="M106.584 147.381H113.546" stroke="#263238" stroke-miterlimit="10"/>
<path d="M101.402 147.381H105.385" stroke="#263238" stroke-miterlimit="10"/>
<path d="M101.402 149.776H113.547" stroke="#263238" stroke-miterlimit="10"/>
<path d="M101.402 152.171H113.547" stroke="#263238" stroke-miterlimit="10"/>
<path d="M101.402 154.566H113.547" stroke="#263238" stroke-miterlimit="10"/>
<path d="M91.875 157.532L94.8186 153.228C94.8186 153.228 95.6125 148.696 95.6125 148.13C95.6125 147.564 99.0155 143.75 99.0155 143.75V146.921C99.0155 146.921 99.8049 145.864 100.483 144.843C101.161 143.822 101.732 143.951 101.616 145.07C101.5 146.19 99.8049 148.58 99.8049 148.58C99.8049 148.58 100.483 149.602 100.032 151.413C99.5819 153.223 96.8613 155.15 96.8613 155.15L95.501 159.57L91.875 157.532Z" fill="white" stroke="#263238" stroke-miterlimit="10"/>
<path d="M98.9179 147.109L97.0625 149.116" stroke="#263238" stroke-miterlimit="10"/>
<path d="M137.1 171.929C133.693 167.121 126.797 154.392 126.797 154.392L122.288 158.103L128.14 175.336L119.523 175.537L108.672 175.894L97.8209 175.537L89.1997 175.336L96.8174 159.405L92.3217 155.694L80.3957 172.531C76.9882 177.339 74.9857 180.559 75.6859 181.95C76.3861 183.342 89.9178 187.962 89.9178 187.962L94.6275 199.585H122.726L127.435 187.962C127.435 187.962 140.962 183.351 141.663 181.95C142.363 180.55 140.49 176.741 137.1 171.929Z" fill="white" stroke="#263238" stroke-miterlimit="10"/>
<path d="M128.141 175.336C128.141 175.336 136.396 176.339 139.005 178.342" stroke="#263238" stroke-miterlimit="10"/>
<path d="M89.2003 175.336C89.2003 175.336 82.0866 176.438 79.2812 178.458" stroke="#263238" stroke-miterlimit="10"/>
<path d="M114.652 187.36C114.652 187.36 108.14 194.175 104.131 196.378" stroke="#263238" stroke-miterlimit="10"/>
<path d="M110.045 189.965L105.732 193.876" stroke="#263238" stroke-miterlimit="10"/>
<path d="M89.9035 187.962L86.4961 184.354" stroke="#263238" stroke-miterlimit="10"/>
<path d="M130.486 183.654L127.439 187.962" stroke="#263238" stroke-miterlimit="10"/>
<path d="M86.1934 198.671C86.1934 198.671 87.3128 202.734 91.8977 207.756C94.1277 210.186 96.768 213.514 104.047 214.731C111.107 215.909 117.36 214.41 120.741 212.086C124.384 209.58 127.819 204.268 130.668 199.094L129.719 196.24L87.567 196.347L86.1934 198.671Z" fill="#263238"/>
<path d="M88.6236 194.657C94.8676 195.268 113.765 196.775 127.711 194.184C128.104 194.11 128.507 194.115 128.898 194.199C129.289 194.282 129.659 194.442 129.987 194.67C130.316 194.898 130.595 195.189 130.81 195.526C131.025 195.863 131.171 196.239 131.239 196.633C131.306 197.028 131.294 197.433 131.202 197.823C131.111 198.213 130.943 198.582 130.707 198.906C130.472 199.231 130.174 199.505 129.831 199.712C129.488 199.92 129.107 200.057 128.71 200.116C121.837 201.124 104.412 203.05 87.8877 199.804C87.5277 199.734 87.1864 199.588 86.8862 199.378C86.5859 199.167 86.3333 198.896 86.1448 198.581C85.9564 198.266 85.8362 197.916 85.7923 197.551C85.7483 197.187 85.7815 196.818 85.8896 196.468C86.0674 195.897 86.4364 195.406 86.9345 195.076C87.4325 194.746 88.0291 194.598 88.6236 194.657Z" fill="#263238"/>
<path d="M111.946 150.485C111.946 150.485 110.947 147.978 107.339 149.285C103.73 150.592 102.027 151.488 101.826 154.896C101.625 158.303 98.3204 163.816 98.82 167.522C99.3195 171.228 100.524 170.426 100.122 172.33C99.7209 174.234 97.1162 174.734 97.1162 174.734L96.1172 174.234C97.0109 175.68 98.0159 177.053 99.1232 178.342C100.724 180.148 102.928 180.947 106.736 181.95C110.545 182.954 113.351 182.45 116.156 180.746C118.961 179.042 120.464 177.74 120.866 175.724L121.267 173.721C121.267 173.721 119.265 173.017 119.265 172.018C119.265 171.019 121.566 168.708 121.967 165.604C122.369 162.5 121.468 156.885 118.845 153.076C116.223 149.267 113.449 149.486 111.946 150.485Z" fill="#263238"/>
<path d="M148.525 54.4507L132.119 60.6727L140.658 83.1874L157.064 76.9654L148.525 54.4507Z" fill="white" stroke="#263238" stroke-miterlimit="10"/>
<path d="M139.662 71.1436L137.768 71.8455L139.725 77.1276L141.619 76.4257L139.662 71.1436Z" fill="#263238"/>
<path d="M143.389 72.0706L141.494 72.7725L142.698 76.0221L144.593 75.3201L143.389 72.0706Z" fill="#263238"/>
<path d="M145.619 68.9344L143.725 69.6364L145.682 74.9184L147.576 74.2165L145.619 68.9344Z" fill="#263238"/>
<path d="M147.242 64.1751L145.348 64.877L148.659 73.8143L150.554 73.1124L147.242 64.1751Z" fill="#263238"/>
<path d="M149.817 60.3872L147.918 61.0943L152.162 72.4934L154.061 71.7863L149.817 60.3872Z" fill="#263238"/>
<path d="M135.424 62.9707L146.106 59.0727" stroke="#263238" stroke-linecap="round" stroke-linejoin="round"/>
<path d="M136.146 64.8484L146.828 60.9503" stroke="#263238" stroke-linecap="round" stroke-linejoin="round"/>
<path d="M159.271 74.9012L157.166 73.59C157.166 73.59 156.751 70.6107 156.421 70.2806C156.091 69.9506 154.191 68.1265 153.857 67.7161C153.522 67.3058 153.361 66.2265 153.112 66.2265C152.862 66.2265 151.952 67.2166 152.282 68.626C152.412 69.0628 152.634 69.4664 152.934 69.8091C153.235 70.1517 153.605 70.4252 154.022 70.6107C154.022 70.6107 153.13 74.3348 153.692 75.1599C154.182 75.7737 154.768 76.3052 155.426 76.7343L157.911 78.5539L159.895 75.3294L159.271 74.9012Z" fill="#999999" stroke="#263238" stroke-miterlimit="10"/>
<path d="M206.013 91.7912C205.844 91.2828 205.505 88.9101 202.793 88.5711C200.082 88.2322 198.391 91.1133 198.391 91.1133C198.391 91.1133 191.781 98.3965 190.087 100.6C188.392 102.803 186.363 106.358 182.295 108.391C180.759 109.093 179.141 109.598 177.478 109.894C179.081 120.429 177.988 131.197 174.303 141.195C179.102 141.846 184.645 142.475 186.024 142.087C188.566 141.409 189.592 140.057 190.765 138.193C191.938 136.329 205.844 118.707 206.183 118.029C207.096 116.301 207.834 114.486 208.386 112.611C209.233 109.747 206.183 92.322 206.013 91.7912Z" fill="#263238"/>
<path d="M180.43 128.047C179.538 127.337 178.762 125.692 178.035 123.836C177.627 129.71 176.399 135.497 174.387 141.03C178.08 141.311 183.026 140.918 184.689 139.397C186.723 137.533 188.257 133.635 188.257 133.635C188.257 133.635 182.972 130.076 180.43 128.047Z" fill="#11305B" stroke="#263238" stroke-miterlimit="10"/>
<path d="M185.706 76.7789C184.729 76.7789 182.713 77.7556 182.504 77.9608C182.294 78.166 171.653 80.4673 171.653 80.4673C171.653 80.4673 163.656 76.712 162.612 76.3641C161.568 76.0162 159.272 74.9012 159.272 74.9012L156.77 78.7279L161.23 81.9971C161.23 81.9971 167.768 86.7247 170.48 88.2411C173.191 89.7575 180.969 88.424 180.969 88.424L188.293 77.6352C187.483 77.2096 186.609 76.9203 185.706 76.7789Z" fill="white" stroke="#263238" stroke-miterlimit="10"/>
<path d="M180.595 86.5775L180.421 88.2589C180.421 88.2589 179.654 97.9282 179.529 99.177C179.404 100.426 178.347 107.526 178.347 107.526C178.347 107.526 177.968 108.864 177.566 110.367C178.376 115.993 178.423 121.703 177.705 127.342C179.203 129.36 180.81 131.295 182.517 133.14C183.561 134.326 185.858 135.923 186.83 135.508C187.802 135.093 190.657 131.61 190.657 131.61C190.657 131.61 194.135 124.028 194.969 122.289C195.803 120.549 203.889 108.726 204.781 107.125C205.673 105.524 205.548 104.551 204.576 102.812C203.604 101.073 198.854 89.0929 198.363 87.862C197.873 86.631 188.418 78.6119 188.418 78.6119C188.001 78.1888 187.554 77.7967 187.08 77.439L186.549 78.2997L182.731 81.0337" fill="white"/>
<path d="M180.595 86.5775L180.421 88.2589C180.421 88.2589 179.654 97.9282 179.529 99.177C179.404 100.426 178.347 107.526 178.347 107.526C178.347 107.526 177.968 108.864 177.566 110.367C178.376 115.993 178.423 121.703 177.705 127.342C179.203 129.36 180.81 131.295 182.517 133.14C183.561 134.326 185.858 135.923 186.83 135.508C187.802 135.093 190.657 131.61 190.657 131.61C190.657 131.61 194.135 124.028 194.969 122.289C195.803 120.549 203.889 108.726 204.781 107.125C205.673 105.524 205.548 104.551 204.576 102.812C203.604 101.073 198.854 89.0929 198.363 87.862C197.873 86.631 188.418 78.6119 188.418 78.6119C188.001 78.1888 187.554 77.7967 187.08 77.439L186.549 78.2997L182.731 81.0337" stroke="#263238" stroke-miterlimit="10"/>
<path d="M189.948 92.2239L186.331 90.8323L187.446 97.6472C187.446 97.6472 184.199 108.637 184.199 108.846C184.199 109.056 183.365 110.309 182.25 111.353C181.135 112.396 180.721 113.092 178.981 114.274C178.633 114.51 178.33 114.72 178.062 114.925C178.178 116.558 178.228 118.19 178.219 119.809L179.606 120.184C179.606 120.184 183.294 116.914 185.172 112.673C187.049 108.431 187.259 107.107 187.607 103.753C187.759 101.996 188.038 100.252 188.441 98.5348C188.512 98.2582 192.615 95.056 192.615 95.056L189.948 92.2239Z" fill="#263238"/>
<path d="M187.374 84.4991C187.374 84.4991 186.192 87.0056 185.983 87.6211C185.632 88.4315 185.238 89.2221 184.801 89.9894C184.801 89.9894 187.307 91.7957 187.86 92.2194C188.413 92.6431 191.201 94.5118 191.201 94.5118L193.079 97.9906C193.079 97.9906 193.913 96.7374 195.094 93.1917C196.276 89.646 196.348 87.8397 196.629 87.3937C196.91 86.9477 195.166 84.8202 193.355 83.7766C191.544 82.733 189.042 82.5947 188.489 83.2236L187.374 84.4991Z" fill="white" stroke="#263238" stroke-miterlimit="10"/>
<path d="M187.654 88.6737C187.654 88.6737 188.069 91.7957 188.546 93.0579C189.024 94.3201 189.313 94.3959 190.076 93.8919C190.839 93.3879 192.721 90.9706 192.721 90.9706L187.654 88.6737Z" fill="white" stroke="#263238" stroke-miterlimit="10"/>
<path d="M201.375 84.0665C201.375 84.0665 202.923 81.4485 203.993 83.2325C205.064 85.0165 203.159 86.8005 201.852 87.1573C201.07 87.371 200.275 87.5304 199.471 87.6345L201.375 84.0665Z" fill="#999999" stroke="#263238" stroke-miterlimit="10"/>
<path d="M188.841 76.3284C188.841 76.3284 189.684 73.4071 187.65 73.8531C185.616 74.2991 185.625 76.9037 186.263 78.099C186.641 78.8161 187.07 79.5048 187.548 80.1595L188.841 76.3284Z" fill="#999999" stroke="#263238" stroke-miterlimit="10"/>
<path d="M193.524 67.5333C193.524 67.5333 189.243 69.2013 188.172 73.1261C187.102 77.0509 186.032 81.9257 186.625 84.5437C187.218 87.1617 187.338 89.6549 188.172 90.4889C189.006 91.3229 189.359 92.1525 191.62 91.9161C193.881 91.6797 198.399 89.5389 199.469 87.6345C200.54 85.7301 202.801 83.9461 203.635 78.4781C204.469 73.0102 204.585 70.7445 201.138 68.3673C197.69 65.9901 193.524 67.5333 193.524 67.5333Z" fill="#999999" stroke="#263238" stroke-miterlimit="10"/>
<path d="M190.643 82.345C190.643 82.345 189.389 84.3609 190.018 85.4045C190.647 86.4482 192.52 86.9343 193.845 86.0334" stroke="#263238" stroke-miterlimit="10"/>
<path d="M188.627 86.1716C188.627 86.1716 188.975 87.911 191.2 88.1162C193.426 88.3214 194.679 87.4204 194.679 87.4204" stroke="#263238" stroke-miterlimit="10"/>
<path d="M192.107 78.6565C192.107 78.6565 190.644 75.6683 188.904 75.8735" stroke="#263238" stroke-miterlimit="10"/>
<path d="M195.236 79.7002C195.236 79.7002 198.225 79.2141 199.754 81.0917" stroke="#263238" stroke-miterlimit="10"/>
<path d="M190.506 79.3523C190.506 79.8919 190.256 80.329 189.948 80.329C189.64 80.329 189.391 79.883 189.391 79.3523C189.391 78.8215 189.64 78.38 189.948 78.38C190.256 78.38 190.506 78.8171 190.506 79.3523Z" fill="#263238"/>
<path d="M196.637 83.0095C196.396 83.4912 195.982 83.7722 195.705 83.6339C195.429 83.4956 195.402 82.9961 195.643 82.5144C195.884 82.0328 196.298 81.7518 196.575 81.89C196.851 82.0283 196.878 82.51 196.637 83.0095Z" fill="#263238"/>
<path d="M201.148 68.3673C197.696 65.9901 193.534 67.5333 193.534 67.5333C193.534 67.5333 189.253 69.2013 188.182 73.1261C188.075 73.5186 187.968 73.9289 187.861 74.3392C188.196 74.2991 190.056 74.0538 190.305 73.2332C190.679 72.0659 191.269 70.9796 192.045 70.0309C192.812 69.1969 194.69 73.1529 197.192 73.0949C199.694 73.0369 202.41 73.2332 202.272 73.8576C202.133 74.482 200.604 78.2417 201.09 79.2854C201.576 80.329 202.133 80.329 202.133 81.163C202.113 81.8156 202.043 82.4657 201.924 83.1076L202.334 83.063C202.978 81.6083 203.416 80.0713 203.636 78.496C204.466 73.0057 204.586 70.7445 201.148 68.3673Z" fill="#263238"/>
<path d="M199.206 108.093C199.206 108.093 192.173 112.396 191.923 113.556C191.673 114.716 189.274 121.004 190.183 124.314C191.093 127.623 195.482 131.182 197.632 129.362C199.781 127.543 199.951 123.654 201.026 119.43C202.101 115.206 205.16 107.513 205.16 106.358C205.193 105.739 205.019 105.127 204.665 104.618" fill="white"/>
<path d="M199.206 108.093C199.206 108.093 192.173 112.396 191.923 113.556C191.673 114.716 189.274 121.004 190.183 124.314C191.093 127.623 195.482 131.182 197.632 129.362C199.781 127.543 199.951 123.654 201.026 119.43C202.101 115.206 205.16 107.513 205.16 106.358C205.193 105.739 205.019 105.127 204.665 104.618" stroke="#263238" stroke-miterlimit="10"/>
<path d="M190.02 117.115C190.02 117.115 197.223 124.064 197.718 125.638C198.213 127.213 198.298 128.782 196.888 130.352C195.479 131.922 193.089 133.827 190.644 131.592C188.2 129.358 187.375 123.899 187.206 122.329C187.034 121.046 186.785 119.774 186.461 118.52L189.03 116.451L190.02 117.115Z" fill="white" stroke="#263238" stroke-miterlimit="10"/>
<path d="M189.39 114.203C189.39 114.203 187.583 113.855 186.816 114.551C186.198 115.171 185.703 115.904 185.358 116.709C184.854 117.515 184.053 118.089 183.128 118.306C182.013 118.587 181.317 119.978 182.78 120.326C184.243 120.674 186.464 120.531 187.717 119.84C188.575 119.423 189.316 118.801 189.876 118.029C190.5 117.262 190.919 116.776 191.267 116.638C191.615 116.5 191.892 116.638 192.726 116.219C193.56 115.799 194.465 115.108 194.117 114.484C193.769 113.859 193.56 113.926 192.378 114.274C191.793 114.467 191.186 114.584 190.572 114.622L189.39 114.203Z" fill="#999999" stroke="#263238" stroke-miterlimit="10"/>
<path d="M180.988 118.293C180.988 118.293 180.689 116.352 181.139 115.719C181.59 115.086 181.96 115.795 181.996 116.54C182.028 117.173 182.142 117.8 182.335 118.404C182.446 118.667 182.781 118.814 183.155 118.966C183.53 119.118 183.677 119.599 183.08 119.751C182.482 119.903 181.808 119.599 181.742 119.412C181.675 119.225 180.988 118.293 180.988 118.293Z" fill="#999999" stroke="#263238" stroke-miterlimit="10"/>
<path d="M184.546 120.594C184.546 120.594 182.998 120.54 182.535 120.273C182.237 120.042 181.99 119.751 181.812 119.419C181.633 119.087 181.525 118.722 181.495 118.346C181.437 117.543 181.428 117.071 182.093 117.32C182.758 117.57 182.686 118.052 182.985 118.658C183.284 119.265 183.462 119.747 183.663 119.733C183.886 119.768 184.1 119.849 184.292 119.97C184.292 119.97 185.037 120.42 184.546 120.594Z" fill="#999999" stroke="#263238" stroke-miterlimit="10"/>
<path d="M187.723 119.84C187.302 120.184 186.833 120.465 186.331 120.674C185.707 120.879 184.338 120.491 183.655 119.938C182.973 119.385 180.302 118.48 181.938 117.882C183.169 117.436 184.4 118.797 185.163 119.144C185.926 119.492 187.041 118.654 187.322 118.516" fill="#999999"/>
<path d="M187.723 119.84C187.302 120.184 186.833 120.465 186.331 120.674C185.707 120.879 184.338 120.491 183.655 119.938C182.973 119.385 180.302 118.48 181.938 117.882C183.169 117.436 184.4 118.797 185.163 119.144C185.926 119.492 187.041 118.654 187.322 118.516" stroke="#263238" stroke-miterlimit="10"/>
<path d="M189.881 118.029C189.881 118.029 189.462 118.797 188.989 119.697C188.516 120.598 188.097 120.326 187.736 119.84C187.374 119.354 184.257 117.543 184.257 117.543C184.257 117.543 183.98 116.651 185.372 116.709C186.763 116.767 188.431 118.306 188.431 118.306" fill="#999999"/>
<path d="M189.881 118.029C189.881 118.029 189.462 118.797 188.989 119.697C188.516 120.598 188.097 120.326 187.736 119.84C187.374 119.354 184.257 117.543 184.257 117.543C184.257 117.543 183.98 116.651 185.372 116.709C186.763 116.767 188.431 118.306 188.431 118.306" stroke="#263238" stroke-miterlimit="10"/>
<path d="M120.174 7.88084C120.174 7.88084 122.217 4.93278 127.31 8.44726C132.403 11.9617 129.803 17.064 128.202 18.9907C126.601 20.9174 126.842 20.1235 131.373 22.3892C135.904 24.6549 133.866 29.4182 132.622 30.667C131.377 31.9158 132.849 32.005 134.321 34.4045C135.793 36.8039 133.639 40.9785 131.6 42.2273C129.562 43.4761 124.255 44.2655 119.496 42.816C114.737 41.3665 115.121 32.8613 116.432 26.4924C117.743 20.1235 119.041 15.61 118.136 13.1124C117.23 10.6148 119.041 7.54188 120.174 7.88084Z" fill="#263238"/>
<path d="M122.78 56.3834L129.969 32.2102L117.793 28.1962L109.618 29.7482C109.618 29.7482 97.4425 33.8336 96.9519 34.9798C96.5059 35.9789 103.562 52.4095 105.363 56.5796C111.132 55.7108 116.993 55.6448 122.78 56.3834Z" fill="#11305B" stroke="#263238" stroke-linecap="round" stroke-linejoin="round"/>
<path d="M123.162 29.9712L117.81 28.1872L109.635 29.7393C109.635 29.7393 107.128 30.5911 104.363 31.6125C104.55 34.6895 105.279 37.7094 106.517 40.5325C109.193 46.9058 115.344 52.9536 115.344 52.9536C115.344 52.9536 121.467 46.5089 123.095 37.4372C123.592 34.9755 123.615 32.4415 123.162 29.9712Z" fill="#11305B" stroke="#263238" stroke-linecap="round" stroke-linejoin="round"/>
<path d="M109.697 30.7517L110.496 34.3375" stroke="#263238" stroke-linecap="round" stroke-linejoin="round"/>
<path d="M109.618 29.7572L108.762 30.0471C108.849 33.1791 109.298 36.2906 110.1 39.3194C111.817 46.1833 115.331 50.2687 115.331 50.2687C115.331 50.2687 118.926 39.81 119.417 35.1493C119.642 32.9915 119.575 30.8131 119.216 28.6734L117.784 28.2051L109.618 29.7572Z" fill="white" stroke="#263238" stroke-linecap="round" stroke-linejoin="round"/>
<path d="M118.015 41.6252C115.63 42.1302 113.166 42.1302 110.781 41.6252C111.78 44.7538 113.323 47.6814 115.339 50.2731C115.339 50.2731 116.825 45.938 118.015 41.6252Z" stroke="#263238" stroke-linecap="round" stroke-linejoin="round"/>
<path d="M122.051 18.8569C122.051 18.8569 123.3 15.9088 122.845 13.5317C122.39 11.1545 123.291 8.20642 117.047 5.82478C110.803 3.44314 108.208 6.95762 105.83 9.90568C103.453 12.8537 103.694 13.9821 103.471 14.776C103.248 15.5699 101.205 14.776 100.072 17.0417C98.9396 19.3074 99.3945 20.2172 102.227 21.2385C103.373 21.6909 104.547 22.0693 105.741 22.3714L116.111 20.7792C116.111 20.7792 116.619 19.7623 117.297 20.7792C117.975 21.796 118.091 22.251 119.451 22.251C120.811 22.251 120.923 21.573 120.923 21.573L122.051 18.8569Z" fill="#263238"/>
<path d="M105.055 19.9898C105.055 19.9898 106.754 26.3363 107.775 28.0178C108.797 29.6992 111.174 33.2315 112.873 33.459C114.572 33.6864 118.426 30.2834 119.117 28.3567C119.808 26.43 120.928 21.5597 120.928 21.5597C120.311 21.6758 119.674 21.5978 119.104 21.3366C118.533 21.0754 118.058 20.6438 117.743 20.1013C117.196 19.1233 116.56 18.1976 115.843 17.3361C115.843 17.3361 117.119 19.3564 110.607 21.0334C106.674 22.0547 105.055 19.9898 105.055 19.9898Z" fill="white" stroke="#263238" stroke-linecap="round" stroke-linejoin="round"/>
<path d="M120.919 21.5775C120.919 21.5775 121.485 18.5179 122.052 18.8569C122.618 19.1959 123.185 19.7489 122.395 21.35C121.984 22.248 121.361 23.0331 120.58 23.638L120.919 21.5775Z" fill="white" stroke="#263238" stroke-linecap="round" stroke-linejoin="round"/>
<path d="M111.352 27.206C111.352 27.206 111.161 29.1327 111.477 29.3869C111.794 29.6412 113.083 28.6823 113.083 28.6823" stroke="#263238" stroke-linecap="round" stroke-linejoin="round"/>
<path d="M114.497 29.7527C114.005 30.1718 113.395 30.4278 112.751 30.4853C112.107 30.5428 111.461 30.399 110.902 30.0738" stroke="#263238" stroke-linecap="round" stroke-linejoin="round"/>
<path d="M114.729 25.2213C114.729 25.6272 114.483 25.9572 114.176 25.9572C113.868 25.9572 113.627 25.6272 113.627 25.2213C113.627 24.8155 113.872 24.4854 114.176 24.4854C114.479 24.4854 114.729 24.8155 114.729 25.2213Z" fill="#263238"/>
<path d="M109.617 25.6093C109.923 25.6093 110.171 25.2798 110.171 24.8734C110.171 24.467 109.923 24.1375 109.617 24.1375C109.312 24.1375 109.064 24.467 109.064 24.8734C109.064 25.2798 109.312 25.6093 109.617 25.6093Z" fill="#263238"/>
<path d="M113.213 23.3927C113.657 23.2237 114.132 23.148 114.607 23.1702C115.082 23.1925 115.547 23.3122 115.974 23.522" stroke="#263238" stroke-linecap="round" stroke-linejoin="round"/>
<path d="M110.388 23.589C110.388 23.589 109.358 22.251 107.561 23.201" stroke="#263238" stroke-linecap="round" stroke-linejoin="round"/>
<path d="M143.535 39.248L144.271 37.2856C144.271 37.2856 144.436 35.2429 144.597 34.507C144.757 33.7711 145.658 33.3608 146.479 32.4644C147.299 31.5679 147.951 30.1719 148.356 30.5822C148.762 30.9926 148.767 31.3984 148.441 31.9738C148.187 32.3905 147.968 32.8276 147.786 33.2805C147.705 33.5258 151.8 31.7285 151.8 31.7285C151.8 31.7285 153.584 29.601 154.03 30.0916C154.476 30.5822 153.784 33.1155 153.454 34.177C152.98 35.4876 152.09 36.6074 150.921 37.3659C149.859 37.9368 146.59 39.1499 146.59 39.1499L145.364 41.2773L143.535 39.248Z" fill="white" stroke="#263238" stroke-linecap="round" stroke-linejoin="round"/>
<path d="M145.842 37.4373C145.842 37.4373 147.314 36.1305 148.46 35.8852C149.45 35.6042 150.408 35.2216 151.319 34.7434C151.319 34.7434 152.545 30.6536 152.79 31.3092C153.036 31.9648 152.871 33.5972 152.545 34.7434C152.289 35.7653 151.716 36.68 150.908 37.357" fill="white"/>
<path d="M145.842 37.4373C145.842 37.4373 147.314 36.1305 148.46 35.8852C149.45 35.6042 150.408 35.2216 151.319 34.7434C151.319 34.7434 152.545 30.6536 152.79 31.3092C153.036 31.9648 152.871 33.5972 152.545 34.7434C152.289 35.7653 151.716 36.68 150.908 37.357" stroke="#263238" stroke-linecap="round" stroke-linejoin="round"/>
<path d="M129.969 32.2101L135.526 48.4713L143.554 39.2391L146.252 42.7536C146.252 42.7536 137.332 56.807 136.77 57.2174C136.208 57.6277 135.878 57.708 134.893 57.708C133.907 57.708 125.736 46.4286 125.736 46.4286L129.969 32.2101Z" fill="#11305B" stroke="#263238" stroke-linecap="round" stroke-linejoin="round"/>
<path d="M96.9509 34.9887L92.0449 58.8542L107.084 68.0061L108.391 64.3266L100.135 55.9106L101.772 47.7354L96.9509 34.9887Z" fill="#11305B" stroke="#263238" stroke-linecap="round" stroke-linejoin="round"/>
<path d="M108.377 64.3266L113.671 64.0234C113.671 64.0234 116.659 63.8271 117.725 63.1715C118.791 62.5159 119.594 62.6407 119.594 63.2116C119.594 63.7825 119.063 64.1438 117.971 64.8083C117.846 64.8841 120.441 66.4184 121.316 67.0383C121.404 67.0983 121.468 67.188 121.496 67.2911C121.523 67.3943 121.513 67.504 121.467 67.6003C121.446 67.6548 121.413 67.7045 121.372 67.7465C121.332 67.7886 121.283 67.8222 121.229 67.8454C121.175 67.8686 121.117 67.8809 121.059 67.8817C121 67.8825 120.942 67.8718 120.887 67.85L117.123 66.512L114.915 66.4317L118.515 67.9036L120.901 69.2415C121.012 69.3045 121.099 69.4026 121.148 69.5205C121.198 69.6384 121.206 69.7694 121.173 69.8927C121.138 70.023 121.057 70.1366 120.946 70.2134C120.835 70.2901 120.701 70.3251 120.566 70.3119C119.821 70.2361 118.443 70.089 118.269 70.031C118.024 69.9507 114.755 68.7242 114.755 68.7242L116.798 70.2763L118.301 71.3422C118.36 71.3834 118.41 71.4362 118.448 71.4975C118.487 71.5587 118.512 71.6272 118.523 71.6986C118.534 71.77 118.53 71.8428 118.512 71.9127C118.493 71.9825 118.461 72.0479 118.417 72.1049C118.349 72.1918 118.256 72.2559 118.151 72.2886C118.046 72.3213 117.933 72.321 117.828 72.2877L115.152 71.4225L113.274 71.0924L110.576 69.3084L107.307 67.1007L108.377 64.3266Z" fill="white" stroke="#263238" stroke-linecap="round" stroke-linejoin="round"/>
<path d="M114.438 71.2753L112.641 69.4779" stroke="#263238" stroke-linecap="round" stroke-linejoin="round"/>
<path d="M117.984 64.8083C117.984 64.8083 116.28 63.6353 114.809 63.8806" stroke="#263238" stroke-linecap="round" stroke-linejoin="round"/>
<path d="M52.8148 133.082C51.5795 127.539 51.0935 121.855 51.3698 116.183L27.4329 89.1732C27.0116 88.6988 26.4591 88.3598 25.8453 88.1991C25.2314 88.0384 24.5837 88.0631 23.9839 88.2702C23.3841 88.4773 22.8591 88.8574 22.4752 89.3627C22.0912 89.8679 21.8656 90.4755 21.8267 91.1089L20.4887 113.578C20.4207 114.727 20.7744 115.861 21.4833 116.767C25.5999 122.035 40.0191 140.28 42.481 140.753C45.157 141.266 53.854 140.624 54.969 140.539C54.1001 138.099 53.3807 135.609 52.8148 133.082Z" fill="#263238"/>
<path d="M67.3817 69.6251C67.3817 69.6251 67.2791 66.7127 67.0695 66.2979C66.8599 65.8831 66.0303 64.5139 66.2355 63.8003C66.4406 63.0867 66.7573 62.3419 67.1721 60.9905C67.5869 59.6391 67.7965 59.2065 68.3183 59.3269C68.8401 59.4473 68.8357 60.1609 68.5235 61.1109C68.3271 61.7516 68.222 62.4167 68.2113 63.0867L69.1479 64.4247C69.1479 64.4247 70.0399 60.9504 70.2183 60.4107C70.3967 59.871 70.6955 58.8051 71.0434 58.6267C71.1601 58.5831 71.2866 58.5721 71.4092 58.5949C71.5317 58.6176 71.6458 58.6734 71.7391 58.756C71.7391 58.756 72.0424 58.1049 72.5196 58.2342C72.9968 58.3636 73.0414 58.4528 73.1708 59.0147C73.3001 59.5767 73.8219 59.4072 74.1252 60.0584C74.3373 60.5584 74.4871 61.0827 74.5712 61.6194C74.5712 61.6194 74.7452 61.4454 74.7898 62.8771C74.8921 64.1642 74.8622 65.4584 74.7006 66.7394C74.4865 68.1265 73.532 68.7777 72.8809 69.4734C72.2297 70.1692 71.4894 70.6865 71.36 70.9497C71.2307 71.2128 70.914 71.3957 70.7981 71.5116C70.6821 71.6276 67.065 70.6865 67.065 70.6865L67.3817 69.6251Z" fill="#CCCCCC" stroke="#263238" stroke-linecap="round" stroke-linejoin="round"/>
<path d="M71.6509 59.0861L71.4369 61.2135L70.6965 63.8583L70.4824 64.6388" stroke="#263238" stroke-linecap="round" stroke-linejoin="round"/>
<path d="M73.2564 59.3448C73.0447 59.7148 72.9397 60.1363 72.9531 60.5624C72.8952 61.683 72.7655 62.7988 72.5651 63.9029C72.4554 64.3535 72.2953 64.7904 72.0879 65.2052" stroke="#263238" stroke-linecap="round" stroke-linejoin="round"/>
<path d="M74.482 61.994C74.482 61.994 73.9156 61.9494 73.8308 62.8191C73.7461 63.6888 73.5677 64.9866 73.5276 65.1606C73.4358 65.3618 73.3189 65.5506 73.1797 65.7225" stroke="#263238" stroke-linecap="round" stroke-linejoin="round"/>
<path d="M69.4824 64.9866C69.4824 64.9866 70.089 66.0303 69.9596 66.6368C69.8898 66.9743 69.802 67.3078 69.6965 67.6359" stroke="#263238" stroke-linecap="round" stroke-linejoin="round"/>
<path d="M42.731 83.2504C42.731 83.2504 46.4774 84.3922 48.8679 84.3922C51.2585 84.3922 59.059 85.5384 59.059 85.5384L67.3814 69.6251C67.8682 69.5696 68.3611 69.6043 68.8353 69.7277C69.5668 69.9373 72.2695 71.8105 72.2695 71.8105C72.2695 71.8105 68.8353 84.914 68.2109 87.0994C67.8592 88.2484 67.3726 89.3518 66.7614 90.3864C66.4282 90.9555 65.9412 91.4192 65.3565 91.7244C63.4432 92.7368 58.5863 95.1318 53.9657 96.0238C48.0339 97.1701 46.9947 95.5065 46.9947 95.5065L41.7944 96.4386C41.7944 96.4386 38.989 99.0388 36.2818 91.0331C33.5746 83.0274 42.731 83.2504 42.731 83.2504Z" fill="white" stroke="#263238" stroke-linecap="round" stroke-linejoin="round"/>
<path d="M45.2112 85.467L44.2925 83.4555C44.2925 83.4555 43.1463 80.6502 41.4827 80.5431C39.8191 80.4361 34.9309 81.065 32.5582 83.7677C31.1757 85.2827 29.9779 86.9565 28.9902 88.754C27.8774 91.2245 26.9051 93.7558 26.0778 96.336C24.4143 101.327 23.7899 106.839 27.5318 114.225C29.8538 118.767 32.6848 123.03 35.9701 126.932C35.9701 126.932 35.2342 129.844 41.6923 133.278C45.6528 135.388 50.3759 135.009 53.1277 134.415C53.0207 133.969 52.9137 133.523 52.8155 133.077C50.8425 124.248 50.7862 115.099 52.6505 106.246C51.5311 105.225 49.9032 103.686 49.3903 101.862C48.8283 99.8728 48.6053 97.2904 48.3377 94.9355" fill="white"/>
<path d="M45.2112 85.467L44.2925 83.4555C44.2925 83.4555 43.1463 80.6502 41.4827 80.5431C39.8191 80.4361 34.9309 81.065 32.5582 83.7677C31.1757 85.2827 29.9779 86.9565 28.9902 88.754C27.8774 91.2245 26.9051 93.7558 26.0778 96.336C24.4143 101.327 23.7899 106.839 27.5318 114.225C29.8538 118.767 32.6848 123.03 35.9701 126.932C35.9701 126.932 35.2342 129.844 41.6923 133.278C45.6528 135.388 50.3759 135.009 53.1277 134.415C53.0207 133.969 52.9137 133.523 52.8155 133.077C50.8425 124.248 50.7862 115.099 52.6505 106.246C51.5311 105.225 49.9032 103.686 49.3903 101.862C48.8283 99.8728 48.6053 97.2904 48.3377 94.9355" stroke="#263238" stroke-linecap="round" stroke-linejoin="round"/>
<path d="M29.437 88.0359L28.6074 91.2561C28.8429 92.0381 29.2561 92.755 29.8147 93.3508C30.3734 93.9466 31.0623 94.405 31.8275 94.6903C34.4277 95.6269 39.0081 95.9391 40.7743 93.4415C42.5405 90.9439 39.8377 88.0359 39.8377 88.0359H29.437Z" fill="white" stroke="#263238" stroke-linecap="round" stroke-linejoin="round"/>
<path d="M39.5063 69.9372C39.9131 70.2993 40.2634 70.7202 40.5454 71.186C41.1698 72.1226 40.8576 72.97 41.7942 73.1618C42.7308 73.3536 44.1893 72.1227 44.497 73.474C44.8047 74.8254 43.9796 77.5282 43.9796 77.5282C43.9796 77.5282 44.497 81.5868 44.2918 83.4555C44.0867 85.3242 43.77 86.3679 42.8334 86.7871C42.336 87.0185 41.8138 87.1921 41.2769 87.3045L39.1941 91.7645C39.1941 91.7645 36.9061 92.3889 33.6815 90.9305C30.4569 89.4721 29.4356 88.0359 29.4356 88.0359C29.4356 88.0359 27.2502 86.4749 26.4206 84.2895C25.5911 82.1041 34.0026 79.2988 36.1969 75.5524C38.3913 71.806 38.3556 69.3128 39.5063 69.9372Z" fill="#CCCCCC" stroke="#263238" stroke-linecap="round" stroke-linejoin="round"/>
<path d="M36.8043 87.6167C37.486 87.3669 38.1023 86.9659 38.6067 86.4437C39.1111 85.9215 39.4906 85.2917 39.7167 84.6017C39.7167 84.6017 39.4044 85.7435 37.6338 86.2653C35.8632 86.7871 34.5118 84.9273 34.7214 82.5234C34.9311 80.1194 37.0094 80.4406 37.3216 80.6502C37.6338 80.8598 38.9897 81.4797 39.507 80.7528C40.0244 80.0258 37.219 77.0108 37.219 77.0108L37.8434 72.7426L38.9272 69.9283C38.2761 70.3743 37.9237 72.5642 36.1799 75.5524C33.9945 79.2988 25.5695 82.1042 26.4036 84.2896C27.2376 86.475 29.4185 88.0359 29.4185 88.0359C30.9795 88.754 34.4092 88.5533 36.8043 87.6167Z" fill="#263238"/>
<path d="M20.3691 77.323L26.4035 84.294C26.4035 84.294 29.8332 83.46 34.931 79.5084C36.4026 78.3954 37.586 76.946 38.3822 75.2815C39.1783 73.617 39.564 71.7859 39.507 69.9417C39.507 69.9417 33.6822 65.4817 32.2282 64.7414C30.7743 64.001 25.7791 65.2587 22.8622 68.6929C19.9454 72.1271 19.6243 75.8646 20.3691 77.323Z" fill="white" stroke="#263238" stroke-linecap="round" stroke-linejoin="round"/>
<path d="M29.0664 74.8254C31.1135 72.7649 32.2285 70.0131 32.2285 68.3763" stroke="#263238" stroke-linecap="round" stroke-linejoin="round"/>
<path d="M21.7207 77.0108C21.7207 77.0108 23.1791 78.4648 26.7159 76.5916C27.0498 76.413 27.373 76.2149 27.6837 75.9984" stroke="#263238" stroke-linecap="round" stroke-linejoin="round"/>
<path d="M43.9806 80.2354C43.9806 80.2354 43.878 81.6894 42.6426 81.899" stroke="#263238" stroke-linecap="round" stroke-linejoin="round"/>
<path d="M41.2324 74.2278C41.5089 74.7987 41.5625 75.3428 41.3528 75.4409C41.1432 75.539 40.7552 75.1599 40.4608 74.589C40.1665 74.0182 40.1353 73.4785 40.3404 73.3759C40.5456 73.2733 40.9604 73.6569 41.2324 74.2278Z" fill="#263238"/>
<path d="M59.9512 109.301C59.9512 109.301 62.3061 107.022 63.0107 106.237C63.7154 105.452 64.2685 105.533 65.3656 105.14C66.5259 104.634 67.6535 104.056 68.7418 103.41C69.0585 103.253 69.6874 103.726 69.2949 104.355C68.9024 104.984 68.7418 104.904 68.1932 105.376C67.6447 105.849 66.7036 106.474 66.5431 106.714C66.3825 106.955 69.2949 106.322 69.7632 106.086C70.2315 105.849 71.4134 104.302 71.7256 103.967C72.0378 103.633 72.5908 103.182 72.8272 103.806C73.0636 104.431 71.9619 105.59 71.0432 107.419C70.1244 109.248 67.5867 111.348 66.3334 111.661C65.0802 111.973 62.5647 112.209 62.0117 112.289C61.4586 112.37 59.9512 109.301 59.9512 109.301Z" fill="#CCCCCC" stroke="#263238" stroke-miterlimit="10"/>
<path d="M66.5442 106.71L64.6621 108.436" stroke="#263238" stroke-miterlimit="10"/>
<path d="M29.7212 103.726C29.7212 103.726 29.641 111.5 31.4473 114.952C33.2536 118.404 38.3558 124.764 39.6135 126.811C40.8712 128.858 45.7371 130.419 47.1509 129.634C48.5647 128.849 63.2471 112.686 63.2471 112.686L59.9511 109.31L47.3873 118.498C47.3873 118.498 46.4462 117.16 46.2857 116.923C45.8164 116.498 45.3187 116.104 44.796 115.746C44.796 115.746 44.7158 111.286 43.855 109.622C42.3767 107.187 40.6665 104.9 38.7483 102.794" fill="white"/>
<path d="M29.7212 103.726C29.7212 103.726 29.641 111.5 31.4473 114.952C33.2536 118.404 38.3558 124.764 39.6135 126.811C40.8712 128.858 45.7371 130.419 47.1509 129.634C48.5647 128.849 63.2471 112.686 63.2471 112.686L59.9511 109.31L47.3873 118.498C47.3873 118.498 46.4462 117.16 46.2857 116.923C45.8164 116.498 45.3187 116.104 44.796 115.746C44.796 115.746 44.7158 111.286 43.855 109.622C42.3767 107.187 40.6665 104.9 38.7483 102.794" stroke="#263238" stroke-miterlimit="10"/>
<g opacity="0.3">
<path d="M72.2305 20.1771L77.8233 25.7699" stroke="black" stroke-linecap="round" stroke-linejoin="round"/>
<path d="M77.8233 20.1771L72.2305 25.7699" stroke="black" stroke-linecap="round" stroke-linejoin="round"/>
<path d="M21.2832 195.794L26.8805 201.387" stroke="black" stroke-linecap="round" stroke-linejoin="round"/>
<path d="M26.8805 195.794L21.2832 201.387" stroke="black" stroke-linecap="round" stroke-linejoin="round"/>
<path d="M35.5234 43.6991L39.1093 47.2894" stroke="black" stroke-linecap="round" stroke-linejoin="round"/>
<path d="M39.1093 43.6991L35.5234 47.2894" stroke="black" stroke-linecap="round" stroke-linejoin="round"/>
<path d="M153.076 195.794L156.662 199.38" stroke="black" stroke-linecap="round" stroke-linejoin="round"/>
<path d="M156.662 195.794L153.076 199.38" stroke="black" stroke-linecap="round" stroke-linejoin="round"/>
<path d="M40.2207 177.124L43.8065 180.71" stroke="black" stroke-linecap="round" stroke-linejoin="round"/>
<path d="M43.8065 177.124L40.2207 180.71" stroke="black" stroke-linecap="round" stroke-linejoin="round"/>
<path d="M157.928 16.6982L161.514 20.2841" stroke="black" stroke-linecap="round" stroke-linejoin="round"/>
<path d="M205.602 66.1641L209.187 69.7544" stroke="black" stroke-linecap="round" stroke-linejoin="round"/>
<path d="M209.187 66.1641L205.602 69.7544" stroke="black" stroke-linecap="round" stroke-linejoin="round"/>
<path d="M161.514 16.6982L157.928 20.2841" stroke="black" stroke-linecap="round" stroke-linejoin="round"/>
<path d="M195.795 143.897L199.381 147.488" stroke="black" stroke-linecap="round" stroke-linejoin="round"/>
<path d="M199.381 143.897L195.795 147.488" stroke="black" stroke-linecap="round" stroke-linejoin="round"/>
<path d="M71.2305 192.734L74.8163 196.325" stroke="black" stroke-linecap="round" stroke-linejoin="round"/>
<path d="M74.8163 192.734L71.2305 196.325" stroke="black" stroke-linecap="round" stroke-linejoin="round"/>
<path d="M204.759 27.5628C204.759 27.1218 204.628 26.6906 204.383 26.3239C204.138 25.9572 203.79 25.6714 203.382 25.5026C202.975 25.3338 202.526 25.2896 202.094 25.3757C201.661 25.4617 201.264 25.6741 200.952 25.986C200.64 26.2978 200.428 26.6952 200.342 27.1278C200.256 27.5604 200.3 28.0087 200.469 28.4162C200.637 28.8237 200.923 29.172 201.29 29.417C201.657 29.662 202.088 29.7928 202.529 29.7928C203.12 29.7928 203.687 29.5579 204.106 29.1397C204.524 28.7215 204.759 28.1543 204.759 27.5628Z" stroke="black" stroke-linecap="round" stroke-linejoin="round"/>
<path d="M100.024 12.042C100.024 11.601 99.8937 11.1698 99.6486 10.8031C99.4036 10.4364 99.0553 10.1505 98.6478 9.98176C98.2404 9.81298 97.792 9.76882 97.3594 9.85486C96.9268 9.94091 96.5295 10.1533 96.2176 10.4652C95.9057 10.777 95.6933 11.1744 95.6073 11.607C95.5213 12.0395 95.5654 12.4879 95.7342 12.8954C95.903 13.3029 96.1888 13.6512 96.5555 13.8962C96.9223 14.1412 97.3534 14.272 97.7945 14.272C98.3859 14.272 98.9531 14.0371 99.3713 13.6189C99.7895 13.2007 100.024 12.6334 100.024 12.042Z" stroke="black" stroke-linecap="round" stroke-linejoin="round"/>
<path d="M50.6619 21.5507C51.8861 21.5507 52.8786 20.5583 52.8786 19.3341C52.8786 18.1099 51.8861 17.1175 50.6619 17.1175C49.4377 17.1175 48.4453 18.1099 48.4453 19.3341C48.4453 20.5583 49.4377 21.5507 50.6619 21.5507Z" stroke="black" stroke-linecap="round" stroke-linejoin="round"/>
<path d="M25.9795 147.488C25.9795 147.047 25.8487 146.616 25.6037 146.249C25.3587 145.882 25.0104 145.596 24.6029 145.427C24.1954 145.259 23.7471 145.215 23.3145 145.301C22.8819 145.387 22.4846 145.599 22.1727 145.911C21.8608 146.223 21.6484 146.62 21.5624 147.053C21.4763 147.485 21.5205 147.934 21.6893 148.341C21.8581 148.749 22.1439 149.097 22.5106 149.342C22.8773 149.587 23.3085 149.718 23.7495 149.718C24.341 149.718 24.9082 149.483 25.3264 149.065C25.7446 148.646 25.9795 148.079 25.9795 147.488Z" stroke="black" stroke-linecap="round" stroke-linejoin="round"/>
<path d="M175.966 182.61C175.966 182.169 175.835 181.738 175.59 181.371C175.345 181.005 174.997 180.719 174.589 180.55C174.182 180.381 173.733 180.337 173.301 180.423C172.868 180.509 172.471 180.722 172.159 181.033C171.847 181.345 171.635 181.743 171.549 182.175C171.463 182.608 171.507 183.056 171.676 183.464C171.844 183.871 172.13 184.219 172.497 184.464C172.864 184.709 173.295 184.84 173.736 184.84C174.327 184.84 174.895 184.605 175.313 184.187C175.731 183.769 175.966 183.202 175.966 182.61Z" stroke="black" stroke-linecap="round" stroke-linejoin="round"/>
<path d="M207.608 135.138C207.608 134.697 207.478 134.266 207.233 133.899C206.988 133.532 206.639 133.247 206.232 133.078C205.824 132.909 205.376 132.865 204.943 132.951C204.511 133.037 204.113 133.249 203.802 133.561C203.49 133.873 203.277 134.27 203.191 134.703C203.105 135.136 203.149 135.584 203.318 135.991C203.487 136.399 203.773 136.747 204.14 136.992C204.506 137.237 204.937 137.368 205.378 137.368C205.97 137.368 206.537 137.133 206.955 136.715C207.374 136.297 207.608 135.729 207.608 135.138Z" stroke="black" stroke-linecap="round" stroke-linejoin="round"/>
<path d="M195.763 171.447C195.764 171.053 195.648 170.668 195.43 170.341C195.212 170.013 194.902 169.757 194.539 169.606C194.175 169.455 193.775 169.415 193.389 169.491C193.003 169.567 192.648 169.756 192.369 170.034C192.091 170.312 191.901 170.667 191.824 171.053C191.747 171.439 191.786 171.839 191.936 172.203C192.087 172.566 192.342 172.877 192.669 173.096C192.996 173.315 193.381 173.432 193.774 173.432C194.301 173.432 194.806 173.223 195.179 172.851C195.552 172.478 195.762 171.974 195.763 171.447Z" stroke="black" stroke-linecap="round" stroke-linejoin="round"/>
<path d="M200.646 182.927L204.232 186.513" stroke="black" stroke-linecap="round" stroke-linejoin="round"/>
<path d="M204.232 182.927L200.646 186.513" stroke="black" stroke-linecap="round" stroke-linejoin="round"/>
<path d="M52.6502 71.7703C52.6502 71.3769 52.5335 70.9923 52.315 70.6652C52.0964 70.3381 51.7857 70.0832 51.4223 69.9326C51.0588 69.7821 50.6588 69.7427 50.273 69.8194C49.8871 69.8962 49.5327 70.0856 49.2545 70.3638C48.9763 70.642 48.7868 70.9964 48.7101 71.3823C48.6333 71.7681 48.6727 72.1681 48.8233 72.5316C48.9738 72.895 49.2288 73.2057 49.5559 73.4243C49.883 73.6428 50.2676 73.7595 50.661 73.7595C51.1886 73.7595 51.6945 73.5499 52.0676 73.1769C52.4406 72.8039 52.6502 72.2979 52.6502 71.7703Z" stroke="black" stroke-linecap="round" stroke-linejoin="round"/>
</g>
</svg>
